G04 (created by PCBNEW (2013-07-07 BZR 4022)-stable) date 24/06/2015 00:02:27*
%MOIN*%
G04 Gerber Fmt 3.4, Leading zero omitted, Abs format*
%FSLAX34Y34*%
G01*
G70*
G90*
G04 APERTURE LIST*
%ADD10C,0.005*%
%ADD11C,0.00393701*%
%ADD12C,0.00787402*%
%ADD13C,0.011811*%
G04 APERTURE END LIST*
G54D10*
G54D11*
X90393Y-55393D02*
X72244Y-55393D01*
X90393Y-74960D02*
X90393Y-55393D01*
X72244Y-74960D02*
X90393Y-74960D01*
X72244Y-55393D02*
X72244Y-74960D01*
G54D12*
X73375Y-57575D02*
X73625Y-57825D01*
X73625Y-57575D02*
X73375Y-57825D01*
X74225Y-68275D02*
X74475Y-68525D01*
X74475Y-68275D02*
X74225Y-68525D01*
X74475Y-62225D02*
X74725Y-62475D01*
X74725Y-62225D02*
X74475Y-62475D01*
X75025Y-70325D02*
X75275Y-70575D01*
X75275Y-70325D02*
X75025Y-70575D01*
X75125Y-67575D02*
X75375Y-67825D01*
X75375Y-67575D02*
X75125Y-67825D01*
X75275Y-59825D02*
X75525Y-60075D01*
X75525Y-59825D02*
X75275Y-60075D01*
X75375Y-65725D02*
X75625Y-65975D01*
X75625Y-65725D02*
X75375Y-65975D01*
X76025Y-73275D02*
X76275Y-73525D01*
X76275Y-73275D02*
X76025Y-73525D01*
X76375Y-64025D02*
X76625Y-64275D01*
X76625Y-64025D02*
X76375Y-64275D01*
X78425Y-57575D02*
X78675Y-57825D01*
X78675Y-57575D02*
X78425Y-57825D01*
X78825Y-65225D02*
X79075Y-65475D01*
X79075Y-65225D02*
X78825Y-65475D01*
X78875Y-69425D02*
X79125Y-69675D01*
X79125Y-69425D02*
X78875Y-69675D01*
X78925Y-66375D02*
X79175Y-66625D01*
X79175Y-66375D02*
X78925Y-66625D01*
X81475Y-72975D02*
X81725Y-73225D01*
X81725Y-72975D02*
X81475Y-73225D01*
X81525Y-70875D02*
X81775Y-71125D01*
X81775Y-70875D02*
X81525Y-71125D01*
X82325Y-66875D02*
X82575Y-67125D01*
X82575Y-66875D02*
X82325Y-67125D01*
X82825Y-60675D02*
X83075Y-60925D01*
X83075Y-60675D02*
X82825Y-60925D01*
X84175Y-60575D02*
X84425Y-60825D01*
X84425Y-60575D02*
X84175Y-60825D01*
X85425Y-66025D02*
X85675Y-66275D01*
X85675Y-66025D02*
X85425Y-66275D01*
X85875Y-61025D02*
X86125Y-61275D01*
X86125Y-61025D02*
X85875Y-61275D01*
X86825Y-70125D02*
X87075Y-70375D01*
X87075Y-70125D02*
X86825Y-70375D01*
X86875Y-60225D02*
X87125Y-60475D01*
X87125Y-60225D02*
X86875Y-60475D01*
X87675Y-60875D02*
X87925Y-61125D01*
X87925Y-60875D02*
X87675Y-61125D01*
X88525Y-66725D02*
X88775Y-66975D01*
X88775Y-66725D02*
X88525Y-66975D01*
X88675Y-59525D02*
X88925Y-59775D01*
X88925Y-59525D02*
X88675Y-59775D01*
X84650Y-69250D02*
G75*
G03X84650Y-69250I-150J0D01*
G74*
G01*
X84650Y-71250D02*
G75*
G03X84650Y-71250I-150J0D01*
G74*
G01*
X72900Y-69290D02*
X72900Y-69610D01*
X72740Y-69450D02*
X73060Y-69450D01*
X72900Y-70290D02*
X72900Y-70610D01*
X72740Y-70450D02*
X73060Y-70450D01*
X72950Y-67190D02*
X72950Y-67510D01*
X72790Y-67350D02*
X73110Y-67350D01*
X73200Y-63240D02*
X73200Y-63560D01*
X73040Y-63400D02*
X73360Y-63400D01*
X73200Y-64240D02*
X73200Y-64560D01*
X73040Y-64400D02*
X73360Y-64400D01*
X73350Y-71740D02*
X73350Y-72060D01*
X73190Y-71900D02*
X73510Y-71900D01*
X73550Y-58940D02*
X73550Y-59260D01*
X73390Y-59100D02*
X73710Y-59100D01*
X73550Y-59940D02*
X73550Y-60260D01*
X73390Y-60100D02*
X73710Y-60100D01*
X73950Y-67190D02*
X73950Y-67510D01*
X73790Y-67350D02*
X74110Y-67350D01*
X74350Y-71740D02*
X74350Y-72060D01*
X74190Y-71900D02*
X74510Y-71900D01*
X77100Y-74190D02*
X77100Y-74510D01*
X76940Y-74350D02*
X77260Y-74350D01*
X78100Y-74190D02*
X78100Y-74510D01*
X77940Y-74350D02*
X78260Y-74350D01*
X79100Y-74190D02*
X79100Y-74510D01*
X78940Y-74350D02*
X79260Y-74350D01*
X80100Y-74190D02*
X80100Y-74510D01*
X79940Y-74350D02*
X80260Y-74350D01*
X81100Y-74190D02*
X81100Y-74510D01*
X80940Y-74350D02*
X81260Y-74350D01*
X82450Y-72240D02*
X82450Y-72560D01*
X82290Y-72400D02*
X82610Y-72400D01*
X82450Y-73240D02*
X82450Y-73560D01*
X82290Y-73400D02*
X82610Y-73400D01*
X82450Y-74240D02*
X82450Y-74560D01*
X82290Y-74400D02*
X82610Y-74400D01*
X85250Y-58490D02*
X85250Y-58810D01*
X85090Y-58650D02*
X85410Y-58650D01*
X85250Y-62490D02*
X85250Y-62810D01*
X85090Y-62650D02*
X85410Y-62650D01*
X86750Y-56040D02*
X86750Y-56360D01*
X86590Y-56200D02*
X86910Y-56200D01*
X87750Y-56040D02*
X87750Y-56360D01*
X87590Y-56200D02*
X87910Y-56200D01*
X88750Y-58490D02*
X88750Y-58810D01*
X88590Y-58650D02*
X88910Y-58650D01*
X88750Y-62490D02*
X88750Y-62810D01*
X88590Y-62650D02*
X88910Y-62650D01*
X89550Y-55990D02*
X89550Y-56310D01*
X89390Y-56150D02*
X89710Y-56150D01*
X89550Y-56990D02*
X89550Y-57310D01*
X89390Y-57150D02*
X89710Y-57150D01*
X89600Y-70490D02*
X89600Y-70810D01*
X89440Y-70650D02*
X89760Y-70650D01*
X89600Y-71490D02*
X89600Y-71810D01*
X89440Y-71650D02*
X89760Y-71650D01*
X82515Y-65265D02*
X82515Y-64234D01*
X81484Y-64234D01*
X81484Y-65265D01*
X82515Y-65265D01*
X89350Y-74137D02*
X90137Y-73350D01*
X89350Y-72562D01*
X88562Y-73350D01*
X89350Y-74137D01*
X73564Y-72814D02*
X75335Y-74585D01*
X75335Y-72814D02*
X73564Y-74585D01*
X75335Y-73700D02*
G75*
G03X75335Y-73700I-885J0D01*
G74*
G01*
G54D13*
X73293Y-76757D02*
X73293Y-75576D01*
X73574Y-75576D01*
X73742Y-75632D01*
X73855Y-75745D01*
X73911Y-75857D01*
X73967Y-76082D01*
X73967Y-76251D01*
X73911Y-76476D01*
X73855Y-76588D01*
X73742Y-76701D01*
X73574Y-76757D01*
X73293Y-76757D01*
X74474Y-76757D02*
X74474Y-75970D01*
X74474Y-76195D02*
X74530Y-76082D01*
X74586Y-76026D01*
X74699Y-75970D01*
X74811Y-75970D01*
X75205Y-76757D02*
X75205Y-75970D01*
X75205Y-75576D02*
X75149Y-75632D01*
X75205Y-75688D01*
X75261Y-75632D01*
X75205Y-75576D01*
X75205Y-75688D01*
X75936Y-76757D02*
X75823Y-76701D01*
X75767Y-76588D01*
X75767Y-75576D01*
X76555Y-76757D02*
X76442Y-76701D01*
X76386Y-76588D01*
X76386Y-75576D01*
X77904Y-76757D02*
X77904Y-75576D01*
X78298Y-76420D01*
X78692Y-75576D01*
X78692Y-76757D01*
X79760Y-76757D02*
X79760Y-76138D01*
X79704Y-76026D01*
X79592Y-75970D01*
X79367Y-75970D01*
X79254Y-76026D01*
X79760Y-76701D02*
X79648Y-76757D01*
X79367Y-76757D01*
X79254Y-76701D01*
X79198Y-76588D01*
X79198Y-76476D01*
X79254Y-76363D01*
X79367Y-76307D01*
X79648Y-76307D01*
X79760Y-76251D01*
X80323Y-75970D02*
X80323Y-77151D01*
X80323Y-76026D02*
X80435Y-75970D01*
X80660Y-75970D01*
X80773Y-76026D01*
X80829Y-76082D01*
X80885Y-76195D01*
X80885Y-76532D01*
X80829Y-76645D01*
X80773Y-76701D01*
X80660Y-76757D01*
X80435Y-76757D01*
X80323Y-76701D01*
X81392Y-76645D02*
X81448Y-76701D01*
X81392Y-76757D01*
X81335Y-76701D01*
X81392Y-76645D01*
X81392Y-76757D01*
X81392Y-76026D02*
X81448Y-76082D01*
X81392Y-76138D01*
X81335Y-76082D01*
X81392Y-76026D01*
X81392Y-76138D01*
X71974Y-78634D02*
X72224Y-78884D01*
X72224Y-78634D02*
X71974Y-78884D01*
X73517Y-78056D02*
X73630Y-78056D01*
X73742Y-78113D01*
X73799Y-78169D01*
X73855Y-78281D01*
X73911Y-78506D01*
X73911Y-78787D01*
X73855Y-79012D01*
X73799Y-79125D01*
X73742Y-79181D01*
X73630Y-79237D01*
X73517Y-79237D01*
X73405Y-79181D01*
X73349Y-79125D01*
X73293Y-79012D01*
X73236Y-78787D01*
X73236Y-78506D01*
X73293Y-78281D01*
X73349Y-78169D01*
X73405Y-78113D01*
X73517Y-78056D01*
X74417Y-79125D02*
X74474Y-79181D01*
X74417Y-79237D01*
X74361Y-79181D01*
X74417Y-79125D01*
X74417Y-79237D01*
X75486Y-78056D02*
X75261Y-78056D01*
X75149Y-78113D01*
X75092Y-78169D01*
X74980Y-78338D01*
X74924Y-78562D01*
X74924Y-79012D01*
X74980Y-79125D01*
X75036Y-79181D01*
X75149Y-79237D01*
X75374Y-79237D01*
X75486Y-79181D01*
X75542Y-79125D01*
X75598Y-79012D01*
X75598Y-78731D01*
X75542Y-78619D01*
X75486Y-78562D01*
X75374Y-78506D01*
X75149Y-78506D01*
X75036Y-78562D01*
X74980Y-78619D01*
X74924Y-78731D01*
X76611Y-78450D02*
X76611Y-79237D01*
X76330Y-78000D02*
X76048Y-78844D01*
X76780Y-78844D01*
X77230Y-79237D02*
X77230Y-78450D01*
X77230Y-78562D02*
X77286Y-78506D01*
X77398Y-78450D01*
X77567Y-78450D01*
X77679Y-78506D01*
X77736Y-78619D01*
X77736Y-79237D01*
X77736Y-78619D02*
X77792Y-78506D01*
X77904Y-78450D01*
X78073Y-78450D01*
X78186Y-78506D01*
X78242Y-78619D01*
X78242Y-79237D01*
X78804Y-79237D02*
X78804Y-78450D01*
X78804Y-78562D02*
X78861Y-78506D01*
X78973Y-78450D01*
X79142Y-78450D01*
X79254Y-78506D01*
X79311Y-78619D01*
X79311Y-79237D01*
X79311Y-78619D02*
X79367Y-78506D01*
X79479Y-78450D01*
X79648Y-78450D01*
X79760Y-78506D01*
X79817Y-78619D01*
X79817Y-79237D01*
X82123Y-78000D02*
X81110Y-79519D01*
X83641Y-78056D02*
X83754Y-78056D01*
X83866Y-78113D01*
X83922Y-78169D01*
X83979Y-78281D01*
X84035Y-78506D01*
X84035Y-78787D01*
X83979Y-79012D01*
X83922Y-79125D01*
X83866Y-79181D01*
X83754Y-79237D01*
X83641Y-79237D01*
X83529Y-79181D01*
X83473Y-79125D01*
X83416Y-79012D01*
X83360Y-78787D01*
X83360Y-78506D01*
X83416Y-78281D01*
X83473Y-78169D01*
X83529Y-78113D01*
X83641Y-78056D01*
X84541Y-79125D02*
X84597Y-79181D01*
X84541Y-79237D01*
X84485Y-79181D01*
X84541Y-79125D01*
X84541Y-79237D01*
X85329Y-78056D02*
X85441Y-78056D01*
X85553Y-78113D01*
X85610Y-78169D01*
X85666Y-78281D01*
X85722Y-78506D01*
X85722Y-78787D01*
X85666Y-79012D01*
X85610Y-79125D01*
X85553Y-79181D01*
X85441Y-79237D01*
X85329Y-79237D01*
X85216Y-79181D01*
X85160Y-79125D01*
X85104Y-79012D01*
X85047Y-78787D01*
X85047Y-78506D01*
X85104Y-78281D01*
X85160Y-78169D01*
X85216Y-78113D01*
X85329Y-78056D01*
X86172Y-78169D02*
X86228Y-78113D01*
X86341Y-78056D01*
X86622Y-78056D01*
X86735Y-78113D01*
X86791Y-78169D01*
X86847Y-78281D01*
X86847Y-78394D01*
X86791Y-78562D01*
X86116Y-79237D01*
X86847Y-79237D01*
X87916Y-78056D02*
X87353Y-78056D01*
X87297Y-78619D01*
X87353Y-78562D01*
X87466Y-78506D01*
X87747Y-78506D01*
X87859Y-78562D01*
X87916Y-78619D01*
X87972Y-78731D01*
X87972Y-79012D01*
X87916Y-79125D01*
X87859Y-79181D01*
X87747Y-79237D01*
X87466Y-79237D01*
X87353Y-79181D01*
X87297Y-79125D01*
X88422Y-78056D02*
X88422Y-78281D01*
X88872Y-78056D02*
X88872Y-78281D01*
X90615Y-79687D02*
X90559Y-79631D01*
X90447Y-79462D01*
X90390Y-79350D01*
X90334Y-79181D01*
X90278Y-78900D01*
X90278Y-78675D01*
X90334Y-78394D01*
X90390Y-78225D01*
X90447Y-78113D01*
X90559Y-77944D01*
X90615Y-77888D01*
X91009Y-78169D02*
X91065Y-78113D01*
X91178Y-78056D01*
X91459Y-78056D01*
X91571Y-78113D01*
X91628Y-78169D01*
X91684Y-78281D01*
X91684Y-78394D01*
X91628Y-78562D01*
X90953Y-79237D01*
X91684Y-79237D01*
X92753Y-78056D02*
X92190Y-78056D01*
X92134Y-78619D01*
X92190Y-78562D01*
X92303Y-78506D01*
X92584Y-78506D01*
X92696Y-78562D01*
X92753Y-78619D01*
X92809Y-78731D01*
X92809Y-79012D01*
X92753Y-79125D01*
X92696Y-79181D01*
X92584Y-79237D01*
X92303Y-79237D01*
X92190Y-79181D01*
X92134Y-79125D01*
X94215Y-79237D02*
X94215Y-78056D01*
X94721Y-79237D02*
X94721Y-78619D01*
X94665Y-78506D01*
X94552Y-78450D01*
X94384Y-78450D01*
X94271Y-78506D01*
X94215Y-78562D01*
X95452Y-79237D02*
X95340Y-79181D01*
X95284Y-79125D01*
X95227Y-79012D01*
X95227Y-78675D01*
X95284Y-78562D01*
X95340Y-78506D01*
X95452Y-78450D01*
X95621Y-78450D01*
X95733Y-78506D01*
X95790Y-78562D01*
X95846Y-78675D01*
X95846Y-79012D01*
X95790Y-79125D01*
X95733Y-79181D01*
X95621Y-79237D01*
X95452Y-79237D01*
X96521Y-79237D02*
X96408Y-79181D01*
X96352Y-79069D01*
X96352Y-78056D01*
X97421Y-79181D02*
X97308Y-79237D01*
X97083Y-79237D01*
X96971Y-79181D01*
X96915Y-79069D01*
X96915Y-78619D01*
X96971Y-78506D01*
X97083Y-78450D01*
X97308Y-78450D01*
X97421Y-78506D01*
X97477Y-78619D01*
X97477Y-78731D01*
X96915Y-78844D01*
X97927Y-79181D02*
X98039Y-79237D01*
X98264Y-79237D01*
X98377Y-79181D01*
X98433Y-79069D01*
X98433Y-79012D01*
X98377Y-78900D01*
X98264Y-78844D01*
X98096Y-78844D01*
X97983Y-78787D01*
X97927Y-78675D01*
X97927Y-78619D01*
X97983Y-78506D01*
X98096Y-78450D01*
X98264Y-78450D01*
X98377Y-78506D01*
X98827Y-79687D02*
X98883Y-79631D01*
X98996Y-79462D01*
X99052Y-79350D01*
X99108Y-79181D01*
X99164Y-78900D01*
X99164Y-78675D01*
X99108Y-78394D01*
X99052Y-78225D01*
X98996Y-78113D01*
X98883Y-77944D01*
X98827Y-77888D01*
G54D12*
X72224Y-80318D02*
G75*
G03X72224Y-80318I-150J0D01*
G74*
G01*
G54D13*
X73517Y-79615D02*
X73630Y-79615D01*
X73742Y-79672D01*
X73799Y-79728D01*
X73855Y-79840D01*
X73911Y-80065D01*
X73911Y-80347D01*
X73855Y-80571D01*
X73799Y-80684D01*
X73742Y-80740D01*
X73630Y-80796D01*
X73517Y-80796D01*
X73405Y-80740D01*
X73349Y-80684D01*
X73293Y-80571D01*
X73236Y-80347D01*
X73236Y-80065D01*
X73293Y-79840D01*
X73349Y-79728D01*
X73405Y-79672D01*
X73517Y-79615D01*
X74417Y-80684D02*
X74474Y-80740D01*
X74417Y-80796D01*
X74361Y-80740D01*
X74417Y-80684D01*
X74417Y-80796D01*
X74867Y-79615D02*
X75655Y-79615D01*
X75149Y-80796D01*
X76611Y-79615D02*
X76386Y-79615D01*
X76273Y-79672D01*
X76217Y-79728D01*
X76105Y-79897D01*
X76048Y-80122D01*
X76048Y-80571D01*
X76105Y-80684D01*
X76161Y-80740D01*
X76273Y-80796D01*
X76498Y-80796D01*
X76611Y-80740D01*
X76667Y-80684D01*
X76723Y-80571D01*
X76723Y-80290D01*
X76667Y-80178D01*
X76611Y-80122D01*
X76498Y-80065D01*
X76273Y-80065D01*
X76161Y-80122D01*
X76105Y-80178D01*
X76048Y-80290D01*
X77230Y-80796D02*
X77230Y-80009D01*
X77230Y-80122D02*
X77286Y-80065D01*
X77398Y-80009D01*
X77567Y-80009D01*
X77679Y-80065D01*
X77736Y-80178D01*
X77736Y-80796D01*
X77736Y-80178D02*
X77792Y-80065D01*
X77904Y-80009D01*
X78073Y-80009D01*
X78186Y-80065D01*
X78242Y-80178D01*
X78242Y-80796D01*
X78804Y-80796D02*
X78804Y-80009D01*
X78804Y-80122D02*
X78861Y-80065D01*
X78973Y-80009D01*
X79142Y-80009D01*
X79254Y-80065D01*
X79311Y-80178D01*
X79311Y-80796D01*
X79311Y-80178D02*
X79367Y-80065D01*
X79479Y-80009D01*
X79648Y-80009D01*
X79760Y-80065D01*
X79817Y-80178D01*
X79817Y-80796D01*
X82123Y-79559D02*
X81110Y-81078D01*
X83641Y-79615D02*
X83754Y-79615D01*
X83866Y-79672D01*
X83922Y-79728D01*
X83979Y-79840D01*
X84035Y-80065D01*
X84035Y-80347D01*
X83979Y-80571D01*
X83922Y-80684D01*
X83866Y-80740D01*
X83754Y-80796D01*
X83641Y-80796D01*
X83529Y-80740D01*
X83473Y-80684D01*
X83416Y-80571D01*
X83360Y-80347D01*
X83360Y-80065D01*
X83416Y-79840D01*
X83473Y-79728D01*
X83529Y-79672D01*
X83641Y-79615D01*
X84541Y-80684D02*
X84597Y-80740D01*
X84541Y-80796D01*
X84485Y-80740D01*
X84541Y-80684D01*
X84541Y-80796D01*
X85329Y-79615D02*
X85441Y-79615D01*
X85553Y-79672D01*
X85610Y-79728D01*
X85666Y-79840D01*
X85722Y-80065D01*
X85722Y-80347D01*
X85666Y-80571D01*
X85610Y-80684D01*
X85553Y-80740D01*
X85441Y-80796D01*
X85329Y-80796D01*
X85216Y-80740D01*
X85160Y-80684D01*
X85104Y-80571D01*
X85047Y-80347D01*
X85047Y-80065D01*
X85104Y-79840D01*
X85160Y-79728D01*
X85216Y-79672D01*
X85329Y-79615D01*
X86116Y-79615D02*
X86847Y-79615D01*
X86453Y-80065D01*
X86622Y-80065D01*
X86735Y-80122D01*
X86791Y-80178D01*
X86847Y-80290D01*
X86847Y-80571D01*
X86791Y-80684D01*
X86735Y-80740D01*
X86622Y-80796D01*
X86285Y-80796D01*
X86172Y-80740D01*
X86116Y-80684D01*
X87578Y-79615D02*
X87691Y-79615D01*
X87803Y-79672D01*
X87859Y-79728D01*
X87916Y-79840D01*
X87972Y-80065D01*
X87972Y-80347D01*
X87916Y-80571D01*
X87859Y-80684D01*
X87803Y-80740D01*
X87691Y-80796D01*
X87578Y-80796D01*
X87466Y-80740D01*
X87410Y-80684D01*
X87353Y-80571D01*
X87297Y-80347D01*
X87297Y-80065D01*
X87353Y-79840D01*
X87410Y-79728D01*
X87466Y-79672D01*
X87578Y-79615D01*
X88422Y-79615D02*
X88422Y-79840D01*
X88872Y-79615D02*
X88872Y-79840D01*
X90615Y-81246D02*
X90559Y-81190D01*
X90447Y-81021D01*
X90390Y-80909D01*
X90334Y-80740D01*
X90278Y-80459D01*
X90278Y-80234D01*
X90334Y-79953D01*
X90390Y-79784D01*
X90447Y-79672D01*
X90559Y-79503D01*
X90615Y-79447D01*
X91009Y-79728D02*
X91065Y-79672D01*
X91178Y-79615D01*
X91459Y-79615D01*
X91571Y-79672D01*
X91628Y-79728D01*
X91684Y-79840D01*
X91684Y-79953D01*
X91628Y-80122D01*
X90953Y-80796D01*
X91684Y-80796D01*
X93090Y-80796D02*
X93090Y-79615D01*
X93596Y-80796D02*
X93596Y-80178D01*
X93540Y-80065D01*
X93428Y-80009D01*
X93259Y-80009D01*
X93146Y-80065D01*
X93090Y-80122D01*
X94327Y-80796D02*
X94215Y-80740D01*
X94159Y-80684D01*
X94102Y-80571D01*
X94102Y-80234D01*
X94159Y-80122D01*
X94215Y-80065D01*
X94327Y-80009D01*
X94496Y-80009D01*
X94609Y-80065D01*
X94665Y-80122D01*
X94721Y-80234D01*
X94721Y-80571D01*
X94665Y-80684D01*
X94609Y-80740D01*
X94496Y-80796D01*
X94327Y-80796D01*
X95396Y-80796D02*
X95284Y-80740D01*
X95227Y-80628D01*
X95227Y-79615D01*
X96296Y-80740D02*
X96183Y-80796D01*
X95958Y-80796D01*
X95846Y-80740D01*
X95790Y-80628D01*
X95790Y-80178D01*
X95846Y-80065D01*
X95958Y-80009D01*
X96183Y-80009D01*
X96296Y-80065D01*
X96352Y-80178D01*
X96352Y-80290D01*
X95790Y-80403D01*
X96802Y-80740D02*
X96915Y-80796D01*
X97140Y-80796D01*
X97252Y-80740D01*
X97308Y-80628D01*
X97308Y-80571D01*
X97252Y-80459D01*
X97140Y-80403D01*
X96971Y-80403D01*
X96858Y-80347D01*
X96802Y-80234D01*
X96802Y-80178D01*
X96858Y-80065D01*
X96971Y-80009D01*
X97140Y-80009D01*
X97252Y-80065D01*
X97702Y-81246D02*
X97758Y-81190D01*
X97871Y-81021D01*
X97927Y-80909D01*
X97983Y-80740D01*
X98039Y-80459D01*
X98039Y-80234D01*
X97983Y-79953D01*
X97927Y-79784D01*
X97871Y-79672D01*
X97758Y-79503D01*
X97702Y-79447D01*
X72064Y-81717D02*
X72064Y-82037D01*
X71904Y-81877D02*
X72224Y-81877D01*
X73517Y-81174D02*
X73630Y-81174D01*
X73742Y-81231D01*
X73799Y-81287D01*
X73855Y-81399D01*
X73911Y-81624D01*
X73911Y-81906D01*
X73855Y-82131D01*
X73799Y-82243D01*
X73742Y-82299D01*
X73630Y-82356D01*
X73517Y-82356D01*
X73405Y-82299D01*
X73349Y-82243D01*
X73293Y-82131D01*
X73236Y-81906D01*
X73236Y-81624D01*
X73293Y-81399D01*
X73349Y-81287D01*
X73405Y-81231D01*
X73517Y-81174D01*
X74417Y-82243D02*
X74474Y-82299D01*
X74417Y-82356D01*
X74361Y-82299D01*
X74417Y-82243D01*
X74417Y-82356D01*
X75149Y-81681D02*
X75036Y-81624D01*
X74980Y-81568D01*
X74924Y-81456D01*
X74924Y-81399D01*
X74980Y-81287D01*
X75036Y-81231D01*
X75149Y-81174D01*
X75374Y-81174D01*
X75486Y-81231D01*
X75542Y-81287D01*
X75598Y-81399D01*
X75598Y-81456D01*
X75542Y-81568D01*
X75486Y-81624D01*
X75374Y-81681D01*
X75149Y-81681D01*
X75036Y-81737D01*
X74980Y-81793D01*
X74924Y-81906D01*
X74924Y-82131D01*
X74980Y-82243D01*
X75036Y-82299D01*
X75149Y-82356D01*
X75374Y-82356D01*
X75486Y-82299D01*
X75542Y-82243D01*
X75598Y-82131D01*
X75598Y-81906D01*
X75542Y-81793D01*
X75486Y-81737D01*
X75374Y-81681D01*
X76723Y-82356D02*
X76048Y-82356D01*
X76386Y-82356D02*
X76386Y-81174D01*
X76273Y-81343D01*
X76161Y-81456D01*
X76048Y-81512D01*
X77230Y-82356D02*
X77230Y-81568D01*
X77230Y-81681D02*
X77286Y-81624D01*
X77398Y-81568D01*
X77567Y-81568D01*
X77679Y-81624D01*
X77736Y-81737D01*
X77736Y-82356D01*
X77736Y-81737D02*
X77792Y-81624D01*
X77904Y-81568D01*
X78073Y-81568D01*
X78186Y-81624D01*
X78242Y-81737D01*
X78242Y-82356D01*
X78804Y-82356D02*
X78804Y-81568D01*
X78804Y-81681D02*
X78861Y-81624D01*
X78973Y-81568D01*
X79142Y-81568D01*
X79254Y-81624D01*
X79311Y-81737D01*
X79311Y-82356D01*
X79311Y-81737D02*
X79367Y-81624D01*
X79479Y-81568D01*
X79648Y-81568D01*
X79760Y-81624D01*
X79817Y-81737D01*
X79817Y-82356D01*
X82123Y-81118D02*
X81110Y-82637D01*
X83641Y-81174D02*
X83754Y-81174D01*
X83866Y-81231D01*
X83922Y-81287D01*
X83979Y-81399D01*
X84035Y-81624D01*
X84035Y-81906D01*
X83979Y-82131D01*
X83922Y-82243D01*
X83866Y-82299D01*
X83754Y-82356D01*
X83641Y-82356D01*
X83529Y-82299D01*
X83473Y-82243D01*
X83416Y-82131D01*
X83360Y-81906D01*
X83360Y-81624D01*
X83416Y-81399D01*
X83473Y-81287D01*
X83529Y-81231D01*
X83641Y-81174D01*
X84541Y-82243D02*
X84597Y-82299D01*
X84541Y-82356D01*
X84485Y-82299D01*
X84541Y-82243D01*
X84541Y-82356D01*
X85329Y-81174D02*
X85441Y-81174D01*
X85553Y-81231D01*
X85610Y-81287D01*
X85666Y-81399D01*
X85722Y-81624D01*
X85722Y-81906D01*
X85666Y-82131D01*
X85610Y-82243D01*
X85553Y-82299D01*
X85441Y-82356D01*
X85329Y-82356D01*
X85216Y-82299D01*
X85160Y-82243D01*
X85104Y-82131D01*
X85047Y-81906D01*
X85047Y-81624D01*
X85104Y-81399D01*
X85160Y-81287D01*
X85216Y-81231D01*
X85329Y-81174D01*
X86116Y-81174D02*
X86847Y-81174D01*
X86453Y-81624D01*
X86622Y-81624D01*
X86735Y-81681D01*
X86791Y-81737D01*
X86847Y-81849D01*
X86847Y-82131D01*
X86791Y-82243D01*
X86735Y-82299D01*
X86622Y-82356D01*
X86285Y-82356D01*
X86172Y-82299D01*
X86116Y-82243D01*
X87297Y-81287D02*
X87353Y-81231D01*
X87466Y-81174D01*
X87747Y-81174D01*
X87859Y-81231D01*
X87916Y-81287D01*
X87972Y-81399D01*
X87972Y-81512D01*
X87916Y-81681D01*
X87241Y-82356D01*
X87972Y-82356D01*
X88422Y-81174D02*
X88422Y-81399D01*
X88872Y-81174D02*
X88872Y-81399D01*
X90615Y-82805D02*
X90559Y-82749D01*
X90447Y-82580D01*
X90390Y-82468D01*
X90334Y-82299D01*
X90278Y-82018D01*
X90278Y-81793D01*
X90334Y-81512D01*
X90390Y-81343D01*
X90447Y-81231D01*
X90559Y-81062D01*
X90615Y-81006D01*
X91009Y-81287D02*
X91065Y-81231D01*
X91178Y-81174D01*
X91459Y-81174D01*
X91571Y-81231D01*
X91628Y-81287D01*
X91684Y-81399D01*
X91684Y-81512D01*
X91628Y-81681D01*
X90953Y-82356D01*
X91684Y-82356D01*
X92359Y-81681D02*
X92246Y-81624D01*
X92190Y-81568D01*
X92134Y-81456D01*
X92134Y-81399D01*
X92190Y-81287D01*
X92246Y-81231D01*
X92359Y-81174D01*
X92584Y-81174D01*
X92696Y-81231D01*
X92753Y-81287D01*
X92809Y-81399D01*
X92809Y-81456D01*
X92753Y-81568D01*
X92696Y-81624D01*
X92584Y-81681D01*
X92359Y-81681D01*
X92246Y-81737D01*
X92190Y-81793D01*
X92134Y-81906D01*
X92134Y-82131D01*
X92190Y-82243D01*
X92246Y-82299D01*
X92359Y-82356D01*
X92584Y-82356D01*
X92696Y-82299D01*
X92753Y-82243D01*
X92809Y-82131D01*
X92809Y-81906D01*
X92753Y-81793D01*
X92696Y-81737D01*
X92584Y-81681D01*
X94215Y-82356D02*
X94215Y-81174D01*
X94721Y-82356D02*
X94721Y-81737D01*
X94665Y-81624D01*
X94552Y-81568D01*
X94384Y-81568D01*
X94271Y-81624D01*
X94215Y-81681D01*
X95452Y-82356D02*
X95340Y-82299D01*
X95284Y-82243D01*
X95227Y-82131D01*
X95227Y-81793D01*
X95284Y-81681D01*
X95340Y-81624D01*
X95452Y-81568D01*
X95621Y-81568D01*
X95733Y-81624D01*
X95790Y-81681D01*
X95846Y-81793D01*
X95846Y-82131D01*
X95790Y-82243D01*
X95733Y-82299D01*
X95621Y-82356D01*
X95452Y-82356D01*
X96521Y-82356D02*
X96408Y-82299D01*
X96352Y-82187D01*
X96352Y-81174D01*
X97421Y-82299D02*
X97308Y-82356D01*
X97083Y-82356D01*
X96971Y-82299D01*
X96915Y-82187D01*
X96915Y-81737D01*
X96971Y-81624D01*
X97083Y-81568D01*
X97308Y-81568D01*
X97421Y-81624D01*
X97477Y-81737D01*
X97477Y-81849D01*
X96915Y-81962D01*
X97927Y-82299D02*
X98039Y-82356D01*
X98264Y-82356D01*
X98377Y-82299D01*
X98433Y-82187D01*
X98433Y-82131D01*
X98377Y-82018D01*
X98264Y-81962D01*
X98096Y-81962D01*
X97983Y-81906D01*
X97927Y-81793D01*
X97927Y-81737D01*
X97983Y-81624D01*
X98096Y-81568D01*
X98264Y-81568D01*
X98377Y-81624D01*
X98827Y-82805D02*
X98883Y-82749D01*
X98996Y-82580D01*
X99052Y-82468D01*
X99108Y-82299D01*
X99164Y-82018D01*
X99164Y-81793D01*
X99108Y-81512D01*
X99052Y-81343D01*
X98996Y-81231D01*
X98883Y-81062D01*
X98827Y-81006D01*
G54D12*
X72011Y-83952D02*
X72011Y-82921D01*
X70981Y-82921D01*
X70981Y-83952D01*
X72011Y-83952D01*
G54D13*
X73180Y-82733D02*
X73911Y-82733D01*
X73517Y-83183D01*
X73686Y-83183D01*
X73799Y-83240D01*
X73855Y-83296D01*
X73911Y-83408D01*
X73911Y-83690D01*
X73855Y-83802D01*
X73799Y-83858D01*
X73686Y-83915D01*
X73349Y-83915D01*
X73236Y-83858D01*
X73180Y-83802D01*
X74417Y-83802D02*
X74474Y-83858D01*
X74417Y-83915D01*
X74361Y-83858D01*
X74417Y-83802D01*
X74417Y-83915D01*
X74867Y-82733D02*
X75655Y-82733D01*
X75149Y-83915D01*
X76330Y-82733D02*
X76442Y-82733D01*
X76555Y-82790D01*
X76611Y-82846D01*
X76667Y-82958D01*
X76723Y-83183D01*
X76723Y-83465D01*
X76667Y-83690D01*
X76611Y-83802D01*
X76555Y-83858D01*
X76442Y-83915D01*
X76330Y-83915D01*
X76217Y-83858D01*
X76161Y-83802D01*
X76105Y-83690D01*
X76048Y-83465D01*
X76048Y-83183D01*
X76105Y-82958D01*
X76161Y-82846D01*
X76217Y-82790D01*
X76330Y-82733D01*
X77230Y-83915D02*
X77230Y-83127D01*
X77230Y-83240D02*
X77286Y-83183D01*
X77398Y-83127D01*
X77567Y-83127D01*
X77679Y-83183D01*
X77736Y-83296D01*
X77736Y-83915D01*
X77736Y-83296D02*
X77792Y-83183D01*
X77904Y-83127D01*
X78073Y-83127D01*
X78186Y-83183D01*
X78242Y-83296D01*
X78242Y-83915D01*
X78804Y-83915D02*
X78804Y-83127D01*
X78804Y-83240D02*
X78861Y-83183D01*
X78973Y-83127D01*
X79142Y-83127D01*
X79254Y-83183D01*
X79311Y-83296D01*
X79311Y-83915D01*
X79311Y-83296D02*
X79367Y-83183D01*
X79479Y-83127D01*
X79648Y-83127D01*
X79760Y-83183D01*
X79817Y-83296D01*
X79817Y-83915D01*
X82123Y-82677D02*
X81110Y-84196D01*
X83641Y-82733D02*
X83754Y-82733D01*
X83866Y-82790D01*
X83922Y-82846D01*
X83979Y-82958D01*
X84035Y-83183D01*
X84035Y-83465D01*
X83979Y-83690D01*
X83922Y-83802D01*
X83866Y-83858D01*
X83754Y-83915D01*
X83641Y-83915D01*
X83529Y-83858D01*
X83473Y-83802D01*
X83416Y-83690D01*
X83360Y-83465D01*
X83360Y-83183D01*
X83416Y-82958D01*
X83473Y-82846D01*
X83529Y-82790D01*
X83641Y-82733D01*
X84541Y-83802D02*
X84597Y-83858D01*
X84541Y-83915D01*
X84485Y-83858D01*
X84541Y-83802D01*
X84541Y-83915D01*
X85722Y-83915D02*
X85047Y-83915D01*
X85385Y-83915D02*
X85385Y-82733D01*
X85272Y-82902D01*
X85160Y-83015D01*
X85047Y-83071D01*
X86735Y-83127D02*
X86735Y-83915D01*
X86453Y-82677D02*
X86172Y-83521D01*
X86903Y-83521D01*
X87859Y-82733D02*
X87634Y-82733D01*
X87522Y-82790D01*
X87466Y-82846D01*
X87353Y-83015D01*
X87297Y-83240D01*
X87297Y-83690D01*
X87353Y-83802D01*
X87410Y-83858D01*
X87522Y-83915D01*
X87747Y-83915D01*
X87859Y-83858D01*
X87916Y-83802D01*
X87972Y-83690D01*
X87972Y-83408D01*
X87916Y-83296D01*
X87859Y-83240D01*
X87747Y-83183D01*
X87522Y-83183D01*
X87410Y-83240D01*
X87353Y-83296D01*
X87297Y-83408D01*
X88422Y-82733D02*
X88422Y-82958D01*
X88872Y-82733D02*
X88872Y-82958D01*
X90615Y-84365D02*
X90559Y-84308D01*
X90447Y-84140D01*
X90390Y-84027D01*
X90334Y-83858D01*
X90278Y-83577D01*
X90278Y-83352D01*
X90334Y-83071D01*
X90390Y-82902D01*
X90447Y-82790D01*
X90559Y-82621D01*
X90615Y-82565D01*
X91684Y-83915D02*
X91009Y-83915D01*
X91347Y-83915D02*
X91347Y-82733D01*
X91234Y-82902D01*
X91122Y-83015D01*
X91009Y-83071D01*
X93090Y-83915D02*
X93090Y-82733D01*
X93596Y-83915D02*
X93596Y-83296D01*
X93540Y-83183D01*
X93428Y-83127D01*
X93259Y-83127D01*
X93146Y-83183D01*
X93090Y-83240D01*
X94327Y-83915D02*
X94215Y-83858D01*
X94159Y-83802D01*
X94102Y-83690D01*
X94102Y-83352D01*
X94159Y-83240D01*
X94215Y-83183D01*
X94327Y-83127D01*
X94496Y-83127D01*
X94609Y-83183D01*
X94665Y-83240D01*
X94721Y-83352D01*
X94721Y-83690D01*
X94665Y-83802D01*
X94609Y-83858D01*
X94496Y-83915D01*
X94327Y-83915D01*
X95396Y-83915D02*
X95284Y-83858D01*
X95227Y-83746D01*
X95227Y-82733D01*
X96296Y-83858D02*
X96183Y-83915D01*
X95958Y-83915D01*
X95846Y-83858D01*
X95790Y-83746D01*
X95790Y-83296D01*
X95846Y-83183D01*
X95958Y-83127D01*
X96183Y-83127D01*
X96296Y-83183D01*
X96352Y-83296D01*
X96352Y-83408D01*
X95790Y-83521D01*
X96746Y-84365D02*
X96802Y-84308D01*
X96915Y-84140D01*
X96971Y-84027D01*
X97027Y-83858D01*
X97083Y-83577D01*
X97083Y-83352D01*
X97027Y-83071D01*
X96971Y-82902D01*
X96915Y-82790D01*
X96802Y-82621D01*
X96746Y-82565D01*
G54D12*
X71437Y-86192D02*
X72224Y-85405D01*
X71437Y-84618D01*
X70649Y-85405D01*
X71437Y-86192D01*
G54D13*
X73799Y-85096D02*
X73799Y-85883D01*
X73517Y-84646D02*
X73236Y-85489D01*
X73967Y-85489D01*
X74417Y-85771D02*
X74474Y-85827D01*
X74417Y-85883D01*
X74361Y-85827D01*
X74417Y-85771D01*
X74417Y-85883D01*
X75205Y-84702D02*
X75317Y-84702D01*
X75430Y-84758D01*
X75486Y-84814D01*
X75542Y-84927D01*
X75598Y-85152D01*
X75598Y-85433D01*
X75542Y-85658D01*
X75486Y-85771D01*
X75430Y-85827D01*
X75317Y-85883D01*
X75205Y-85883D01*
X75092Y-85827D01*
X75036Y-85771D01*
X74980Y-85658D01*
X74924Y-85433D01*
X74924Y-85152D01*
X74980Y-84927D01*
X75036Y-84814D01*
X75092Y-84758D01*
X75205Y-84702D01*
X76330Y-84702D02*
X76442Y-84702D01*
X76555Y-84758D01*
X76611Y-84814D01*
X76667Y-84927D01*
X76723Y-85152D01*
X76723Y-85433D01*
X76667Y-85658D01*
X76611Y-85771D01*
X76555Y-85827D01*
X76442Y-85883D01*
X76330Y-85883D01*
X76217Y-85827D01*
X76161Y-85771D01*
X76105Y-85658D01*
X76048Y-85433D01*
X76048Y-85152D01*
X76105Y-84927D01*
X76161Y-84814D01*
X76217Y-84758D01*
X76330Y-84702D01*
X77230Y-85883D02*
X77230Y-85096D01*
X77230Y-85208D02*
X77286Y-85152D01*
X77398Y-85096D01*
X77567Y-85096D01*
X77679Y-85152D01*
X77736Y-85264D01*
X77736Y-85883D01*
X77736Y-85264D02*
X77792Y-85152D01*
X77904Y-85096D01*
X78073Y-85096D01*
X78186Y-85152D01*
X78242Y-85264D01*
X78242Y-85883D01*
X78804Y-85883D02*
X78804Y-85096D01*
X78804Y-85208D02*
X78861Y-85152D01*
X78973Y-85096D01*
X79142Y-85096D01*
X79254Y-85152D01*
X79311Y-85264D01*
X79311Y-85883D01*
X79311Y-85264D02*
X79367Y-85152D01*
X79479Y-85096D01*
X79648Y-85096D01*
X79760Y-85152D01*
X79817Y-85264D01*
X79817Y-85883D01*
X82123Y-84646D02*
X81110Y-86164D01*
X83641Y-84702D02*
X83754Y-84702D01*
X83866Y-84758D01*
X83922Y-84814D01*
X83979Y-84927D01*
X84035Y-85152D01*
X84035Y-85433D01*
X83979Y-85658D01*
X83922Y-85771D01*
X83866Y-85827D01*
X83754Y-85883D01*
X83641Y-85883D01*
X83529Y-85827D01*
X83473Y-85771D01*
X83416Y-85658D01*
X83360Y-85433D01*
X83360Y-85152D01*
X83416Y-84927D01*
X83473Y-84814D01*
X83529Y-84758D01*
X83641Y-84702D01*
X84541Y-85771D02*
X84597Y-85827D01*
X84541Y-85883D01*
X84485Y-85827D01*
X84541Y-85771D01*
X84541Y-85883D01*
X85722Y-85883D02*
X85047Y-85883D01*
X85385Y-85883D02*
X85385Y-84702D01*
X85272Y-84871D01*
X85160Y-84983D01*
X85047Y-85039D01*
X86791Y-84702D02*
X86228Y-84702D01*
X86172Y-85264D01*
X86228Y-85208D01*
X86341Y-85152D01*
X86622Y-85152D01*
X86735Y-85208D01*
X86791Y-85264D01*
X86847Y-85377D01*
X86847Y-85658D01*
X86791Y-85771D01*
X86735Y-85827D01*
X86622Y-85883D01*
X86341Y-85883D01*
X86228Y-85827D01*
X86172Y-85771D01*
X87241Y-84702D02*
X88028Y-84702D01*
X87522Y-85883D01*
X88422Y-84702D02*
X88422Y-84927D01*
X88872Y-84702D02*
X88872Y-84927D01*
X90615Y-86333D02*
X90559Y-86277D01*
X90447Y-86108D01*
X90390Y-85996D01*
X90334Y-85827D01*
X90278Y-85546D01*
X90278Y-85321D01*
X90334Y-85039D01*
X90390Y-84871D01*
X90447Y-84758D01*
X90559Y-84589D01*
X90615Y-84533D01*
X91684Y-85883D02*
X91009Y-85883D01*
X91347Y-85883D02*
X91347Y-84702D01*
X91234Y-84871D01*
X91122Y-84983D01*
X91009Y-85039D01*
X93090Y-85883D02*
X93090Y-84702D01*
X93596Y-85883D02*
X93596Y-85264D01*
X93540Y-85152D01*
X93428Y-85096D01*
X93259Y-85096D01*
X93146Y-85152D01*
X93090Y-85208D01*
X94327Y-85883D02*
X94215Y-85827D01*
X94159Y-85771D01*
X94102Y-85658D01*
X94102Y-85321D01*
X94159Y-85208D01*
X94215Y-85152D01*
X94327Y-85096D01*
X94496Y-85096D01*
X94609Y-85152D01*
X94665Y-85208D01*
X94721Y-85321D01*
X94721Y-85658D01*
X94665Y-85771D01*
X94609Y-85827D01*
X94496Y-85883D01*
X94327Y-85883D01*
X95396Y-85883D02*
X95284Y-85827D01*
X95227Y-85714D01*
X95227Y-84702D01*
X96296Y-85827D02*
X96183Y-85883D01*
X95958Y-85883D01*
X95846Y-85827D01*
X95790Y-85714D01*
X95790Y-85264D01*
X95846Y-85152D01*
X95958Y-85096D01*
X96183Y-85096D01*
X96296Y-85152D01*
X96352Y-85264D01*
X96352Y-85377D01*
X95790Y-85489D01*
X96746Y-86333D02*
X96802Y-86277D01*
X96915Y-86108D01*
X96971Y-85996D01*
X97027Y-85827D01*
X97083Y-85546D01*
X97083Y-85321D01*
X97027Y-85039D01*
X96971Y-84871D01*
X96915Y-84758D01*
X96802Y-84589D01*
X96746Y-84533D01*
X70452Y-86606D02*
X72224Y-88377D01*
X72224Y-86606D02*
X70452Y-88377D01*
G54D12*
X72224Y-87492D02*
G75*
G03X72224Y-87492I-885J0D01*
G74*
G01*
G54D13*
X73799Y-87182D02*
X73799Y-87970D01*
X73517Y-86732D02*
X73236Y-87576D01*
X73967Y-87576D01*
X74417Y-87857D02*
X74474Y-87913D01*
X74417Y-87970D01*
X74361Y-87913D01*
X74417Y-87857D01*
X74417Y-87970D01*
X75542Y-86789D02*
X74980Y-86789D01*
X74924Y-87351D01*
X74980Y-87295D01*
X75092Y-87239D01*
X75374Y-87239D01*
X75486Y-87295D01*
X75542Y-87351D01*
X75598Y-87464D01*
X75598Y-87745D01*
X75542Y-87857D01*
X75486Y-87913D01*
X75374Y-87970D01*
X75092Y-87970D01*
X74980Y-87913D01*
X74924Y-87857D01*
X76330Y-86789D02*
X76442Y-86789D01*
X76555Y-86845D01*
X76611Y-86901D01*
X76667Y-87014D01*
X76723Y-87239D01*
X76723Y-87520D01*
X76667Y-87745D01*
X76611Y-87857D01*
X76555Y-87913D01*
X76442Y-87970D01*
X76330Y-87970D01*
X76217Y-87913D01*
X76161Y-87857D01*
X76105Y-87745D01*
X76048Y-87520D01*
X76048Y-87239D01*
X76105Y-87014D01*
X76161Y-86901D01*
X76217Y-86845D01*
X76330Y-86789D01*
X77230Y-87970D02*
X77230Y-87182D01*
X77230Y-87295D02*
X77286Y-87239D01*
X77398Y-87182D01*
X77567Y-87182D01*
X77679Y-87239D01*
X77736Y-87351D01*
X77736Y-87970D01*
X77736Y-87351D02*
X77792Y-87239D01*
X77904Y-87182D01*
X78073Y-87182D01*
X78186Y-87239D01*
X78242Y-87351D01*
X78242Y-87970D01*
X78804Y-87970D02*
X78804Y-87182D01*
X78804Y-87295D02*
X78861Y-87239D01*
X78973Y-87182D01*
X79142Y-87182D01*
X79254Y-87239D01*
X79311Y-87351D01*
X79311Y-87970D01*
X79311Y-87351D02*
X79367Y-87239D01*
X79479Y-87182D01*
X79648Y-87182D01*
X79760Y-87239D01*
X79817Y-87351D01*
X79817Y-87970D01*
X82123Y-86732D02*
X81110Y-88251D01*
X83641Y-86789D02*
X83754Y-86789D01*
X83866Y-86845D01*
X83922Y-86901D01*
X83979Y-87014D01*
X84035Y-87239D01*
X84035Y-87520D01*
X83979Y-87745D01*
X83922Y-87857D01*
X83866Y-87913D01*
X83754Y-87970D01*
X83641Y-87970D01*
X83529Y-87913D01*
X83473Y-87857D01*
X83416Y-87745D01*
X83360Y-87520D01*
X83360Y-87239D01*
X83416Y-87014D01*
X83473Y-86901D01*
X83529Y-86845D01*
X83641Y-86789D01*
X84541Y-87857D02*
X84597Y-87913D01*
X84541Y-87970D01*
X84485Y-87913D01*
X84541Y-87857D01*
X84541Y-87970D01*
X85722Y-87970D02*
X85047Y-87970D01*
X85385Y-87970D02*
X85385Y-86789D01*
X85272Y-86957D01*
X85160Y-87070D01*
X85047Y-87126D01*
X86116Y-86789D02*
X86903Y-86789D01*
X86397Y-87970D01*
X87241Y-86789D02*
X88028Y-86789D01*
X87522Y-87970D01*
X88422Y-86789D02*
X88422Y-87014D01*
X88872Y-86789D02*
X88872Y-87014D01*
X90615Y-88420D02*
X90559Y-88363D01*
X90447Y-88195D01*
X90390Y-88082D01*
X90334Y-87913D01*
X90278Y-87632D01*
X90278Y-87407D01*
X90334Y-87126D01*
X90390Y-86957D01*
X90447Y-86845D01*
X90559Y-86676D01*
X90615Y-86620D01*
X91684Y-87970D02*
X91009Y-87970D01*
X91347Y-87970D02*
X91347Y-86789D01*
X91234Y-86957D01*
X91122Y-87070D01*
X91009Y-87126D01*
X93090Y-87970D02*
X93090Y-86789D01*
X93596Y-87970D02*
X93596Y-87351D01*
X93540Y-87239D01*
X93428Y-87182D01*
X93259Y-87182D01*
X93146Y-87239D01*
X93090Y-87295D01*
X94327Y-87970D02*
X94215Y-87913D01*
X94159Y-87857D01*
X94102Y-87745D01*
X94102Y-87407D01*
X94159Y-87295D01*
X94215Y-87239D01*
X94327Y-87182D01*
X94496Y-87182D01*
X94609Y-87239D01*
X94665Y-87295D01*
X94721Y-87407D01*
X94721Y-87745D01*
X94665Y-87857D01*
X94609Y-87913D01*
X94496Y-87970D01*
X94327Y-87970D01*
X95396Y-87970D02*
X95284Y-87913D01*
X95227Y-87801D01*
X95227Y-86789D01*
X96296Y-87913D02*
X96183Y-87970D01*
X95958Y-87970D01*
X95846Y-87913D01*
X95790Y-87801D01*
X95790Y-87351D01*
X95846Y-87239D01*
X95958Y-87182D01*
X96183Y-87182D01*
X96296Y-87239D01*
X96352Y-87351D01*
X96352Y-87464D01*
X95790Y-87576D01*
X96746Y-88420D02*
X96802Y-88363D01*
X96915Y-88195D01*
X96971Y-88082D01*
X97027Y-87913D01*
X97083Y-87632D01*
X97083Y-87407D01*
X97027Y-87126D01*
X96971Y-86957D01*
X96915Y-86845D01*
X96802Y-86676D01*
X96746Y-86620D01*
M02*
