M48
INCH,TZ
T1C0.025
T2C0.030
T3C0.032
T4C0.146
T5C0.157
T6C0.177
%
G90
G05
T1
X73500Y-57700
X74350Y-68400
X74600Y-62350
X75150Y-70450
X75250Y-67700
X75400Y-59950
X75500Y-65850
X76150Y-73400
X76500Y-64150
X78550Y-57700
X78950Y-65350
X79000Y-69550
X79050Y-66500
X81600Y-73100
X81650Y-71000
X82450Y-67000
X82950Y-60800
X84300Y-60700
X85550Y-66150
X86000Y-61150
X86950Y-70250
X87000Y-60350
X87800Y-61000
X88650Y-66850
X88800Y-59650
T2
X84500Y-69250
X84500Y-71250
T3
X72900Y-69450
X72900Y-70450
X72950Y-67350
X73200Y-63400
X73200Y-64400
X73350Y-71900
X73550Y-59100
X73550Y-60100
X73950Y-67350
X74350Y-71900
X77100Y-74350
X78100Y-74350
X79100Y-74350
X80100Y-74350
X81100Y-74350
X82450Y-72400
X82450Y-73400
X82450Y-74400
X85250Y-58650
X85250Y-62650
X86750Y-56200
X87750Y-56200
X88750Y-58650
X88750Y-62650
X89550Y-56150
X89550Y-57150
X89600Y-70650
X89600Y-71650
T4
X82000Y-64750
T5
X89350Y-73350
T6
X74450Y-73700
T0
M30
