G04 (created by PCBNEW (2013-07-07 BZR 4022)-stable) date 24/06/2015 00:02:37*
%MOIN*%
G04 Gerber Fmt 3.4, Leading zero omitted, Abs format*
%FSLAX34Y34*%
G01*
G70*
G90*
G04 APERTURE LIST*
%ADD10C,0.00590551*%
%ADD11C,0.011811*%
%ADD12C,0.00885827*%
%ADD13C,0.00787402*%
%ADD14C,0.0031*%
%ADD15C,0.005*%
%ADD16C,0.0039*%
%ADD17C,0.012*%
%ADD18C,0.0125*%
%ADD19C,0.015*%
%ADD20C,0.0047*%
%ADD21C,0.0043*%
%ADD22C,0.0107*%
%ADD23C,0.01*%
%ADD24C,0.0106*%
%ADD25C,0.0024*%
G04 APERTURE END LIST*
G54D10*
G54D11*
X77839Y-62839D02*
X77839Y-62248D01*
X78176Y-62839D02*
X77923Y-62501D01*
X78176Y-62248D02*
X77839Y-62585D01*
X78514Y-62839D02*
X78457Y-62810D01*
X78429Y-62782D01*
X78401Y-62726D01*
X78401Y-62557D01*
X78429Y-62501D01*
X78457Y-62473D01*
X78514Y-62445D01*
X78598Y-62445D01*
X78654Y-62473D01*
X78682Y-62501D01*
X78710Y-62557D01*
X78710Y-62726D01*
X78682Y-62782D01*
X78654Y-62810D01*
X78598Y-62839D01*
X78514Y-62839D01*
X78964Y-62839D02*
X78964Y-62445D01*
X78964Y-62557D02*
X78992Y-62501D01*
X79020Y-62473D01*
X79076Y-62445D01*
X79132Y-62445D01*
X79301Y-62810D02*
X79357Y-62839D01*
X79470Y-62839D01*
X79526Y-62810D01*
X79554Y-62754D01*
X79554Y-62726D01*
X79526Y-62670D01*
X79470Y-62642D01*
X79385Y-62642D01*
X79329Y-62614D01*
X79301Y-62557D01*
X79301Y-62529D01*
X79329Y-62473D01*
X79385Y-62445D01*
X79470Y-62445D01*
X79526Y-62473D01*
X79892Y-62839D02*
X79835Y-62810D01*
X79807Y-62782D01*
X79779Y-62726D01*
X79779Y-62557D01*
X79807Y-62501D01*
X79835Y-62473D01*
X79892Y-62445D01*
X79976Y-62445D01*
X80032Y-62473D01*
X80060Y-62501D01*
X80088Y-62557D01*
X80088Y-62726D01*
X80060Y-62782D01*
X80032Y-62810D01*
X79976Y-62839D01*
X79892Y-62839D01*
X77650Y-60539D02*
X77650Y-59948D01*
X77987Y-60539D02*
X77734Y-60201D01*
X77987Y-59948D02*
X77650Y-60285D01*
X78353Y-59948D02*
X78465Y-59948D01*
X78521Y-59976D01*
X78578Y-60032D01*
X78606Y-60145D01*
X78606Y-60342D01*
X78578Y-60454D01*
X78521Y-60510D01*
X78465Y-60539D01*
X78353Y-60539D01*
X78296Y-60510D01*
X78240Y-60454D01*
X78212Y-60342D01*
X78212Y-60145D01*
X78240Y-60032D01*
X78296Y-59976D01*
X78353Y-59948D01*
X79196Y-60539D02*
X79000Y-60257D01*
X78859Y-60539D02*
X78859Y-59948D01*
X79084Y-59948D01*
X79140Y-59976D01*
X79168Y-60004D01*
X79196Y-60060D01*
X79196Y-60145D01*
X79168Y-60201D01*
X79140Y-60229D01*
X79084Y-60257D01*
X78859Y-60257D01*
X79421Y-60510D02*
X79506Y-60539D01*
X79646Y-60539D01*
X79703Y-60510D01*
X79731Y-60482D01*
X79759Y-60426D01*
X79759Y-60370D01*
X79731Y-60314D01*
X79703Y-60285D01*
X79646Y-60257D01*
X79534Y-60229D01*
X79478Y-60201D01*
X79449Y-60173D01*
X79421Y-60117D01*
X79421Y-60060D01*
X79449Y-60004D01*
X79478Y-59976D01*
X79534Y-59948D01*
X79674Y-59948D01*
X79759Y-59976D01*
X80124Y-59948D02*
X80237Y-59948D01*
X80293Y-59976D01*
X80349Y-60032D01*
X80377Y-60145D01*
X80377Y-60342D01*
X80349Y-60454D01*
X80293Y-60510D01*
X80237Y-60539D01*
X80124Y-60539D01*
X80068Y-60510D01*
X80012Y-60454D01*
X79984Y-60342D01*
X79984Y-60145D01*
X80012Y-60032D01*
X80068Y-59976D01*
X80124Y-59948D01*
X77839Y-56939D02*
X77839Y-56348D01*
X78176Y-56939D02*
X77923Y-56601D01*
X78176Y-56348D02*
X77839Y-56685D01*
X78514Y-56939D02*
X78457Y-56910D01*
X78429Y-56882D01*
X78401Y-56826D01*
X78401Y-56657D01*
X78429Y-56601D01*
X78457Y-56573D01*
X78514Y-56545D01*
X78598Y-56545D01*
X78654Y-56573D01*
X78682Y-56601D01*
X78710Y-56657D01*
X78710Y-56826D01*
X78682Y-56882D01*
X78654Y-56910D01*
X78598Y-56939D01*
X78514Y-56939D01*
X78964Y-56939D02*
X78964Y-56545D01*
X78964Y-56657D02*
X78992Y-56601D01*
X79020Y-56573D01*
X79076Y-56545D01*
X79132Y-56545D01*
X79301Y-56910D02*
X79357Y-56939D01*
X79470Y-56939D01*
X79526Y-56910D01*
X79554Y-56854D01*
X79554Y-56826D01*
X79526Y-56770D01*
X79470Y-56742D01*
X79385Y-56742D01*
X79329Y-56714D01*
X79301Y-56657D01*
X79301Y-56629D01*
X79329Y-56573D01*
X79385Y-56545D01*
X79470Y-56545D01*
X79526Y-56573D01*
X79892Y-56939D02*
X79835Y-56910D01*
X79807Y-56882D01*
X79779Y-56826D01*
X79779Y-56657D01*
X79807Y-56601D01*
X79835Y-56573D01*
X79892Y-56545D01*
X79976Y-56545D01*
X80032Y-56573D01*
X80060Y-56601D01*
X80088Y-56657D01*
X80088Y-56826D01*
X80060Y-56882D01*
X80032Y-56910D01*
X79976Y-56939D01*
X79892Y-56939D01*
G54D12*
X85314Y-74457D02*
X85381Y-74693D01*
X85449Y-74524D01*
X85516Y-74693D01*
X85584Y-74457D01*
X85685Y-74457D02*
X85753Y-74693D01*
X85820Y-74524D01*
X85888Y-74693D01*
X85955Y-74457D01*
X86056Y-74457D02*
X86124Y-74693D01*
X86191Y-74524D01*
X86259Y-74693D01*
X86326Y-74457D01*
X86461Y-74659D02*
X86478Y-74676D01*
X86461Y-74693D01*
X86444Y-74676D01*
X86461Y-74659D01*
X86461Y-74693D01*
X86630Y-74693D02*
X86630Y-74339D01*
X86664Y-74558D02*
X86765Y-74693D01*
X86765Y-74457D02*
X86630Y-74592D01*
X87069Y-74693D02*
X87069Y-74507D01*
X87052Y-74474D01*
X87018Y-74457D01*
X86951Y-74457D01*
X86917Y-74474D01*
X87069Y-74676D02*
X87035Y-74693D01*
X86951Y-74693D01*
X86917Y-74676D01*
X86900Y-74642D01*
X86900Y-74609D01*
X86917Y-74575D01*
X86951Y-74558D01*
X87035Y-74558D01*
X87069Y-74541D01*
X87237Y-74693D02*
X87237Y-74457D01*
X87237Y-74524D02*
X87254Y-74490D01*
X87271Y-74474D01*
X87305Y-74457D01*
X87339Y-74457D01*
X87457Y-74693D02*
X87457Y-74457D01*
X87457Y-74524D02*
X87474Y-74490D01*
X87490Y-74474D01*
X87524Y-74457D01*
X87558Y-74457D01*
X87676Y-74693D02*
X87676Y-74457D01*
X87676Y-74339D02*
X87659Y-74355D01*
X87676Y-74372D01*
X87693Y-74355D01*
X87676Y-74339D01*
X87676Y-74372D01*
X87845Y-74693D02*
X87845Y-74339D01*
X87879Y-74558D02*
X87980Y-74693D01*
X87980Y-74457D02*
X87845Y-74592D01*
X88132Y-74693D02*
X88132Y-74457D01*
X88132Y-74339D02*
X88115Y-74355D01*
X88132Y-74372D01*
X88148Y-74355D01*
X88132Y-74339D01*
X88132Y-74372D01*
X88267Y-74457D02*
X88351Y-74693D01*
X88435Y-74457D01*
X88705Y-74676D02*
X88672Y-74693D01*
X88604Y-74693D01*
X88570Y-74676D01*
X88553Y-74642D01*
X88553Y-74507D01*
X88570Y-74474D01*
X88604Y-74457D01*
X88672Y-74457D01*
X88705Y-74474D01*
X88722Y-74507D01*
X88722Y-74541D01*
X88553Y-74575D01*
X88925Y-74693D02*
X88891Y-74676D01*
X88874Y-74642D01*
X88874Y-74339D01*
X89211Y-74693D02*
X89211Y-74507D01*
X89195Y-74474D01*
X89161Y-74457D01*
X89093Y-74457D01*
X89060Y-74474D01*
X89211Y-74676D02*
X89178Y-74693D01*
X89093Y-74693D01*
X89060Y-74676D01*
X89043Y-74642D01*
X89043Y-74609D01*
X89060Y-74575D01*
X89093Y-74558D01*
X89178Y-74558D01*
X89211Y-74541D01*
X89380Y-74659D02*
X89397Y-74676D01*
X89380Y-74693D01*
X89363Y-74676D01*
X89380Y-74659D01*
X89380Y-74693D01*
X89498Y-74457D02*
X89633Y-74457D01*
X89549Y-74693D02*
X89549Y-74389D01*
X89566Y-74355D01*
X89600Y-74339D01*
X89633Y-74339D01*
X89751Y-74693D02*
X89751Y-74457D01*
X89751Y-74339D02*
X89735Y-74355D01*
X89751Y-74372D01*
X89768Y-74355D01*
X89751Y-74339D01*
X89751Y-74372D01*
G54D13*
X84059Y-59762D02*
X84059Y-59987D01*
X84059Y-59874D02*
X83665Y-59874D01*
X83721Y-59912D01*
X83759Y-59949D01*
X83778Y-59987D01*
X84021Y-59593D02*
X84040Y-59574D01*
X84059Y-59593D01*
X84040Y-59612D01*
X84021Y-59593D01*
X84059Y-59593D01*
X83665Y-59218D02*
X83665Y-59406D01*
X83853Y-59424D01*
X83834Y-59406D01*
X83815Y-59368D01*
X83815Y-59274D01*
X83834Y-59237D01*
X83853Y-59218D01*
X83890Y-59199D01*
X83984Y-59199D01*
X84021Y-59218D01*
X84040Y-59237D01*
X84059Y-59274D01*
X84059Y-59368D01*
X84040Y-59406D01*
X84021Y-59424D01*
X83665Y-59087D02*
X84059Y-58956D01*
X83665Y-58824D01*
X83909Y-58693D02*
X83909Y-58393D01*
X83796Y-58206D02*
X83909Y-57906D01*
X84021Y-58206D01*
X83665Y-57756D02*
X83665Y-57512D01*
X83815Y-57643D01*
X83815Y-57587D01*
X83834Y-57550D01*
X83853Y-57531D01*
X83890Y-57512D01*
X83984Y-57512D01*
X84021Y-57531D01*
X84040Y-57550D01*
X84059Y-57587D01*
X84059Y-57700D01*
X84040Y-57737D01*
X84021Y-57756D01*
X84021Y-57343D02*
X84040Y-57325D01*
X84059Y-57343D01*
X84040Y-57362D01*
X84021Y-57343D01*
X84059Y-57343D01*
X83665Y-57193D02*
X83665Y-56950D01*
X83815Y-57081D01*
X83815Y-57025D01*
X83834Y-56987D01*
X83853Y-56968D01*
X83890Y-56950D01*
X83984Y-56950D01*
X84021Y-56968D01*
X84040Y-56987D01*
X84059Y-57025D01*
X84059Y-57137D01*
X84040Y-57175D01*
X84021Y-57193D01*
X83665Y-56837D02*
X84059Y-56706D01*
X83665Y-56575D01*
X84689Y-59303D02*
X84295Y-59303D01*
X84445Y-59303D02*
X84426Y-59265D01*
X84426Y-59190D01*
X84445Y-59153D01*
X84464Y-59134D01*
X84501Y-59115D01*
X84614Y-59115D01*
X84651Y-59134D01*
X84670Y-59153D01*
X84689Y-59190D01*
X84689Y-59265D01*
X84670Y-59303D01*
X84689Y-58890D02*
X84670Y-58928D01*
X84651Y-58946D01*
X84614Y-58965D01*
X84501Y-58965D01*
X84464Y-58946D01*
X84445Y-58928D01*
X84426Y-58890D01*
X84426Y-58834D01*
X84445Y-58796D01*
X84464Y-58778D01*
X84501Y-58759D01*
X84614Y-58759D01*
X84651Y-58778D01*
X84670Y-58796D01*
X84689Y-58834D01*
X84689Y-58890D01*
X84689Y-58534D02*
X84670Y-58571D01*
X84651Y-58590D01*
X84614Y-58609D01*
X84501Y-58609D01*
X84464Y-58590D01*
X84445Y-58571D01*
X84426Y-58534D01*
X84426Y-58478D01*
X84445Y-58440D01*
X84464Y-58421D01*
X84501Y-58403D01*
X84614Y-58403D01*
X84651Y-58421D01*
X84670Y-58440D01*
X84689Y-58478D01*
X84689Y-58534D01*
X84670Y-58253D02*
X84689Y-58215D01*
X84689Y-58140D01*
X84670Y-58103D01*
X84633Y-58084D01*
X84614Y-58084D01*
X84576Y-58103D01*
X84558Y-58140D01*
X84558Y-58196D01*
X84539Y-58234D01*
X84501Y-58253D01*
X84483Y-58253D01*
X84445Y-58234D01*
X84426Y-58196D01*
X84426Y-58140D01*
X84445Y-58103D01*
X84426Y-57971D02*
X84426Y-57821D01*
X84295Y-57915D02*
X84633Y-57915D01*
X84670Y-57896D01*
X84689Y-57859D01*
X84689Y-57821D01*
X84670Y-57540D02*
X84689Y-57578D01*
X84689Y-57653D01*
X84670Y-57690D01*
X84633Y-57709D01*
X84483Y-57709D01*
X84445Y-57690D01*
X84426Y-57653D01*
X84426Y-57578D01*
X84445Y-57540D01*
X84483Y-57521D01*
X84520Y-57521D01*
X84558Y-57709D01*
X84689Y-57353D02*
X84426Y-57353D01*
X84501Y-57353D02*
X84464Y-57334D01*
X84445Y-57315D01*
X84426Y-57278D01*
X84426Y-57240D01*
X75492Y-71243D02*
X75492Y-70889D01*
X75694Y-71243D02*
X75543Y-71040D01*
X75694Y-70889D02*
X75492Y-71091D01*
X75998Y-71243D02*
X75998Y-71057D01*
X75981Y-71024D01*
X75948Y-71007D01*
X75880Y-71007D01*
X75846Y-71024D01*
X75998Y-71226D02*
X75964Y-71243D01*
X75880Y-71243D01*
X75846Y-71226D01*
X75829Y-71192D01*
X75829Y-71159D01*
X75846Y-71125D01*
X75880Y-71108D01*
X75964Y-71108D01*
X75998Y-71091D01*
X76167Y-71243D02*
X76167Y-71007D01*
X76167Y-71074D02*
X76184Y-71040D01*
X76201Y-71024D01*
X76234Y-71007D01*
X76268Y-71007D01*
X76386Y-71243D02*
X76386Y-71007D01*
X76386Y-71074D02*
X76403Y-71040D01*
X76420Y-71024D01*
X76454Y-71007D01*
X76488Y-71007D01*
X76606Y-71243D02*
X76606Y-71007D01*
X76606Y-70889D02*
X76589Y-70905D01*
X76606Y-70922D01*
X76623Y-70905D01*
X76606Y-70889D01*
X76606Y-70922D01*
X77044Y-71243D02*
X77044Y-70889D01*
X77247Y-71243D02*
X77095Y-71040D01*
X77247Y-70889D02*
X77044Y-71091D01*
X77399Y-71243D02*
X77399Y-71007D01*
X77399Y-70889D02*
X77382Y-70905D01*
X77399Y-70922D01*
X77416Y-70905D01*
X77399Y-70889D01*
X77399Y-70922D01*
X77534Y-71007D02*
X77618Y-71243D01*
X77702Y-71007D01*
X77972Y-71226D02*
X77939Y-71243D01*
X77871Y-71243D01*
X77837Y-71226D01*
X77820Y-71192D01*
X77820Y-71057D01*
X77837Y-71024D01*
X77871Y-71007D01*
X77939Y-71007D01*
X77972Y-71024D01*
X77989Y-71057D01*
X77989Y-71091D01*
X77820Y-71125D01*
X78192Y-71243D02*
X78158Y-71226D01*
X78141Y-71192D01*
X78141Y-70889D01*
X78479Y-71243D02*
X78479Y-71057D01*
X78462Y-71024D01*
X78428Y-71007D01*
X78360Y-71007D01*
X78327Y-71024D01*
X78479Y-71226D02*
X78445Y-71243D01*
X78360Y-71243D01*
X78327Y-71226D01*
X78310Y-71192D01*
X78310Y-71159D01*
X78327Y-71125D01*
X78360Y-71108D01*
X78445Y-71108D01*
X78479Y-71091D01*
X78327Y-70889D02*
X78344Y-70905D01*
X78327Y-70922D01*
X78310Y-70905D01*
X78327Y-70889D01*
X78327Y-70922D01*
X78462Y-70889D02*
X78479Y-70905D01*
X78462Y-70922D01*
X78445Y-70905D01*
X78462Y-70889D01*
X78462Y-70922D01*
X79069Y-70889D02*
X79002Y-70889D01*
X78968Y-70905D01*
X78951Y-70922D01*
X78917Y-70973D01*
X78900Y-71040D01*
X78900Y-71175D01*
X78917Y-71209D01*
X78934Y-71226D01*
X78968Y-71243D01*
X79035Y-71243D01*
X79069Y-71226D01*
X79086Y-71209D01*
X79103Y-71175D01*
X79103Y-71091D01*
X79086Y-71057D01*
X79069Y-71040D01*
X79035Y-71024D01*
X78968Y-71024D01*
X78934Y-71040D01*
X78917Y-71057D01*
X78900Y-71091D01*
X79508Y-70872D02*
X79204Y-71327D01*
X79609Y-70922D02*
X79626Y-70905D01*
X79660Y-70889D01*
X79744Y-70889D01*
X79778Y-70905D01*
X79795Y-70922D01*
X79811Y-70956D01*
X79811Y-70990D01*
X79795Y-71040D01*
X79592Y-71243D01*
X79811Y-71243D01*
X80031Y-70889D02*
X80065Y-70889D01*
X80098Y-70905D01*
X80115Y-70922D01*
X80132Y-70956D01*
X80149Y-71024D01*
X80149Y-71108D01*
X80132Y-71175D01*
X80115Y-71209D01*
X80098Y-71226D01*
X80065Y-71243D01*
X80031Y-71243D01*
X79997Y-71226D01*
X79980Y-71209D01*
X79963Y-71175D01*
X79946Y-71108D01*
X79946Y-71024D01*
X79963Y-70956D01*
X79980Y-70922D01*
X79997Y-70905D01*
X80031Y-70889D01*
X80486Y-71243D02*
X80284Y-71243D01*
X80385Y-71243D02*
X80385Y-70889D01*
X80351Y-70939D01*
X80318Y-70973D01*
X80284Y-70990D01*
X80807Y-70889D02*
X80638Y-70889D01*
X80621Y-71057D01*
X80638Y-71040D01*
X80672Y-71024D01*
X80756Y-71024D01*
X80790Y-71040D01*
X80807Y-71057D01*
X80824Y-71091D01*
X80824Y-71175D01*
X80807Y-71209D01*
X80790Y-71226D01*
X80756Y-71243D01*
X80672Y-71243D01*
X80638Y-71226D01*
X80621Y-71209D01*
X75914Y-71582D02*
X75981Y-71818D01*
X76049Y-71649D01*
X76116Y-71818D01*
X76184Y-71582D01*
X76285Y-71582D02*
X76353Y-71818D01*
X76420Y-71649D01*
X76488Y-71818D01*
X76555Y-71582D01*
X76656Y-71582D02*
X76724Y-71818D01*
X76791Y-71649D01*
X76859Y-71818D01*
X76926Y-71582D01*
X77061Y-71784D02*
X77078Y-71801D01*
X77061Y-71818D01*
X77044Y-71801D01*
X77061Y-71784D01*
X77061Y-71818D01*
X77230Y-71818D02*
X77230Y-71463D01*
X77264Y-71683D02*
X77365Y-71818D01*
X77365Y-71582D02*
X77230Y-71716D01*
X77669Y-71818D02*
X77669Y-71632D01*
X77652Y-71598D01*
X77618Y-71582D01*
X77551Y-71582D01*
X77517Y-71598D01*
X77669Y-71801D02*
X77635Y-71818D01*
X77551Y-71818D01*
X77517Y-71801D01*
X77500Y-71767D01*
X77500Y-71733D01*
X77517Y-71700D01*
X77551Y-71683D01*
X77635Y-71683D01*
X77669Y-71666D01*
X77837Y-71818D02*
X77837Y-71582D01*
X77837Y-71649D02*
X77854Y-71615D01*
X77871Y-71598D01*
X77905Y-71582D01*
X77939Y-71582D01*
X78057Y-71818D02*
X78057Y-71582D01*
X78057Y-71649D02*
X78074Y-71615D01*
X78090Y-71598D01*
X78124Y-71582D01*
X78158Y-71582D01*
X78276Y-71818D02*
X78276Y-71582D01*
X78276Y-71463D02*
X78259Y-71480D01*
X78276Y-71497D01*
X78293Y-71480D01*
X78276Y-71463D01*
X78276Y-71497D01*
X78445Y-71818D02*
X78445Y-71463D01*
X78479Y-71683D02*
X78580Y-71818D01*
X78580Y-71582D02*
X78445Y-71716D01*
X78732Y-71818D02*
X78732Y-71582D01*
X78732Y-71463D02*
X78715Y-71480D01*
X78732Y-71497D01*
X78748Y-71480D01*
X78732Y-71463D01*
X78732Y-71497D01*
X78867Y-71582D02*
X78951Y-71818D01*
X79035Y-71582D01*
X79305Y-71801D02*
X79272Y-71818D01*
X79204Y-71818D01*
X79170Y-71801D01*
X79153Y-71767D01*
X79153Y-71632D01*
X79170Y-71598D01*
X79204Y-71582D01*
X79272Y-71582D01*
X79305Y-71598D01*
X79322Y-71632D01*
X79322Y-71666D01*
X79153Y-71700D01*
X79525Y-71818D02*
X79491Y-71801D01*
X79474Y-71767D01*
X79474Y-71463D01*
X79811Y-71818D02*
X79811Y-71632D01*
X79795Y-71598D01*
X79761Y-71582D01*
X79693Y-71582D01*
X79660Y-71598D01*
X79811Y-71801D02*
X79778Y-71818D01*
X79693Y-71818D01*
X79660Y-71801D01*
X79643Y-71767D01*
X79643Y-71733D01*
X79660Y-71700D01*
X79693Y-71683D01*
X79778Y-71683D01*
X79811Y-71666D01*
X79980Y-71784D02*
X79997Y-71801D01*
X79980Y-71818D01*
X79963Y-71801D01*
X79980Y-71784D01*
X79980Y-71818D01*
X80098Y-71582D02*
X80233Y-71582D01*
X80149Y-71818D02*
X80149Y-71514D01*
X80166Y-71480D01*
X80200Y-71463D01*
X80233Y-71463D01*
X80351Y-71818D02*
X80351Y-71582D01*
X80351Y-71463D02*
X80335Y-71480D01*
X80351Y-71497D01*
X80368Y-71480D01*
X80351Y-71463D01*
X80351Y-71497D01*
X76300Y-64162D02*
X76345Y-64177D01*
X76360Y-64192D01*
X76375Y-64222D01*
X76375Y-64267D01*
X76360Y-64297D01*
X76345Y-64312D01*
X76315Y-64327D01*
X76195Y-64327D01*
X76195Y-64012D01*
X76300Y-64012D01*
X76330Y-64027D01*
X76345Y-64042D01*
X76360Y-64072D01*
X76360Y-64102D01*
X76345Y-64132D01*
X76330Y-64147D01*
X76300Y-64162D01*
X76195Y-64162D01*
X76555Y-64327D02*
X76525Y-64312D01*
X76510Y-64282D01*
X76510Y-64012D01*
X76810Y-64117D02*
X76810Y-64327D01*
X76675Y-64117D02*
X76675Y-64282D01*
X76690Y-64312D01*
X76720Y-64327D01*
X76765Y-64327D01*
X76795Y-64312D01*
X76810Y-64297D01*
X77080Y-64312D02*
X77050Y-64327D01*
X76990Y-64327D01*
X76960Y-64312D01*
X76945Y-64282D01*
X76945Y-64162D01*
X76960Y-64132D01*
X76990Y-64117D01*
X77050Y-64117D01*
X77080Y-64132D01*
X77095Y-64162D01*
X77095Y-64192D01*
X76945Y-64222D01*
X77185Y-64117D02*
X77305Y-64117D01*
X77230Y-64012D02*
X77230Y-64282D01*
X77245Y-64312D01*
X77275Y-64327D01*
X77305Y-64327D01*
X77455Y-64327D02*
X77425Y-64312D01*
X77410Y-64297D01*
X77395Y-64267D01*
X77395Y-64177D01*
X77410Y-64147D01*
X77425Y-64132D01*
X77455Y-64117D01*
X77500Y-64117D01*
X77530Y-64132D01*
X77545Y-64147D01*
X77560Y-64177D01*
X77560Y-64267D01*
X77545Y-64297D01*
X77530Y-64312D01*
X77500Y-64327D01*
X77455Y-64327D01*
X77740Y-64327D02*
X77710Y-64312D01*
X77695Y-64297D01*
X77680Y-64267D01*
X77680Y-64177D01*
X77695Y-64147D01*
X77710Y-64132D01*
X77740Y-64117D01*
X77785Y-64117D01*
X77815Y-64132D01*
X77830Y-64147D01*
X77845Y-64177D01*
X77845Y-64267D01*
X77830Y-64297D01*
X77815Y-64312D01*
X77785Y-64327D01*
X77740Y-64327D01*
X77935Y-64117D02*
X78055Y-64117D01*
X77980Y-64012D02*
X77980Y-64282D01*
X77995Y-64312D01*
X78025Y-64327D01*
X78055Y-64327D01*
X78160Y-64327D02*
X78160Y-64012D01*
X78294Y-64327D02*
X78294Y-64162D01*
X78279Y-64132D01*
X78250Y-64117D01*
X78205Y-64117D01*
X78175Y-64132D01*
X78160Y-64147D01*
X78444Y-64207D02*
X78684Y-64207D01*
X78834Y-64327D02*
X78834Y-64117D01*
X78834Y-64177D02*
X78849Y-64147D01*
X78864Y-64132D01*
X78894Y-64117D01*
X78924Y-64117D01*
X79149Y-64312D02*
X79119Y-64327D01*
X79059Y-64327D01*
X79029Y-64312D01*
X79014Y-64282D01*
X79014Y-64162D01*
X79029Y-64132D01*
X79059Y-64117D01*
X79119Y-64117D01*
X79149Y-64132D01*
X79164Y-64162D01*
X79164Y-64192D01*
X79014Y-64222D01*
X79299Y-64327D02*
X79299Y-64117D01*
X79299Y-64147D02*
X79314Y-64132D01*
X79344Y-64117D01*
X79389Y-64117D01*
X79419Y-64132D01*
X79434Y-64162D01*
X79434Y-64327D01*
X79434Y-64162D02*
X79449Y-64132D01*
X79479Y-64117D01*
X79524Y-64117D01*
X79554Y-64132D01*
X79569Y-64162D01*
X79569Y-64327D01*
X79764Y-64327D02*
X79734Y-64312D01*
X79719Y-64297D01*
X79704Y-64267D01*
X79704Y-64177D01*
X79719Y-64147D01*
X79734Y-64132D01*
X79764Y-64117D01*
X79809Y-64117D01*
X79839Y-64132D01*
X79854Y-64147D01*
X79869Y-64177D01*
X79869Y-64267D01*
X79854Y-64297D01*
X79839Y-64312D01*
X79809Y-64327D01*
X79764Y-64327D01*
X79959Y-64117D02*
X80079Y-64117D01*
X80004Y-64012D02*
X80004Y-64282D01*
X80019Y-64312D01*
X80049Y-64327D01*
X80079Y-64327D01*
X80304Y-64312D02*
X80274Y-64327D01*
X80214Y-64327D01*
X80184Y-64312D01*
X80169Y-64282D01*
X80169Y-64162D01*
X80184Y-64132D01*
X80214Y-64117D01*
X80274Y-64117D01*
X80304Y-64132D01*
X80319Y-64162D01*
X80319Y-64192D01*
X80169Y-64222D01*
X76262Y-64637D02*
X76322Y-64847D01*
X76382Y-64697D01*
X76442Y-64847D01*
X76502Y-64637D01*
X76592Y-64637D02*
X76652Y-64847D01*
X76712Y-64697D01*
X76772Y-64847D01*
X76832Y-64637D01*
X76922Y-64637D02*
X76982Y-64847D01*
X77042Y-64697D01*
X77102Y-64847D01*
X77162Y-64637D01*
X77282Y-64817D02*
X77297Y-64832D01*
X77282Y-64847D01*
X77267Y-64832D01*
X77282Y-64817D01*
X77282Y-64847D01*
X77432Y-64847D02*
X77432Y-64532D01*
X77462Y-64727D02*
X77552Y-64847D01*
X77552Y-64637D02*
X77432Y-64757D01*
X77822Y-64847D02*
X77822Y-64682D01*
X77807Y-64652D01*
X77777Y-64637D01*
X77717Y-64637D01*
X77687Y-64652D01*
X77822Y-64832D02*
X77792Y-64847D01*
X77717Y-64847D01*
X77687Y-64832D01*
X77672Y-64802D01*
X77672Y-64772D01*
X77687Y-64742D01*
X77717Y-64727D01*
X77792Y-64727D01*
X77822Y-64712D01*
X77972Y-64847D02*
X77972Y-64637D01*
X77972Y-64697D02*
X77987Y-64667D01*
X78002Y-64652D01*
X78032Y-64637D01*
X78062Y-64637D01*
X78167Y-64847D02*
X78167Y-64637D01*
X78167Y-64697D02*
X78182Y-64667D01*
X78197Y-64652D01*
X78227Y-64637D01*
X78257Y-64637D01*
X78362Y-64847D02*
X78362Y-64637D01*
X78362Y-64532D02*
X78347Y-64547D01*
X78362Y-64562D01*
X78377Y-64547D01*
X78362Y-64532D01*
X78362Y-64562D01*
X78512Y-64847D02*
X78512Y-64532D01*
X78542Y-64727D02*
X78632Y-64847D01*
X78632Y-64637D02*
X78512Y-64757D01*
X78767Y-64847D02*
X78767Y-64637D01*
X78767Y-64532D02*
X78752Y-64547D01*
X78767Y-64562D01*
X78782Y-64547D01*
X78767Y-64532D01*
X78767Y-64562D01*
X78887Y-64637D02*
X78962Y-64847D01*
X79037Y-64637D01*
X79277Y-64832D02*
X79247Y-64847D01*
X79187Y-64847D01*
X79157Y-64832D01*
X79142Y-64802D01*
X79142Y-64682D01*
X79157Y-64652D01*
X79187Y-64637D01*
X79247Y-64637D01*
X79277Y-64652D01*
X79292Y-64682D01*
X79292Y-64712D01*
X79142Y-64742D01*
X79472Y-64847D02*
X79442Y-64832D01*
X79427Y-64802D01*
X79427Y-64532D01*
X79727Y-64847D02*
X79727Y-64682D01*
X79712Y-64652D01*
X79682Y-64637D01*
X79622Y-64637D01*
X79592Y-64652D01*
X79727Y-64832D02*
X79697Y-64847D01*
X79622Y-64847D01*
X79592Y-64832D01*
X79577Y-64802D01*
X79577Y-64772D01*
X79592Y-64742D01*
X79622Y-64727D01*
X79697Y-64727D01*
X79727Y-64712D01*
X79877Y-64817D02*
X79892Y-64832D01*
X79877Y-64847D01*
X79862Y-64832D01*
X79877Y-64817D01*
X79877Y-64847D01*
X79982Y-64637D02*
X80102Y-64637D01*
X80027Y-64847D02*
X80027Y-64577D01*
X80042Y-64547D01*
X80072Y-64532D01*
X80102Y-64532D01*
X80207Y-64847D02*
X80207Y-64637D01*
X80207Y-64532D02*
X80192Y-64547D01*
X80207Y-64562D01*
X80222Y-64547D01*
X80207Y-64532D01*
X80207Y-64562D01*
X75917Y-65366D02*
X75917Y-65051D01*
X75947Y-65246D02*
X76037Y-65366D01*
X76037Y-65156D02*
X75917Y-65276D01*
X76307Y-65366D02*
X76307Y-65201D01*
X76292Y-65171D01*
X76262Y-65156D01*
X76202Y-65156D01*
X76172Y-65171D01*
X76307Y-65351D02*
X76277Y-65366D01*
X76202Y-65366D01*
X76172Y-65351D01*
X76157Y-65321D01*
X76157Y-65291D01*
X76172Y-65261D01*
X76202Y-65246D01*
X76277Y-65246D01*
X76307Y-65231D01*
X76457Y-65366D02*
X76457Y-65156D01*
X76457Y-65216D02*
X76472Y-65186D01*
X76487Y-65171D01*
X76517Y-65156D01*
X76547Y-65156D01*
X76652Y-65366D02*
X76652Y-65156D01*
X76652Y-65216D02*
X76667Y-65186D01*
X76682Y-65171D01*
X76712Y-65156D01*
X76742Y-65156D01*
X76847Y-65366D02*
X76847Y-65156D01*
X76847Y-65051D02*
X76832Y-65066D01*
X76847Y-65081D01*
X76862Y-65066D01*
X76847Y-65051D01*
X76847Y-65081D01*
X76982Y-65351D02*
X77012Y-65366D01*
X77072Y-65366D01*
X77102Y-65351D01*
X77117Y-65321D01*
X77117Y-65306D01*
X77102Y-65276D01*
X77072Y-65261D01*
X77027Y-65261D01*
X76997Y-65246D01*
X76982Y-65216D01*
X76982Y-65201D01*
X76997Y-65171D01*
X77027Y-65156D01*
X77072Y-65156D01*
X77102Y-65171D01*
X77207Y-65156D02*
X77327Y-65156D01*
X77252Y-65051D02*
X77252Y-65321D01*
X77267Y-65351D01*
X77297Y-65366D01*
X77327Y-65366D01*
X77552Y-65351D02*
X77522Y-65366D01*
X77462Y-65366D01*
X77432Y-65351D01*
X77417Y-65321D01*
X77417Y-65201D01*
X77432Y-65171D01*
X77462Y-65156D01*
X77522Y-65156D01*
X77552Y-65171D01*
X77567Y-65201D01*
X77567Y-65231D01*
X77417Y-65261D01*
X77702Y-65366D02*
X77702Y-65156D01*
X77702Y-65216D02*
X77717Y-65186D01*
X77732Y-65171D01*
X77762Y-65156D01*
X77792Y-65156D01*
X78092Y-65216D02*
X78077Y-65201D01*
X78047Y-65186D01*
X78017Y-65186D01*
X77987Y-65201D01*
X77972Y-65216D01*
X77957Y-65246D01*
X77957Y-65276D01*
X77972Y-65306D01*
X77987Y-65321D01*
X78017Y-65336D01*
X78047Y-65336D01*
X78077Y-65321D01*
X78092Y-65306D01*
X78092Y-65186D02*
X78092Y-65306D01*
X78107Y-65321D01*
X78122Y-65321D01*
X78152Y-65306D01*
X78167Y-65276D01*
X78167Y-65201D01*
X78137Y-65156D01*
X78092Y-65126D01*
X78032Y-65111D01*
X77972Y-65126D01*
X77927Y-65156D01*
X77897Y-65201D01*
X77882Y-65261D01*
X77897Y-65321D01*
X77927Y-65366D01*
X77972Y-65396D01*
X78032Y-65411D01*
X78092Y-65396D01*
X78137Y-65366D01*
X78437Y-65156D02*
X78437Y-65411D01*
X78422Y-65441D01*
X78407Y-65456D01*
X78377Y-65471D01*
X78332Y-65471D01*
X78302Y-65456D01*
X78437Y-65351D02*
X78407Y-65366D01*
X78347Y-65366D01*
X78317Y-65351D01*
X78302Y-65336D01*
X78287Y-65306D01*
X78287Y-65216D01*
X78302Y-65186D01*
X78317Y-65171D01*
X78347Y-65156D01*
X78407Y-65156D01*
X78437Y-65171D01*
X78587Y-65366D02*
X78587Y-65156D01*
X78587Y-65186D02*
X78602Y-65171D01*
X78632Y-65156D01*
X78677Y-65156D01*
X78707Y-65171D01*
X78722Y-65201D01*
X78722Y-65366D01*
X78722Y-65201D02*
X78737Y-65171D01*
X78767Y-65156D01*
X78812Y-65156D01*
X78842Y-65171D01*
X78857Y-65201D01*
X78857Y-65366D01*
X79142Y-65366D02*
X79142Y-65201D01*
X79127Y-65171D01*
X79097Y-65156D01*
X79037Y-65156D01*
X79007Y-65171D01*
X79142Y-65351D02*
X79112Y-65366D01*
X79037Y-65366D01*
X79007Y-65351D01*
X78992Y-65321D01*
X78992Y-65291D01*
X79007Y-65261D01*
X79037Y-65246D01*
X79112Y-65246D01*
X79142Y-65231D01*
X79292Y-65366D02*
X79292Y-65156D01*
X79292Y-65051D02*
X79277Y-65066D01*
X79292Y-65081D01*
X79307Y-65066D01*
X79292Y-65051D01*
X79292Y-65081D01*
X79487Y-65366D02*
X79457Y-65351D01*
X79442Y-65321D01*
X79442Y-65051D01*
X79607Y-65336D02*
X79622Y-65351D01*
X79607Y-65366D01*
X79592Y-65351D01*
X79607Y-65336D01*
X79607Y-65366D01*
X79892Y-65351D02*
X79862Y-65366D01*
X79802Y-65366D01*
X79772Y-65351D01*
X79757Y-65336D01*
X79742Y-65306D01*
X79742Y-65216D01*
X79757Y-65186D01*
X79772Y-65171D01*
X79802Y-65156D01*
X79862Y-65156D01*
X79892Y-65171D01*
X80072Y-65366D02*
X80042Y-65351D01*
X80027Y-65336D01*
X80012Y-65306D01*
X80012Y-65216D01*
X80027Y-65186D01*
X80042Y-65171D01*
X80072Y-65156D01*
X80117Y-65156D01*
X80147Y-65171D01*
X80162Y-65186D01*
X80177Y-65216D01*
X80177Y-65306D01*
X80162Y-65336D01*
X80147Y-65351D01*
X80117Y-65366D01*
X80072Y-65366D01*
X80312Y-65366D02*
X80312Y-65156D01*
X80312Y-65186D02*
X80327Y-65171D01*
X80357Y-65156D01*
X80402Y-65156D01*
X80432Y-65171D01*
X80447Y-65201D01*
X80447Y-65366D01*
X80447Y-65201D02*
X80462Y-65171D01*
X80492Y-65156D01*
X80537Y-65156D01*
X80567Y-65171D01*
X80582Y-65201D01*
X80582Y-65366D01*
G54D14*
X85650Y-73313D02*
G75*
G03X85650Y-73313I-62J0D01*
G74*
G01*
X85250Y-72350D02*
X85650Y-72350D01*
X85250Y-73375D02*
X85650Y-73375D01*
X85650Y-72350D02*
X85650Y-73375D01*
X85250Y-73375D02*
X85250Y-72350D01*
X85275Y-73962D02*
G75*
G03X85275Y-73962I-62J0D01*
G74*
G01*
X84250Y-74300D02*
X84250Y-73900D01*
X85275Y-74300D02*
X85275Y-73900D01*
X84250Y-73900D02*
X85275Y-73900D01*
X85275Y-74300D02*
X84250Y-74300D01*
G54D10*
X88034Y-58693D02*
X86065Y-58693D01*
X86065Y-58693D02*
X86065Y-57906D01*
X86065Y-57906D02*
X88034Y-57906D01*
X88034Y-57906D02*
X88034Y-58693D01*
G54D15*
X80450Y-65750D02*
X77550Y-65750D01*
X77550Y-70750D02*
X80450Y-70750D01*
X80450Y-65750D02*
X80450Y-70750D01*
X77550Y-70750D02*
X77550Y-65750D01*
X78750Y-70750D02*
X78750Y-70250D01*
X78750Y-70250D02*
X79250Y-70250D01*
X79250Y-70250D02*
X79250Y-70750D01*
G54D10*
X74650Y-55575D02*
X74650Y-56475D01*
X73750Y-56475D02*
X73750Y-55575D01*
X73750Y-55575D02*
X74650Y-55575D01*
X73750Y-56475D02*
X74650Y-56475D01*
X75550Y-57325D02*
X75550Y-58225D01*
X74650Y-58225D02*
X74650Y-57325D01*
X74650Y-57325D02*
X75550Y-57325D01*
X74650Y-58225D02*
X75550Y-58225D01*
G54D16*
X87650Y-59000D02*
G75*
G03X87650Y-59000I-50J0D01*
G74*
G01*
X87150Y-59000D02*
X87550Y-59000D01*
X87550Y-59000D02*
X87550Y-59600D01*
X87550Y-59600D02*
X87150Y-59600D01*
X86750Y-59600D02*
X86350Y-59600D01*
X86350Y-59600D02*
X86350Y-59000D01*
X86350Y-59000D02*
X86750Y-59000D01*
X81900Y-69800D02*
G75*
G03X81900Y-69800I-50J0D01*
G74*
G01*
X82300Y-69800D02*
X81900Y-69800D01*
X81900Y-69800D02*
X81900Y-69200D01*
X81900Y-69200D02*
X82300Y-69200D01*
X82700Y-69200D02*
X83100Y-69200D01*
X83100Y-69200D02*
X83100Y-69800D01*
X83100Y-69800D02*
X82700Y-69800D01*
X89200Y-68600D02*
G75*
G03X89200Y-68600I-50J0D01*
G74*
G01*
X89150Y-69050D02*
X89150Y-68650D01*
X89150Y-68650D02*
X89750Y-68650D01*
X89750Y-68650D02*
X89750Y-69050D01*
X89750Y-69450D02*
X89750Y-69850D01*
X89750Y-69850D02*
X89150Y-69850D01*
X89150Y-69850D02*
X89150Y-69450D01*
X85900Y-65050D02*
G75*
G03X85900Y-65050I-50J0D01*
G74*
G01*
X85850Y-65500D02*
X85850Y-65100D01*
X85850Y-65100D02*
X86450Y-65100D01*
X86450Y-65100D02*
X86450Y-65500D01*
X86450Y-65900D02*
X86450Y-66300D01*
X86450Y-66300D02*
X85850Y-66300D01*
X85850Y-66300D02*
X85850Y-65900D01*
X87950Y-72500D02*
G75*
G03X87950Y-72500I-50J0D01*
G74*
G01*
X87450Y-72500D02*
X87850Y-72500D01*
X87850Y-72500D02*
X87850Y-73100D01*
X87850Y-73100D02*
X87450Y-73100D01*
X87050Y-73100D02*
X86650Y-73100D01*
X86650Y-73100D02*
X86650Y-72500D01*
X86650Y-72500D02*
X87050Y-72500D01*
X87950Y-73450D02*
G75*
G03X87950Y-73450I-50J0D01*
G74*
G01*
X87450Y-73450D02*
X87850Y-73450D01*
X87850Y-73450D02*
X87850Y-74050D01*
X87850Y-74050D02*
X87450Y-74050D01*
X87050Y-74050D02*
X86650Y-74050D01*
X86650Y-74050D02*
X86650Y-73450D01*
X86650Y-73450D02*
X87050Y-73450D01*
X74550Y-61750D02*
G75*
G03X74550Y-61750I-50J0D01*
G74*
G01*
X74950Y-61750D02*
X74550Y-61750D01*
X74550Y-61750D02*
X74550Y-61150D01*
X74550Y-61150D02*
X74950Y-61150D01*
X75350Y-61150D02*
X75750Y-61150D01*
X75750Y-61150D02*
X75750Y-61750D01*
X75750Y-61750D02*
X75350Y-61750D01*
X75550Y-70050D02*
G75*
G03X75550Y-70050I-50J0D01*
G74*
G01*
X75500Y-69600D02*
X75500Y-70000D01*
X75500Y-70000D02*
X74900Y-70000D01*
X74900Y-70000D02*
X74900Y-69600D01*
X74900Y-69200D02*
X74900Y-68800D01*
X74900Y-68800D02*
X75500Y-68800D01*
X75500Y-68800D02*
X75500Y-69200D01*
X82250Y-61950D02*
G75*
G03X82250Y-61950I-50J0D01*
G74*
G01*
X82650Y-61950D02*
X82250Y-61950D01*
X82250Y-61950D02*
X82250Y-61350D01*
X82250Y-61350D02*
X82650Y-61350D01*
X83050Y-61350D02*
X83450Y-61350D01*
X83450Y-61350D02*
X83450Y-61950D01*
X83450Y-61950D02*
X83050Y-61950D01*
G54D17*
X81600Y-73850D02*
X81600Y-74850D01*
X81600Y-74850D02*
X76600Y-74850D01*
X76600Y-74850D02*
X76600Y-73850D01*
X76600Y-73850D02*
X81600Y-73850D01*
X80600Y-73850D02*
X80600Y-74850D01*
X81950Y-71900D02*
X82950Y-71900D01*
X82950Y-71900D02*
X82950Y-74900D01*
X82950Y-74900D02*
X81950Y-74900D01*
X81950Y-74900D02*
X81950Y-71900D01*
X82950Y-72900D02*
X81950Y-72900D01*
X72700Y-62900D02*
X73700Y-62900D01*
X73700Y-62900D02*
X73700Y-64900D01*
X73700Y-64900D02*
X72700Y-64900D01*
X72700Y-64900D02*
X72700Y-62900D01*
X73050Y-58600D02*
X74050Y-58600D01*
X74050Y-58600D02*
X74050Y-60600D01*
X74050Y-60600D02*
X73050Y-60600D01*
X73050Y-60600D02*
X73050Y-58600D01*
X89100Y-70150D02*
X90100Y-70150D01*
X90100Y-70150D02*
X90100Y-72150D01*
X90100Y-72150D02*
X89100Y-72150D01*
X89100Y-72150D02*
X89100Y-70150D01*
X88250Y-55700D02*
X88250Y-56700D01*
X88250Y-56700D02*
X86250Y-56700D01*
X86250Y-56700D02*
X86250Y-55700D01*
X86250Y-55700D02*
X88250Y-55700D01*
X73400Y-70950D02*
X72400Y-70950D01*
X72400Y-70950D02*
X72400Y-68950D01*
X72400Y-68950D02*
X73400Y-68950D01*
X73400Y-68950D02*
X73400Y-70950D01*
X72450Y-67850D02*
X72450Y-66850D01*
X72450Y-66850D02*
X74450Y-66850D01*
X74450Y-66850D02*
X74450Y-67850D01*
X74450Y-67850D02*
X72450Y-67850D01*
X90050Y-57650D02*
X89050Y-57650D01*
X89050Y-57650D02*
X89050Y-55650D01*
X89050Y-55650D02*
X90050Y-55650D01*
X90050Y-55650D02*
X90050Y-57650D01*
X74850Y-71400D02*
X74850Y-72400D01*
X74850Y-72400D02*
X72850Y-72400D01*
X72850Y-72400D02*
X72850Y-71400D01*
X72850Y-71400D02*
X74850Y-71400D01*
G54D10*
X89731Y-65981D02*
X87368Y-65981D01*
X87368Y-65981D02*
X87368Y-63618D01*
X87368Y-63618D02*
X89731Y-63618D01*
X89731Y-63618D02*
X89731Y-65981D01*
G54D18*
X85500Y-71500D02*
X85500Y-69000D01*
X83500Y-71500D02*
X83500Y-69000D01*
X84500Y-68000D02*
G75*
G03X83500Y-69000I0J-1000D01*
G74*
G01*
X85500Y-69000D02*
G75*
G03X84500Y-68000I-1000J0D01*
G74*
G01*
X83500Y-71500D02*
G75*
G03X84500Y-72500I1000J0D01*
G74*
G01*
X84500Y-72500D02*
G75*
G03X85500Y-71500I0J1000D01*
G74*
G01*
G54D10*
X76440Y-52458D02*
X81559Y-52458D01*
X81559Y-52458D02*
X81559Y-63482D01*
X81559Y-63482D02*
X76440Y-63482D01*
X76440Y-52458D02*
X76440Y-63482D01*
G54D17*
X85250Y-62650D02*
X85250Y-62250D01*
X85250Y-62250D02*
X84850Y-62250D01*
X84850Y-62250D02*
X84850Y-59250D01*
X84850Y-59250D02*
X85650Y-59250D01*
X85650Y-59250D02*
X85650Y-62250D01*
X85650Y-62250D02*
X85250Y-62250D01*
X85250Y-58650D02*
X85250Y-59050D01*
X85050Y-59250D02*
X85050Y-59050D01*
X85050Y-59050D02*
X85450Y-59050D01*
X85450Y-59050D02*
X85450Y-59250D01*
X88750Y-62650D02*
X88750Y-62250D01*
X88750Y-62250D02*
X88350Y-62250D01*
X88350Y-62250D02*
X88350Y-59250D01*
X88350Y-59250D02*
X89150Y-59250D01*
X89150Y-59250D02*
X89150Y-62250D01*
X89150Y-62250D02*
X88750Y-62250D01*
X88750Y-58650D02*
X88750Y-59050D01*
X88550Y-59250D02*
X88550Y-59050D01*
X88550Y-59050D02*
X88950Y-59050D01*
X88950Y-59050D02*
X88950Y-59250D01*
G54D15*
X87000Y-71500D02*
X87000Y-71000D01*
X87500Y-71500D02*
X87500Y-71010D01*
X87650Y-71500D02*
X86850Y-71500D01*
X86850Y-71500D02*
X86850Y-71000D01*
X86850Y-71000D02*
X87650Y-71000D01*
X87650Y-71000D02*
X87650Y-71500D01*
X75850Y-63000D02*
X75350Y-63000D01*
X75850Y-62500D02*
X75360Y-62500D01*
X75850Y-62350D02*
X75850Y-63150D01*
X75850Y-63150D02*
X75350Y-63150D01*
X75350Y-63150D02*
X75350Y-62350D01*
X75350Y-62350D02*
X75850Y-62350D01*
X80750Y-71250D02*
X80750Y-71750D01*
X80250Y-71250D02*
X80250Y-71740D01*
X80100Y-71250D02*
X80900Y-71250D01*
X80900Y-71250D02*
X80900Y-71750D01*
X80900Y-71750D02*
X80100Y-71750D01*
X80100Y-71750D02*
X80100Y-71250D01*
X87000Y-69500D02*
X87000Y-69000D01*
X87500Y-69500D02*
X87500Y-69010D01*
X87650Y-69500D02*
X86850Y-69500D01*
X86850Y-69500D02*
X86850Y-69000D01*
X86850Y-69000D02*
X87650Y-69000D01*
X87650Y-69000D02*
X87650Y-69500D01*
X87000Y-67200D02*
X87000Y-66700D01*
X87500Y-67200D02*
X87500Y-66710D01*
X87650Y-67200D02*
X86850Y-67200D01*
X86850Y-67200D02*
X86850Y-66700D01*
X86850Y-66700D02*
X87650Y-66700D01*
X87650Y-66700D02*
X87650Y-67200D01*
G54D10*
X84106Y-64934D02*
X84106Y-62965D01*
X84106Y-62965D02*
X84893Y-62965D01*
X84893Y-62965D02*
X84893Y-64934D01*
X84893Y-64934D02*
X84106Y-64934D01*
G54D19*
X82900Y-64750D02*
G75*
G03X82900Y-64750I-900J0D01*
G74*
G01*
X75350Y-73700D02*
G75*
G03X75350Y-73700I-900J0D01*
G74*
G01*
X90250Y-73350D02*
G75*
G03X90250Y-73350I-900J0D01*
G74*
G01*
G54D20*
X85182Y-71884D02*
X85353Y-71884D01*
X85268Y-72184D02*
X85268Y-71884D01*
X85611Y-72184D02*
X85439Y-72184D01*
X85525Y-72184D02*
X85525Y-71884D01*
X85496Y-71927D01*
X85468Y-71955D01*
X85439Y-71970D01*
G54D16*
X85426Y-73176D02*
X85435Y-73148D01*
X85445Y-73139D01*
X85464Y-73129D01*
X85492Y-73129D01*
X85510Y-73139D01*
X85520Y-73148D01*
X85529Y-73167D01*
X85529Y-73242D01*
X85332Y-73242D01*
X85332Y-73176D01*
X85342Y-73158D01*
X85351Y-73148D01*
X85370Y-73139D01*
X85389Y-73139D01*
X85407Y-73148D01*
X85417Y-73158D01*
X85426Y-73176D01*
X85426Y-73242D01*
X85520Y-73054D02*
X85529Y-73026D01*
X85529Y-72979D01*
X85520Y-72961D01*
X85510Y-72951D01*
X85492Y-72942D01*
X85473Y-72942D01*
X85454Y-72951D01*
X85445Y-72961D01*
X85435Y-72979D01*
X85426Y-73017D01*
X85417Y-73036D01*
X85407Y-73045D01*
X85389Y-73054D01*
X85370Y-73054D01*
X85351Y-73045D01*
X85342Y-73036D01*
X85332Y-73017D01*
X85332Y-72970D01*
X85342Y-72942D01*
X85332Y-72885D02*
X85529Y-72820D01*
X85332Y-72754D01*
X85332Y-72595D02*
X85332Y-72688D01*
X85426Y-72698D01*
X85417Y-72688D01*
X85407Y-72670D01*
X85407Y-72623D01*
X85417Y-72604D01*
X85426Y-72595D01*
X85445Y-72585D01*
X85492Y-72585D01*
X85510Y-72595D01*
X85520Y-72604D01*
X85529Y-72623D01*
X85529Y-72670D01*
X85520Y-72688D01*
X85510Y-72698D01*
X85351Y-72510D02*
X85342Y-72501D01*
X85332Y-72482D01*
X85332Y-72435D01*
X85342Y-72416D01*
X85351Y-72407D01*
X85370Y-72398D01*
X85389Y-72398D01*
X85417Y-72407D01*
X85529Y-72520D01*
X85529Y-72398D01*
G54D20*
X83784Y-74367D02*
X83784Y-74196D01*
X84084Y-74281D02*
X83784Y-74281D01*
X83813Y-74110D02*
X83798Y-74096D01*
X83784Y-74067D01*
X83784Y-73996D01*
X83798Y-73967D01*
X83813Y-73953D01*
X83841Y-73939D01*
X83870Y-73939D01*
X83913Y-73953D01*
X84084Y-74124D01*
X84084Y-73939D01*
G54D16*
X84373Y-74076D02*
X84401Y-74085D01*
X84410Y-74095D01*
X84420Y-74114D01*
X84420Y-74142D01*
X84410Y-74160D01*
X84401Y-74170D01*
X84382Y-74179D01*
X84307Y-74179D01*
X84307Y-73982D01*
X84373Y-73982D01*
X84391Y-73992D01*
X84401Y-74001D01*
X84410Y-74020D01*
X84410Y-74039D01*
X84401Y-74057D01*
X84391Y-74067D01*
X84373Y-74076D01*
X84307Y-74076D01*
X84495Y-74170D02*
X84523Y-74179D01*
X84570Y-74179D01*
X84588Y-74170D01*
X84598Y-74160D01*
X84607Y-74142D01*
X84607Y-74123D01*
X84598Y-74104D01*
X84588Y-74095D01*
X84570Y-74085D01*
X84532Y-74076D01*
X84513Y-74067D01*
X84504Y-74057D01*
X84495Y-74039D01*
X84495Y-74020D01*
X84504Y-74001D01*
X84513Y-73992D01*
X84532Y-73982D01*
X84579Y-73982D01*
X84607Y-73992D01*
X84664Y-73982D02*
X84729Y-74179D01*
X84795Y-73982D01*
X84954Y-73982D02*
X84861Y-73982D01*
X84851Y-74076D01*
X84861Y-74067D01*
X84879Y-74057D01*
X84926Y-74057D01*
X84945Y-74067D01*
X84954Y-74076D01*
X84964Y-74095D01*
X84964Y-74142D01*
X84954Y-74160D01*
X84945Y-74170D01*
X84926Y-74179D01*
X84879Y-74179D01*
X84861Y-74170D01*
X84851Y-74160D01*
X85039Y-74001D02*
X85048Y-73992D01*
X85067Y-73982D01*
X85114Y-73982D01*
X85133Y-73992D01*
X85142Y-74001D01*
X85151Y-74020D01*
X85151Y-74039D01*
X85142Y-74067D01*
X85029Y-74179D01*
X85151Y-74179D01*
G54D10*
X85609Y-58109D02*
X85609Y-57715D01*
X85703Y-57715D01*
X85759Y-57734D01*
X85796Y-57771D01*
X85815Y-57809D01*
X85834Y-57884D01*
X85834Y-57940D01*
X85815Y-58015D01*
X85796Y-58053D01*
X85759Y-58090D01*
X85703Y-58109D01*
X85609Y-58109D01*
X86190Y-57715D02*
X86003Y-57715D01*
X85984Y-57903D01*
X86003Y-57884D01*
X86040Y-57865D01*
X86134Y-57865D01*
X86171Y-57884D01*
X86190Y-57903D01*
X86209Y-57940D01*
X86209Y-58034D01*
X86190Y-58071D01*
X86171Y-58090D01*
X86134Y-58109D01*
X86040Y-58109D01*
X86003Y-58090D01*
X85984Y-58071D01*
X85681Y-58709D02*
X85681Y-58315D01*
X85775Y-58315D01*
X85831Y-58334D01*
X85868Y-58371D01*
X85887Y-58409D01*
X85906Y-58484D01*
X85906Y-58540D01*
X85887Y-58615D01*
X85868Y-58653D01*
X85831Y-58690D01*
X85775Y-58709D01*
X85681Y-58709D01*
X86075Y-58709D02*
X86075Y-58315D01*
X86337Y-58315D02*
X86412Y-58315D01*
X86450Y-58334D01*
X86487Y-58371D01*
X86506Y-58446D01*
X86506Y-58578D01*
X86487Y-58653D01*
X86450Y-58690D01*
X86412Y-58709D01*
X86337Y-58709D01*
X86300Y-58690D01*
X86262Y-58653D01*
X86243Y-58578D01*
X86243Y-58446D01*
X86262Y-58371D01*
X86300Y-58334D01*
X86337Y-58315D01*
X86675Y-58709D02*
X86675Y-58315D01*
X86768Y-58315D01*
X86825Y-58334D01*
X86862Y-58371D01*
X86881Y-58409D01*
X86900Y-58484D01*
X86900Y-58540D01*
X86881Y-58615D01*
X86862Y-58653D01*
X86825Y-58690D01*
X86768Y-58709D01*
X86675Y-58709D01*
X87068Y-58503D02*
X87199Y-58503D01*
X87256Y-58709D02*
X87068Y-58709D01*
X87068Y-58315D01*
X87256Y-58315D01*
X87406Y-58690D02*
X87462Y-58709D01*
X87556Y-58709D01*
X87593Y-58690D01*
X87612Y-58671D01*
X87631Y-58634D01*
X87631Y-58596D01*
X87612Y-58559D01*
X87593Y-58540D01*
X87556Y-58521D01*
X87481Y-58503D01*
X87443Y-58484D01*
X87424Y-58465D01*
X87406Y-58428D01*
X87406Y-58390D01*
X87424Y-58353D01*
X87443Y-58334D01*
X87481Y-58315D01*
X87574Y-58315D01*
X87631Y-58334D01*
X88024Y-58671D02*
X88006Y-58690D01*
X87949Y-58709D01*
X87912Y-58709D01*
X87856Y-58690D01*
X87818Y-58653D01*
X87799Y-58615D01*
X87781Y-58540D01*
X87781Y-58484D01*
X87799Y-58409D01*
X87818Y-58371D01*
X87856Y-58334D01*
X87912Y-58315D01*
X87949Y-58315D01*
X88006Y-58334D01*
X88024Y-58353D01*
X88193Y-58709D02*
X88193Y-58315D01*
X88193Y-58503D02*
X88418Y-58503D01*
X88418Y-58709D02*
X88418Y-58315D01*
G54D15*
X78142Y-68707D02*
X78628Y-68707D01*
X78685Y-68678D01*
X78714Y-68650D01*
X78742Y-68592D01*
X78742Y-68478D01*
X78714Y-68421D01*
X78685Y-68392D01*
X78628Y-68364D01*
X78142Y-68364D01*
X78742Y-67764D02*
X78742Y-68107D01*
X78742Y-67935D02*
X78142Y-67935D01*
X78228Y-67992D01*
X78285Y-68050D01*
X78314Y-68107D01*
X79742Y-70642D02*
X79142Y-70642D01*
X79142Y-70452D01*
X79171Y-70404D01*
X79200Y-70380D01*
X79257Y-70357D01*
X79342Y-70357D01*
X79400Y-70380D01*
X79428Y-70404D01*
X79457Y-70452D01*
X79457Y-70642D01*
X79742Y-70142D02*
X79142Y-70142D01*
X79685Y-69619D02*
X79714Y-69642D01*
X79742Y-69714D01*
X79742Y-69761D01*
X79714Y-69833D01*
X79657Y-69880D01*
X79600Y-69904D01*
X79485Y-69928D01*
X79400Y-69928D01*
X79285Y-69904D01*
X79228Y-69880D01*
X79171Y-69833D01*
X79142Y-69761D01*
X79142Y-69714D01*
X79171Y-69642D01*
X79200Y-69619D01*
X79742Y-69142D02*
X79742Y-69428D01*
X79742Y-69285D02*
X79142Y-69285D01*
X79228Y-69333D01*
X79285Y-69380D01*
X79314Y-69428D01*
X79400Y-68857D02*
X79371Y-68904D01*
X79342Y-68928D01*
X79285Y-68952D01*
X79257Y-68952D01*
X79200Y-68928D01*
X79171Y-68904D01*
X79142Y-68857D01*
X79142Y-68761D01*
X79171Y-68714D01*
X79200Y-68690D01*
X79257Y-68666D01*
X79285Y-68666D01*
X79342Y-68690D01*
X79371Y-68714D01*
X79400Y-68761D01*
X79400Y-68857D01*
X79428Y-68904D01*
X79457Y-68928D01*
X79514Y-68952D01*
X79628Y-68952D01*
X79685Y-68928D01*
X79714Y-68904D01*
X79742Y-68857D01*
X79742Y-68761D01*
X79714Y-68714D01*
X79685Y-68690D01*
X79628Y-68666D01*
X79514Y-68666D01*
X79457Y-68690D01*
X79428Y-68714D01*
X79400Y-68761D01*
X79428Y-68285D02*
X79428Y-68452D01*
X79742Y-68452D02*
X79142Y-68452D01*
X79142Y-68214D01*
X79742Y-67761D02*
X79742Y-68047D01*
X79742Y-67904D02*
X79142Y-67904D01*
X79228Y-67952D01*
X79285Y-68000D01*
X79314Y-68047D01*
X79342Y-67333D02*
X79742Y-67333D01*
X79114Y-67452D02*
X79542Y-67571D01*
X79542Y-67261D01*
X79742Y-67071D02*
X79142Y-67071D01*
X79742Y-66785D02*
X79400Y-66999D01*
X79142Y-66785D02*
X79485Y-67071D01*
X79142Y-66333D02*
X79142Y-66571D01*
X79428Y-66595D01*
X79400Y-66571D01*
X79371Y-66523D01*
X79371Y-66404D01*
X79400Y-66357D01*
X79428Y-66333D01*
X79485Y-66309D01*
X79628Y-66309D01*
X79685Y-66333D01*
X79714Y-66357D01*
X79742Y-66404D01*
X79742Y-66523D01*
X79714Y-66571D01*
X79685Y-66595D01*
X79142Y-65999D02*
X79142Y-65952D01*
X79171Y-65904D01*
X79200Y-65880D01*
X79257Y-65857D01*
X79371Y-65833D01*
X79514Y-65833D01*
X79628Y-65857D01*
X79685Y-65880D01*
X79714Y-65904D01*
X79742Y-65952D01*
X79742Y-65999D01*
X79714Y-66047D01*
X79685Y-66071D01*
X79628Y-66095D01*
X79514Y-66119D01*
X79371Y-66119D01*
X79257Y-66095D01*
X79200Y-66071D01*
X79171Y-66047D01*
X79142Y-65999D01*
G54D10*
X74809Y-56159D02*
X74809Y-55765D01*
X74959Y-55765D01*
X74996Y-55784D01*
X75015Y-55803D01*
X75034Y-55840D01*
X75034Y-55896D01*
X75015Y-55934D01*
X74996Y-55953D01*
X74959Y-55971D01*
X74809Y-55971D01*
X75371Y-55765D02*
X75296Y-55765D01*
X75259Y-55784D01*
X75240Y-55803D01*
X75203Y-55859D01*
X75184Y-55934D01*
X75184Y-56084D01*
X75203Y-56121D01*
X75221Y-56140D01*
X75259Y-56159D01*
X75334Y-56159D01*
X75371Y-56140D01*
X75390Y-56121D01*
X75409Y-56084D01*
X75409Y-55990D01*
X75390Y-55953D01*
X75371Y-55934D01*
X75334Y-55915D01*
X75259Y-55915D01*
X75221Y-55934D01*
X75203Y-55953D01*
X75184Y-55990D01*
X73706Y-56665D02*
X73931Y-56665D01*
X73818Y-57059D02*
X73818Y-56665D01*
X74062Y-57059D02*
X74062Y-56665D01*
X74212Y-56665D01*
X74250Y-56684D01*
X74268Y-56703D01*
X74287Y-56740D01*
X74287Y-56796D01*
X74268Y-56834D01*
X74250Y-56853D01*
X74212Y-56871D01*
X74062Y-56871D01*
X74362Y-57096D02*
X74662Y-57096D01*
X74887Y-56853D02*
X74943Y-56871D01*
X74962Y-56890D01*
X74981Y-56928D01*
X74981Y-56984D01*
X74962Y-57021D01*
X74943Y-57040D01*
X74906Y-57059D01*
X74756Y-57059D01*
X74756Y-56665D01*
X74887Y-56665D01*
X74925Y-56684D01*
X74943Y-56703D01*
X74962Y-56740D01*
X74962Y-56778D01*
X74943Y-56815D01*
X74925Y-56834D01*
X74887Y-56853D01*
X74756Y-56853D01*
X75093Y-56665D02*
X75318Y-56665D01*
X75206Y-57059D02*
X75206Y-56665D01*
X75356Y-57096D02*
X75656Y-57096D01*
X75693Y-56665D02*
X75918Y-56665D01*
X75806Y-57059D02*
X75806Y-56665D01*
X76012Y-56665D02*
X76274Y-57059D01*
X76274Y-56665D02*
X76012Y-57059D01*
X75659Y-58059D02*
X75659Y-57665D01*
X75809Y-57665D01*
X75846Y-57684D01*
X75865Y-57703D01*
X75884Y-57740D01*
X75884Y-57796D01*
X75865Y-57834D01*
X75846Y-57853D01*
X75809Y-57871D01*
X75659Y-57871D01*
X76240Y-57665D02*
X76053Y-57665D01*
X76034Y-57853D01*
X76053Y-57834D01*
X76090Y-57815D01*
X76184Y-57815D01*
X76221Y-57834D01*
X76240Y-57853D01*
X76259Y-57890D01*
X76259Y-57984D01*
X76240Y-58021D01*
X76221Y-58040D01*
X76184Y-58059D01*
X76090Y-58059D01*
X76053Y-58040D01*
X76034Y-58021D01*
X74209Y-58415D02*
X74434Y-58415D01*
X74322Y-58809D02*
X74322Y-58415D01*
X74565Y-58809D02*
X74565Y-58415D01*
X74715Y-58415D01*
X74753Y-58434D01*
X74771Y-58453D01*
X74790Y-58490D01*
X74790Y-58546D01*
X74771Y-58584D01*
X74753Y-58603D01*
X74715Y-58621D01*
X74565Y-58621D01*
X74865Y-58846D02*
X75165Y-58846D01*
X75390Y-58603D02*
X75446Y-58621D01*
X75465Y-58640D01*
X75484Y-58678D01*
X75484Y-58734D01*
X75465Y-58771D01*
X75446Y-58790D01*
X75409Y-58809D01*
X75259Y-58809D01*
X75259Y-58415D01*
X75390Y-58415D01*
X75428Y-58434D01*
X75446Y-58453D01*
X75465Y-58490D01*
X75465Y-58528D01*
X75446Y-58565D01*
X75428Y-58584D01*
X75390Y-58603D01*
X75259Y-58603D01*
X75596Y-58415D02*
X75821Y-58415D01*
X75709Y-58809D02*
X75709Y-58415D01*
X75859Y-58846D02*
X76159Y-58846D01*
X76478Y-58809D02*
X76346Y-58621D01*
X76253Y-58809D02*
X76253Y-58415D01*
X76403Y-58415D01*
X76440Y-58434D01*
X76459Y-58453D01*
X76478Y-58490D01*
X76478Y-58546D01*
X76459Y-58584D01*
X76440Y-58603D01*
X76403Y-58621D01*
X76253Y-58621D01*
X76609Y-58415D02*
X76871Y-58809D01*
X76871Y-58415D02*
X76609Y-58809D01*
G54D21*
X86823Y-59504D02*
X86757Y-59410D01*
X86710Y-59504D02*
X86710Y-59307D01*
X86785Y-59307D01*
X86804Y-59317D01*
X86813Y-59326D01*
X86823Y-59345D01*
X86823Y-59373D01*
X86813Y-59392D01*
X86804Y-59401D01*
X86785Y-59410D01*
X86710Y-59410D01*
X87010Y-59504D02*
X86898Y-59504D01*
X86954Y-59504D02*
X86954Y-59307D01*
X86935Y-59335D01*
X86917Y-59354D01*
X86898Y-59364D01*
X87179Y-59373D02*
X87179Y-59504D01*
X87132Y-59298D02*
X87086Y-59439D01*
X87207Y-59439D01*
X86813Y-59229D02*
X86701Y-59229D01*
X86757Y-59229D02*
X86757Y-59032D01*
X86738Y-59060D01*
X86720Y-59079D01*
X86701Y-59089D01*
X86898Y-59229D02*
X86898Y-59032D01*
X87010Y-59229D02*
X86926Y-59117D01*
X87010Y-59032D02*
X86898Y-59145D01*
X87123Y-59117D02*
X87104Y-59107D01*
X87095Y-59098D01*
X87086Y-59079D01*
X87086Y-59070D01*
X87095Y-59051D01*
X87104Y-59042D01*
X87123Y-59032D01*
X87161Y-59032D01*
X87179Y-59042D01*
X87189Y-59051D01*
X87198Y-59070D01*
X87198Y-59079D01*
X87189Y-59098D01*
X87179Y-59107D01*
X87161Y-59117D01*
X87123Y-59117D01*
X87104Y-59126D01*
X87095Y-59135D01*
X87086Y-59154D01*
X87086Y-59192D01*
X87095Y-59210D01*
X87104Y-59220D01*
X87123Y-59229D01*
X87161Y-59229D01*
X87179Y-59220D01*
X87189Y-59210D01*
X87198Y-59192D01*
X87198Y-59154D01*
X87189Y-59135D01*
X87179Y-59126D01*
X87161Y-59117D01*
X82467Y-69454D02*
X82401Y-69360D01*
X82354Y-69454D02*
X82354Y-69257D01*
X82429Y-69257D01*
X82448Y-69267D01*
X82457Y-69276D01*
X82467Y-69295D01*
X82467Y-69323D01*
X82457Y-69342D01*
X82448Y-69351D01*
X82429Y-69360D01*
X82354Y-69360D01*
X82542Y-69276D02*
X82551Y-69267D01*
X82570Y-69257D01*
X82617Y-69257D01*
X82636Y-69267D01*
X82645Y-69276D01*
X82654Y-69295D01*
X82654Y-69314D01*
X82645Y-69342D01*
X82532Y-69454D01*
X82654Y-69454D01*
X82490Y-69532D02*
X82509Y-69532D01*
X82528Y-69542D01*
X82537Y-69551D01*
X82546Y-69570D01*
X82556Y-69607D01*
X82556Y-69654D01*
X82546Y-69692D01*
X82537Y-69710D01*
X82528Y-69720D01*
X82509Y-69729D01*
X82490Y-69729D01*
X82471Y-69720D01*
X82462Y-69710D01*
X82453Y-69692D01*
X82443Y-69654D01*
X82443Y-69607D01*
X82453Y-69570D01*
X82462Y-69551D01*
X82471Y-69542D01*
X82490Y-69532D01*
X89654Y-69376D02*
X89560Y-69442D01*
X89654Y-69489D02*
X89457Y-69489D01*
X89457Y-69414D01*
X89467Y-69395D01*
X89476Y-69386D01*
X89495Y-69376D01*
X89523Y-69376D01*
X89542Y-69386D01*
X89551Y-69395D01*
X89560Y-69414D01*
X89560Y-69489D01*
X89654Y-69189D02*
X89654Y-69301D01*
X89654Y-69245D02*
X89457Y-69245D01*
X89485Y-69264D01*
X89504Y-69282D01*
X89514Y-69301D01*
X89457Y-69067D02*
X89457Y-69048D01*
X89467Y-69029D01*
X89476Y-69020D01*
X89495Y-69010D01*
X89532Y-69001D01*
X89579Y-69001D01*
X89617Y-69010D01*
X89635Y-69020D01*
X89645Y-69029D01*
X89654Y-69048D01*
X89654Y-69067D01*
X89645Y-69085D01*
X89635Y-69095D01*
X89617Y-69104D01*
X89579Y-69113D01*
X89532Y-69113D01*
X89495Y-69104D01*
X89476Y-69095D01*
X89467Y-69085D01*
X89457Y-69067D01*
X89201Y-69493D02*
X89192Y-69484D01*
X89182Y-69465D01*
X89182Y-69418D01*
X89192Y-69400D01*
X89201Y-69390D01*
X89220Y-69381D01*
X89239Y-69381D01*
X89267Y-69390D01*
X89379Y-69503D01*
X89379Y-69381D01*
X89182Y-69259D02*
X89182Y-69240D01*
X89192Y-69221D01*
X89201Y-69212D01*
X89220Y-69203D01*
X89257Y-69193D01*
X89304Y-69193D01*
X89342Y-69203D01*
X89360Y-69212D01*
X89370Y-69221D01*
X89379Y-69240D01*
X89379Y-69259D01*
X89370Y-69278D01*
X89360Y-69287D01*
X89342Y-69296D01*
X89304Y-69306D01*
X89257Y-69306D01*
X89220Y-69296D01*
X89201Y-69287D01*
X89192Y-69278D01*
X89182Y-69259D01*
X89182Y-69071D02*
X89182Y-69053D01*
X89192Y-69034D01*
X89201Y-69024D01*
X89220Y-69015D01*
X89257Y-69006D01*
X89304Y-69006D01*
X89342Y-69015D01*
X89360Y-69024D01*
X89370Y-69034D01*
X89379Y-69053D01*
X89379Y-69071D01*
X89370Y-69090D01*
X89360Y-69099D01*
X89342Y-69109D01*
X89304Y-69118D01*
X89257Y-69118D01*
X89220Y-69109D01*
X89201Y-69099D01*
X89192Y-69090D01*
X89182Y-69071D01*
X86354Y-65732D02*
X86260Y-65798D01*
X86354Y-65845D02*
X86157Y-65845D01*
X86157Y-65770D01*
X86167Y-65751D01*
X86176Y-65742D01*
X86195Y-65732D01*
X86223Y-65732D01*
X86242Y-65742D01*
X86251Y-65751D01*
X86260Y-65770D01*
X86260Y-65845D01*
X86354Y-65545D02*
X86354Y-65657D01*
X86354Y-65601D02*
X86157Y-65601D01*
X86185Y-65620D01*
X86204Y-65639D01*
X86214Y-65657D01*
X85882Y-65953D02*
X85882Y-65840D01*
X86079Y-65897D02*
X85882Y-65897D01*
X85976Y-65709D02*
X85985Y-65681D01*
X85995Y-65671D01*
X86014Y-65662D01*
X86042Y-65662D01*
X86060Y-65671D01*
X86070Y-65681D01*
X86079Y-65700D01*
X86079Y-65775D01*
X85882Y-65775D01*
X85882Y-65709D01*
X85892Y-65690D01*
X85901Y-65681D01*
X85920Y-65671D01*
X85939Y-65671D01*
X85957Y-65681D01*
X85967Y-65690D01*
X85976Y-65709D01*
X85976Y-65775D01*
X86079Y-65578D02*
X85882Y-65578D01*
X85882Y-65531D01*
X85892Y-65503D01*
X85910Y-65484D01*
X85929Y-65474D01*
X85967Y-65465D01*
X85995Y-65465D01*
X86032Y-65474D01*
X86051Y-65484D01*
X86070Y-65503D01*
X86079Y-65531D01*
X86079Y-65578D01*
X87217Y-73004D02*
X87151Y-72910D01*
X87104Y-73004D02*
X87104Y-72807D01*
X87179Y-72807D01*
X87198Y-72817D01*
X87207Y-72826D01*
X87217Y-72845D01*
X87217Y-72873D01*
X87207Y-72892D01*
X87198Y-72901D01*
X87179Y-72910D01*
X87104Y-72910D01*
X87282Y-72807D02*
X87404Y-72807D01*
X87339Y-72882D01*
X87367Y-72882D01*
X87386Y-72892D01*
X87395Y-72901D01*
X87404Y-72920D01*
X87404Y-72967D01*
X87395Y-72985D01*
X87386Y-72995D01*
X87367Y-73004D01*
X87310Y-73004D01*
X87292Y-72995D01*
X87282Y-72985D01*
X87132Y-72729D02*
X87020Y-72729D01*
X87076Y-72729D02*
X87076Y-72532D01*
X87057Y-72560D01*
X87038Y-72579D01*
X87020Y-72589D01*
X87254Y-72532D02*
X87273Y-72532D01*
X87292Y-72542D01*
X87301Y-72551D01*
X87310Y-72570D01*
X87320Y-72607D01*
X87320Y-72654D01*
X87310Y-72692D01*
X87301Y-72710D01*
X87292Y-72720D01*
X87273Y-72729D01*
X87254Y-72729D01*
X87235Y-72720D01*
X87226Y-72710D01*
X87217Y-72692D01*
X87207Y-72654D01*
X87207Y-72607D01*
X87217Y-72570D01*
X87226Y-72551D01*
X87235Y-72542D01*
X87254Y-72532D01*
X87404Y-72729D02*
X87404Y-72532D01*
X87423Y-72654D02*
X87479Y-72729D01*
X87479Y-72598D02*
X87404Y-72673D01*
X87217Y-73954D02*
X87151Y-73860D01*
X87104Y-73954D02*
X87104Y-73757D01*
X87179Y-73757D01*
X87198Y-73767D01*
X87207Y-73776D01*
X87217Y-73795D01*
X87217Y-73823D01*
X87207Y-73842D01*
X87198Y-73851D01*
X87179Y-73860D01*
X87104Y-73860D01*
X87386Y-73823D02*
X87386Y-73954D01*
X87339Y-73748D02*
X87292Y-73889D01*
X87414Y-73889D01*
X87132Y-73679D02*
X87020Y-73679D01*
X87076Y-73679D02*
X87076Y-73482D01*
X87057Y-73510D01*
X87038Y-73529D01*
X87020Y-73539D01*
X87254Y-73482D02*
X87273Y-73482D01*
X87292Y-73492D01*
X87301Y-73501D01*
X87310Y-73520D01*
X87320Y-73557D01*
X87320Y-73604D01*
X87310Y-73642D01*
X87301Y-73660D01*
X87292Y-73670D01*
X87273Y-73679D01*
X87254Y-73679D01*
X87235Y-73670D01*
X87226Y-73660D01*
X87217Y-73642D01*
X87207Y-73604D01*
X87207Y-73557D01*
X87217Y-73520D01*
X87226Y-73501D01*
X87235Y-73492D01*
X87254Y-73482D01*
X87404Y-73679D02*
X87404Y-73482D01*
X87423Y-73604D02*
X87479Y-73679D01*
X87479Y-73548D02*
X87404Y-73623D01*
X75117Y-61404D02*
X75051Y-61310D01*
X75004Y-61404D02*
X75004Y-61207D01*
X75079Y-61207D01*
X75098Y-61217D01*
X75107Y-61226D01*
X75117Y-61245D01*
X75117Y-61273D01*
X75107Y-61292D01*
X75098Y-61301D01*
X75079Y-61310D01*
X75004Y-61310D01*
X75295Y-61207D02*
X75201Y-61207D01*
X75192Y-61301D01*
X75201Y-61292D01*
X75220Y-61282D01*
X75267Y-61282D01*
X75286Y-61292D01*
X75295Y-61301D01*
X75304Y-61320D01*
X75304Y-61367D01*
X75295Y-61385D01*
X75286Y-61395D01*
X75267Y-61404D01*
X75220Y-61404D01*
X75201Y-61395D01*
X75192Y-61385D01*
X75013Y-61548D02*
X75013Y-61679D01*
X74967Y-61473D02*
X74920Y-61614D01*
X75042Y-61614D01*
X75117Y-61679D02*
X75117Y-61482D01*
X75135Y-61604D02*
X75192Y-61679D01*
X75192Y-61548D02*
X75117Y-61623D01*
X75361Y-61482D02*
X75323Y-61482D01*
X75304Y-61492D01*
X75295Y-61501D01*
X75276Y-61529D01*
X75267Y-61567D01*
X75267Y-61642D01*
X75276Y-61660D01*
X75286Y-61670D01*
X75304Y-61679D01*
X75342Y-61679D01*
X75361Y-61670D01*
X75370Y-61660D01*
X75379Y-61642D01*
X75379Y-61595D01*
X75370Y-61576D01*
X75361Y-61567D01*
X75342Y-61557D01*
X75304Y-61557D01*
X75286Y-61567D01*
X75276Y-61576D01*
X75267Y-61595D01*
X75154Y-69432D02*
X75060Y-69498D01*
X75154Y-69545D02*
X74957Y-69545D01*
X74957Y-69470D01*
X74967Y-69451D01*
X74976Y-69442D01*
X74995Y-69432D01*
X75023Y-69432D01*
X75042Y-69442D01*
X75051Y-69451D01*
X75060Y-69470D01*
X75060Y-69545D01*
X74957Y-69263D02*
X74957Y-69301D01*
X74967Y-69320D01*
X74976Y-69329D01*
X75004Y-69348D01*
X75042Y-69357D01*
X75117Y-69357D01*
X75135Y-69348D01*
X75145Y-69339D01*
X75154Y-69320D01*
X75154Y-69282D01*
X75145Y-69263D01*
X75135Y-69254D01*
X75117Y-69245D01*
X75070Y-69245D01*
X75051Y-69254D01*
X75042Y-69263D01*
X75032Y-69282D01*
X75032Y-69320D01*
X75042Y-69339D01*
X75051Y-69348D01*
X75070Y-69357D01*
X75429Y-69517D02*
X75429Y-69629D01*
X75429Y-69573D02*
X75232Y-69573D01*
X75260Y-69592D01*
X75279Y-69611D01*
X75289Y-69629D01*
X75232Y-69395D02*
X75232Y-69376D01*
X75242Y-69357D01*
X75251Y-69348D01*
X75270Y-69339D01*
X75307Y-69329D01*
X75354Y-69329D01*
X75392Y-69339D01*
X75410Y-69348D01*
X75420Y-69357D01*
X75429Y-69376D01*
X75429Y-69395D01*
X75420Y-69414D01*
X75410Y-69423D01*
X75392Y-69432D01*
X75354Y-69442D01*
X75307Y-69442D01*
X75270Y-69432D01*
X75251Y-69423D01*
X75242Y-69414D01*
X75232Y-69395D01*
X75429Y-69245D02*
X75232Y-69245D01*
X75354Y-69226D02*
X75429Y-69170D01*
X75298Y-69170D02*
X75373Y-69245D01*
X82723Y-61604D02*
X82657Y-61510D01*
X82610Y-61604D02*
X82610Y-61407D01*
X82685Y-61407D01*
X82704Y-61417D01*
X82713Y-61426D01*
X82723Y-61445D01*
X82723Y-61473D01*
X82713Y-61492D01*
X82704Y-61501D01*
X82685Y-61510D01*
X82610Y-61510D01*
X82910Y-61604D02*
X82798Y-61604D01*
X82854Y-61604D02*
X82854Y-61407D01*
X82835Y-61435D01*
X82817Y-61454D01*
X82798Y-61464D01*
X82986Y-61426D02*
X82995Y-61417D01*
X83014Y-61407D01*
X83061Y-61407D01*
X83079Y-61417D01*
X83089Y-61426D01*
X83098Y-61445D01*
X83098Y-61464D01*
X83089Y-61492D01*
X82976Y-61604D01*
X83098Y-61604D01*
X82910Y-61879D02*
X82845Y-61785D01*
X82798Y-61879D02*
X82798Y-61682D01*
X82873Y-61682D01*
X82892Y-61692D01*
X82901Y-61701D01*
X82910Y-61720D01*
X82910Y-61748D01*
X82901Y-61767D01*
X82892Y-61776D01*
X82873Y-61785D01*
X82798Y-61785D01*
G54D22*
X75734Y-74825D02*
X75734Y-74144D01*
X75897Y-74144D01*
X75937Y-74177D01*
X75958Y-74209D01*
X75978Y-74274D01*
X75978Y-74371D01*
X75958Y-74436D01*
X75937Y-74468D01*
X75897Y-74501D01*
X75734Y-74501D01*
X76386Y-74825D02*
X76141Y-74825D01*
X76264Y-74825D02*
X76264Y-74144D01*
X76223Y-74241D01*
X76182Y-74306D01*
X76141Y-74339D01*
G54D17*
G54D23*
X78109Y-73592D02*
X78109Y-72992D01*
X78528Y-73535D02*
X78509Y-73564D01*
X78452Y-73592D01*
X78414Y-73592D01*
X78357Y-73564D01*
X78319Y-73507D01*
X78300Y-73450D01*
X78280Y-73335D01*
X78280Y-73250D01*
X78300Y-73135D01*
X78319Y-73078D01*
X78357Y-73021D01*
X78414Y-72992D01*
X78452Y-72992D01*
X78509Y-73021D01*
X78528Y-73050D01*
X78680Y-73564D02*
X78738Y-73592D01*
X78833Y-73592D01*
X78871Y-73564D01*
X78890Y-73535D01*
X78909Y-73478D01*
X78909Y-73421D01*
X78890Y-73364D01*
X78871Y-73335D01*
X78833Y-73307D01*
X78757Y-73278D01*
X78719Y-73250D01*
X78700Y-73221D01*
X78680Y-73164D01*
X78680Y-73107D01*
X78700Y-73050D01*
X78719Y-73021D01*
X78757Y-72992D01*
X78852Y-72992D01*
X78909Y-73021D01*
X79080Y-73592D02*
X79080Y-72992D01*
X79233Y-72992D01*
X79271Y-73021D01*
X79290Y-73050D01*
X79309Y-73107D01*
X79309Y-73192D01*
X79290Y-73250D01*
X79271Y-73278D01*
X79233Y-73307D01*
X79080Y-73307D01*
G54D24*
X82635Y-71662D02*
X81930Y-71662D01*
X82635Y-71420D02*
X82232Y-71602D01*
X81930Y-71420D02*
X82333Y-71662D01*
X82635Y-71016D02*
X82635Y-71259D01*
X82635Y-71138D02*
X81930Y-71138D01*
X82031Y-71178D01*
X82098Y-71218D01*
X82131Y-71259D01*
G54D17*
G54D23*
X83742Y-74909D02*
X83142Y-74909D01*
X83742Y-74680D01*
X83142Y-74680D01*
X83742Y-74490D02*
X83142Y-74490D01*
X83742Y-74299D02*
X83142Y-74299D01*
X83742Y-74071D02*
X83400Y-74242D01*
X83142Y-74071D02*
X83485Y-74299D01*
X83142Y-73823D02*
X83142Y-73747D01*
X83171Y-73709D01*
X83228Y-73671D01*
X83342Y-73652D01*
X83542Y-73652D01*
X83657Y-73671D01*
X83714Y-73709D01*
X83742Y-73747D01*
X83742Y-73823D01*
X83714Y-73861D01*
X83657Y-73899D01*
X83542Y-73919D01*
X83342Y-73919D01*
X83228Y-73899D01*
X83171Y-73861D01*
X83142Y-73823D01*
X83742Y-73480D02*
X83142Y-73480D01*
X83742Y-73252D01*
X83142Y-73252D01*
X83800Y-73157D02*
X83800Y-72852D01*
X83685Y-72528D02*
X83714Y-72547D01*
X83742Y-72604D01*
X83742Y-72642D01*
X83714Y-72699D01*
X83657Y-72738D01*
X83600Y-72757D01*
X83485Y-72776D01*
X83400Y-72776D01*
X83285Y-72757D01*
X83228Y-72738D01*
X83171Y-72699D01*
X83142Y-72642D01*
X83142Y-72604D01*
X83171Y-72547D01*
X83200Y-72528D01*
X83142Y-72280D02*
X83142Y-72204D01*
X83171Y-72166D01*
X83228Y-72128D01*
X83342Y-72109D01*
X83542Y-72109D01*
X83657Y-72128D01*
X83714Y-72166D01*
X83742Y-72204D01*
X83742Y-72280D01*
X83714Y-72319D01*
X83657Y-72357D01*
X83542Y-72376D01*
X83342Y-72376D01*
X83228Y-72357D01*
X83171Y-72319D01*
X83142Y-72280D01*
X83742Y-71938D02*
X83142Y-71938D01*
X83742Y-71709D01*
X83142Y-71709D01*
X83742Y-71519D02*
X83142Y-71519D01*
X83742Y-71290D01*
X83142Y-71290D01*
G54D22*
X73625Y-65715D02*
X72944Y-65715D01*
X72944Y-65552D01*
X72977Y-65512D01*
X73009Y-65491D01*
X73074Y-65471D01*
X73171Y-65471D01*
X73236Y-65491D01*
X73268Y-65512D01*
X73301Y-65552D01*
X73301Y-65715D01*
X73236Y-65226D02*
X73204Y-65267D01*
X73171Y-65287D01*
X73106Y-65308D01*
X73074Y-65308D01*
X73009Y-65287D01*
X72977Y-65267D01*
X72944Y-65226D01*
X72944Y-65145D01*
X72977Y-65104D01*
X73009Y-65084D01*
X73074Y-65063D01*
X73106Y-65063D01*
X73171Y-65084D01*
X73204Y-65104D01*
X73236Y-65145D01*
X73236Y-65226D01*
X73268Y-65267D01*
X73301Y-65287D01*
X73366Y-65308D01*
X73495Y-65308D01*
X73560Y-65287D01*
X73593Y-65267D01*
X73625Y-65226D01*
X73625Y-65145D01*
X73593Y-65104D01*
X73560Y-65084D01*
X73495Y-65063D01*
X73366Y-65063D01*
X73301Y-65084D01*
X73268Y-65104D01*
X73236Y-65145D01*
G54D17*
G54D23*
X74414Y-64433D02*
X74442Y-64376D01*
X74442Y-64280D01*
X74414Y-64242D01*
X74385Y-64223D01*
X74328Y-64204D01*
X74271Y-64204D01*
X74214Y-64223D01*
X74185Y-64242D01*
X74157Y-64280D01*
X74128Y-64357D01*
X74100Y-64395D01*
X74071Y-64414D01*
X74014Y-64433D01*
X73957Y-64433D01*
X73900Y-64414D01*
X73871Y-64395D01*
X73842Y-64357D01*
X73842Y-64261D01*
X73871Y-64204D01*
X73842Y-64071D02*
X74442Y-63976D01*
X74014Y-63900D01*
X74442Y-63823D01*
X73842Y-63728D01*
X73842Y-63614D02*
X73842Y-63366D01*
X74071Y-63499D01*
X74071Y-63442D01*
X74100Y-63404D01*
X74128Y-63385D01*
X74185Y-63366D01*
X74328Y-63366D01*
X74385Y-63385D01*
X74414Y-63404D01*
X74442Y-63442D01*
X74442Y-63557D01*
X74414Y-63595D01*
X74385Y-63614D01*
G54D22*
X73875Y-61515D02*
X73194Y-61515D01*
X73194Y-61414D01*
X73227Y-61352D01*
X73291Y-61312D01*
X73356Y-61291D01*
X73486Y-61271D01*
X73583Y-61271D01*
X73713Y-61291D01*
X73778Y-61312D01*
X73843Y-61352D01*
X73875Y-61414D01*
X73875Y-61515D01*
X73194Y-61128D02*
X73194Y-60863D01*
X73454Y-61006D01*
X73454Y-60945D01*
X73486Y-60904D01*
X73518Y-60884D01*
X73583Y-60863D01*
X73745Y-60863D01*
X73810Y-60884D01*
X73843Y-60904D01*
X73875Y-60945D01*
X73875Y-61067D01*
X73843Y-61108D01*
X73810Y-61128D01*
G54D17*
G54D23*
X74792Y-60047D02*
X74792Y-60238D01*
X74192Y-60238D01*
X74478Y-59914D02*
X74478Y-59780D01*
X74792Y-59723D02*
X74792Y-59914D01*
X74192Y-59914D01*
X74192Y-59723D01*
X74792Y-59552D02*
X74192Y-59552D01*
X74192Y-59457D01*
X74221Y-59400D01*
X74278Y-59361D01*
X74335Y-59342D01*
X74450Y-59323D01*
X74535Y-59323D01*
X74650Y-59342D01*
X74707Y-59361D01*
X74764Y-59400D01*
X74792Y-59457D01*
X74792Y-59552D01*
X74792Y-58942D02*
X74792Y-59171D01*
X74792Y-59057D02*
X74192Y-59057D01*
X74278Y-59095D01*
X74335Y-59133D01*
X74364Y-59171D01*
G54D22*
X89325Y-69965D02*
X88644Y-69965D01*
X88644Y-69864D01*
X88677Y-69802D01*
X88741Y-69762D01*
X88806Y-69741D01*
X88936Y-69721D01*
X89033Y-69721D01*
X89163Y-69741D01*
X89228Y-69762D01*
X89293Y-69802D01*
X89325Y-69864D01*
X89325Y-69965D01*
X88871Y-69354D02*
X89325Y-69354D01*
X88612Y-69456D02*
X89098Y-69558D01*
X89098Y-69293D01*
G54D17*
G54D23*
X88942Y-71697D02*
X88942Y-71888D01*
X88342Y-71888D01*
X88628Y-71564D02*
X88628Y-71430D01*
X88942Y-71373D02*
X88942Y-71564D01*
X88342Y-71564D01*
X88342Y-71373D01*
X88942Y-71202D02*
X88342Y-71202D01*
X88342Y-71107D01*
X88371Y-71050D01*
X88428Y-71011D01*
X88485Y-70992D01*
X88600Y-70973D01*
X88685Y-70973D01*
X88800Y-70992D01*
X88857Y-71011D01*
X88914Y-71050D01*
X88942Y-71107D01*
X88942Y-71202D01*
X88400Y-70821D02*
X88371Y-70802D01*
X88342Y-70764D01*
X88342Y-70669D01*
X88371Y-70630D01*
X88400Y-70611D01*
X88457Y-70592D01*
X88514Y-70592D01*
X88600Y-70611D01*
X88942Y-70840D01*
X88942Y-70592D01*
G54D22*
X85384Y-56625D02*
X85384Y-55944D01*
X85547Y-55944D01*
X85587Y-55977D01*
X85608Y-56009D01*
X85628Y-56074D01*
X85628Y-56171D01*
X85608Y-56236D01*
X85587Y-56268D01*
X85547Y-56301D01*
X85384Y-56301D01*
X85832Y-56625D02*
X85914Y-56625D01*
X85954Y-56593D01*
X85975Y-56560D01*
X86015Y-56463D01*
X86036Y-56333D01*
X86036Y-56074D01*
X86015Y-56009D01*
X85995Y-55977D01*
X85954Y-55944D01*
X85873Y-55944D01*
X85832Y-55977D01*
X85812Y-56009D01*
X85791Y-56074D01*
X85791Y-56236D01*
X85812Y-56301D01*
X85832Y-56333D01*
X85873Y-56366D01*
X85954Y-56366D01*
X85995Y-56333D01*
X86015Y-56301D01*
X86036Y-56236D01*
G54D17*
G54D23*
X84971Y-57178D02*
X85028Y-57207D01*
X85047Y-57235D01*
X85066Y-57292D01*
X85066Y-57378D01*
X85047Y-57435D01*
X85028Y-57464D01*
X84990Y-57492D01*
X84838Y-57492D01*
X84838Y-56892D01*
X84971Y-56892D01*
X85009Y-56921D01*
X85028Y-56950D01*
X85047Y-57007D01*
X85047Y-57064D01*
X85028Y-57121D01*
X85009Y-57150D01*
X84971Y-57178D01*
X84838Y-57178D01*
X85219Y-57321D02*
X85409Y-57321D01*
X85180Y-57492D02*
X85314Y-56892D01*
X85447Y-57492D01*
X85523Y-56892D02*
X85752Y-56892D01*
X85638Y-57492D02*
X85638Y-56892D01*
X85828Y-56892D02*
X86057Y-56892D01*
X85942Y-57492D02*
X85942Y-56892D01*
X86095Y-57550D02*
X86400Y-57550D01*
X86723Y-57435D02*
X86704Y-57464D01*
X86647Y-57492D01*
X86609Y-57492D01*
X86552Y-57464D01*
X86514Y-57407D01*
X86495Y-57350D01*
X86476Y-57235D01*
X86476Y-57150D01*
X86495Y-57035D01*
X86514Y-56978D01*
X86552Y-56921D01*
X86609Y-56892D01*
X86647Y-56892D01*
X86704Y-56921D01*
X86723Y-56950D01*
X86971Y-56892D02*
X87047Y-56892D01*
X87085Y-56921D01*
X87123Y-56978D01*
X87142Y-57092D01*
X87142Y-57292D01*
X87123Y-57407D01*
X87085Y-57464D01*
X87047Y-57492D01*
X86971Y-57492D01*
X86933Y-57464D01*
X86895Y-57407D01*
X86876Y-57292D01*
X86876Y-57092D01*
X86895Y-56978D01*
X86933Y-56921D01*
X86971Y-56892D01*
X87314Y-57492D02*
X87314Y-56892D01*
X87542Y-57492D01*
X87542Y-56892D01*
X87733Y-57492D02*
X87733Y-56892D01*
X87961Y-57492D01*
X87961Y-56892D01*
G54D22*
X73225Y-68815D02*
X72544Y-68815D01*
X72544Y-68652D01*
X72577Y-68612D01*
X72609Y-68591D01*
X72674Y-68571D01*
X72771Y-68571D01*
X72836Y-68591D01*
X72868Y-68612D01*
X72901Y-68652D01*
X72901Y-68815D01*
X72544Y-68428D02*
X72544Y-68143D01*
X73225Y-68326D01*
G54D17*
G54D23*
X74114Y-70283D02*
X74142Y-70226D01*
X74142Y-70130D01*
X74114Y-70092D01*
X74085Y-70073D01*
X74028Y-70054D01*
X73971Y-70054D01*
X73914Y-70073D01*
X73885Y-70092D01*
X73857Y-70130D01*
X73828Y-70207D01*
X73800Y-70245D01*
X73771Y-70264D01*
X73714Y-70283D01*
X73657Y-70283D01*
X73600Y-70264D01*
X73571Y-70245D01*
X73542Y-70207D01*
X73542Y-70111D01*
X73571Y-70054D01*
X73542Y-69921D02*
X74142Y-69826D01*
X73714Y-69750D01*
X74142Y-69673D01*
X73542Y-69578D01*
X73600Y-69445D02*
X73571Y-69426D01*
X73542Y-69388D01*
X73542Y-69292D01*
X73571Y-69254D01*
X73600Y-69235D01*
X73657Y-69216D01*
X73714Y-69216D01*
X73800Y-69235D01*
X74142Y-69464D01*
X74142Y-69216D01*
G54D22*
X74634Y-67625D02*
X74634Y-66944D01*
X74797Y-66944D01*
X74837Y-66977D01*
X74858Y-67009D01*
X74878Y-67074D01*
X74878Y-67171D01*
X74858Y-67236D01*
X74837Y-67268D01*
X74797Y-67301D01*
X74634Y-67301D01*
X75021Y-66944D02*
X75286Y-66944D01*
X75143Y-67204D01*
X75204Y-67204D01*
X75245Y-67236D01*
X75265Y-67268D01*
X75286Y-67333D01*
X75286Y-67495D01*
X75265Y-67560D01*
X75245Y-67593D01*
X75204Y-67625D01*
X75082Y-67625D01*
X75041Y-67593D01*
X75021Y-67560D01*
G54D17*
G54D23*
X72454Y-66592D02*
X72454Y-65992D01*
X72588Y-66421D01*
X72721Y-65992D01*
X72721Y-66592D01*
X72988Y-65992D02*
X73064Y-65992D01*
X73102Y-66021D01*
X73140Y-66078D01*
X73159Y-66192D01*
X73159Y-66392D01*
X73140Y-66507D01*
X73102Y-66564D01*
X73064Y-66592D01*
X72988Y-66592D01*
X72950Y-66564D01*
X72911Y-66507D01*
X72892Y-66392D01*
X72892Y-66192D01*
X72911Y-66078D01*
X72950Y-66021D01*
X72988Y-65992D01*
X73330Y-66592D02*
X73330Y-65992D01*
X73426Y-65992D01*
X73483Y-66021D01*
X73521Y-66078D01*
X73540Y-66135D01*
X73559Y-66250D01*
X73559Y-66335D01*
X73540Y-66450D01*
X73521Y-66507D01*
X73483Y-66564D01*
X73426Y-66592D01*
X73330Y-66592D01*
X73730Y-66278D02*
X73864Y-66278D01*
X73921Y-66592D02*
X73730Y-66592D01*
X73730Y-65992D01*
X73921Y-65992D01*
X73997Y-66650D02*
X74302Y-66650D01*
X74378Y-66564D02*
X74435Y-66592D01*
X74530Y-66592D01*
X74569Y-66564D01*
X74588Y-66535D01*
X74607Y-66478D01*
X74607Y-66421D01*
X74588Y-66364D01*
X74569Y-66335D01*
X74530Y-66307D01*
X74454Y-66278D01*
X74416Y-66250D01*
X74397Y-66221D01*
X74378Y-66164D01*
X74378Y-66107D01*
X74397Y-66050D01*
X74416Y-66021D01*
X74454Y-65992D01*
X74550Y-65992D01*
X74607Y-66021D01*
X74740Y-65992D02*
X74835Y-66592D01*
X74911Y-66164D01*
X74988Y-66592D01*
X75083Y-65992D01*
G54D22*
X89725Y-58819D02*
X89044Y-58819D01*
X89044Y-58656D01*
X89077Y-58615D01*
X89109Y-58595D01*
X89174Y-58575D01*
X89271Y-58575D01*
X89336Y-58595D01*
X89368Y-58615D01*
X89401Y-58656D01*
X89401Y-58819D01*
X89725Y-58167D02*
X89725Y-58412D01*
X89725Y-58289D02*
X89044Y-58289D01*
X89141Y-58330D01*
X89206Y-58371D01*
X89239Y-58412D01*
X89044Y-57902D02*
X89044Y-57861D01*
X89077Y-57821D01*
X89109Y-57800D01*
X89174Y-57780D01*
X89304Y-57759D01*
X89466Y-57759D01*
X89595Y-57780D01*
X89660Y-57800D01*
X89693Y-57821D01*
X89725Y-57861D01*
X89725Y-57902D01*
X89693Y-57943D01*
X89660Y-57963D01*
X89595Y-57984D01*
X89466Y-58004D01*
X89304Y-58004D01*
X89174Y-57984D01*
X89109Y-57963D01*
X89077Y-57943D01*
X89044Y-57902D01*
G54D17*
G54D23*
X88892Y-58104D02*
X88292Y-58104D01*
X88292Y-57952D01*
X88321Y-57914D01*
X88350Y-57895D01*
X88407Y-57876D01*
X88492Y-57876D01*
X88550Y-57895D01*
X88578Y-57914D01*
X88607Y-57952D01*
X88607Y-58104D01*
X88292Y-57742D02*
X88892Y-57647D01*
X88464Y-57571D01*
X88892Y-57495D01*
X88292Y-57400D01*
X88892Y-57019D02*
X88607Y-57152D01*
X88892Y-57247D02*
X88292Y-57247D01*
X88292Y-57095D01*
X88321Y-57057D01*
X88350Y-57038D01*
X88407Y-57019D01*
X88492Y-57019D01*
X88550Y-57038D01*
X88578Y-57057D01*
X88607Y-57095D01*
X88607Y-57247D01*
X88950Y-56942D02*
X88950Y-56638D01*
X88864Y-56561D02*
X88892Y-56504D01*
X88892Y-56409D01*
X88864Y-56371D01*
X88835Y-56352D01*
X88778Y-56333D01*
X88721Y-56333D01*
X88664Y-56352D01*
X88635Y-56371D01*
X88607Y-56409D01*
X88578Y-56485D01*
X88550Y-56523D01*
X88521Y-56542D01*
X88464Y-56561D01*
X88407Y-56561D01*
X88350Y-56542D01*
X88321Y-56523D01*
X88292Y-56485D01*
X88292Y-56390D01*
X88321Y-56333D01*
X88292Y-56200D02*
X88892Y-56104D01*
X88464Y-56028D01*
X88892Y-55952D01*
X88292Y-55857D01*
G54D22*
X75034Y-72225D02*
X75034Y-71544D01*
X75197Y-71544D01*
X75237Y-71577D01*
X75258Y-71609D01*
X75278Y-71674D01*
X75278Y-71771D01*
X75258Y-71836D01*
X75237Y-71868D01*
X75197Y-71901D01*
X75034Y-71901D01*
X75645Y-71771D02*
X75645Y-72225D01*
X75543Y-71512D02*
X75441Y-71998D01*
X75706Y-71998D01*
G54D17*
G54D23*
X73866Y-71164D02*
X73923Y-71192D01*
X74019Y-71192D01*
X74057Y-71164D01*
X74076Y-71135D01*
X74095Y-71078D01*
X74095Y-71021D01*
X74076Y-70964D01*
X74057Y-70935D01*
X74019Y-70907D01*
X73942Y-70878D01*
X73904Y-70850D01*
X73885Y-70821D01*
X73866Y-70764D01*
X73866Y-70707D01*
X73885Y-70650D01*
X73904Y-70621D01*
X73942Y-70592D01*
X74038Y-70592D01*
X74095Y-70621D01*
X74228Y-70592D02*
X74323Y-71192D01*
X74400Y-70764D01*
X74476Y-71192D01*
X74571Y-70592D01*
X74933Y-71192D02*
X74704Y-71192D01*
X74819Y-71192D02*
X74819Y-70592D01*
X74780Y-70678D01*
X74742Y-70735D01*
X74704Y-70764D01*
G54D10*
X88434Y-64159D02*
X88246Y-64159D01*
X88246Y-63765D01*
X88771Y-64159D02*
X88546Y-64159D01*
X88659Y-64159D02*
X88659Y-63765D01*
X88621Y-63821D01*
X88584Y-63859D01*
X88546Y-63878D01*
X87440Y-66459D02*
X87440Y-66065D01*
X87628Y-66459D02*
X87628Y-66065D01*
X87853Y-66459D01*
X87853Y-66065D01*
X88040Y-66459D02*
X88040Y-66065D01*
X88134Y-66065D01*
X88190Y-66084D01*
X88228Y-66121D01*
X88246Y-66159D01*
X88265Y-66234D01*
X88265Y-66290D01*
X88246Y-66365D01*
X88228Y-66403D01*
X88190Y-66440D01*
X88134Y-66459D01*
X88040Y-66459D01*
X88434Y-66065D02*
X88434Y-66384D01*
X88453Y-66421D01*
X88471Y-66440D01*
X88509Y-66459D01*
X88584Y-66459D01*
X88621Y-66440D01*
X88640Y-66421D01*
X88659Y-66384D01*
X88659Y-66065D01*
X89071Y-66421D02*
X89053Y-66440D01*
X88996Y-66459D01*
X88959Y-66459D01*
X88903Y-66440D01*
X88865Y-66403D01*
X88846Y-66365D01*
X88828Y-66290D01*
X88828Y-66234D01*
X88846Y-66159D01*
X88865Y-66121D01*
X88903Y-66084D01*
X88959Y-66065D01*
X88996Y-66065D01*
X89053Y-66084D01*
X89071Y-66103D01*
X89184Y-66065D02*
X89409Y-66065D01*
X89296Y-66459D02*
X89296Y-66065D01*
X89615Y-66065D02*
X89690Y-66065D01*
X89728Y-66084D01*
X89765Y-66121D01*
X89784Y-66196D01*
X89784Y-66328D01*
X89765Y-66403D01*
X89728Y-66440D01*
X89690Y-66459D01*
X89615Y-66459D01*
X89578Y-66440D01*
X89540Y-66403D01*
X89521Y-66328D01*
X89521Y-66196D01*
X89540Y-66121D01*
X89578Y-66084D01*
X89615Y-66065D01*
X90177Y-66459D02*
X90046Y-66271D01*
X89952Y-66459D02*
X89952Y-66065D01*
X90102Y-66065D01*
X90140Y-66084D01*
X90159Y-66103D01*
X90177Y-66140D01*
X90177Y-66196D01*
X90159Y-66234D01*
X90140Y-66253D01*
X90102Y-66271D01*
X89952Y-66271D01*
G54D17*
X82792Y-68935D02*
X83392Y-68535D01*
X82792Y-68535D02*
X83392Y-68935D01*
X83392Y-67992D02*
X83392Y-68335D01*
X83392Y-68164D02*
X82792Y-68164D01*
X82878Y-68221D01*
X82935Y-68278D01*
X82964Y-68335D01*
X86185Y-71635D02*
X86214Y-71664D01*
X86242Y-71750D01*
X86242Y-71807D01*
X86214Y-71892D01*
X86157Y-71950D01*
X86100Y-71978D01*
X85985Y-72007D01*
X85900Y-72007D01*
X85785Y-71978D01*
X85728Y-71950D01*
X85671Y-71892D01*
X85642Y-71807D01*
X85642Y-71750D01*
X85671Y-71664D01*
X85700Y-71635D01*
X86242Y-71035D02*
X85957Y-71235D01*
X86242Y-71378D02*
X85642Y-71378D01*
X85642Y-71150D01*
X85671Y-71092D01*
X85700Y-71064D01*
X85757Y-71035D01*
X85842Y-71035D01*
X85900Y-71064D01*
X85928Y-71092D01*
X85957Y-71150D01*
X85957Y-71378D01*
X85957Y-70664D02*
X86242Y-70664D01*
X85642Y-70864D02*
X85957Y-70664D01*
X85642Y-70464D01*
X86214Y-70292D02*
X86242Y-70207D01*
X86242Y-70064D01*
X86214Y-70007D01*
X86185Y-69978D01*
X86128Y-69950D01*
X86071Y-69950D01*
X86014Y-69978D01*
X85985Y-70007D01*
X85957Y-70064D01*
X85928Y-70178D01*
X85900Y-70235D01*
X85871Y-70264D01*
X85814Y-70292D01*
X85757Y-70292D01*
X85700Y-70264D01*
X85671Y-70235D01*
X85642Y-70178D01*
X85642Y-70035D01*
X85671Y-69950D01*
X85642Y-69778D02*
X85642Y-69435D01*
X86242Y-69607D02*
X85642Y-69607D01*
X86071Y-69264D02*
X86071Y-68978D01*
X86242Y-69321D02*
X85642Y-69121D01*
X86242Y-68921D01*
X86242Y-68435D02*
X86242Y-68721D01*
X85642Y-68721D01*
G54D10*
X78700Y-58665D02*
X78700Y-58984D01*
X78718Y-59021D01*
X78737Y-59040D01*
X78775Y-59059D01*
X78850Y-59059D01*
X78887Y-59040D01*
X78906Y-59021D01*
X78925Y-58984D01*
X78925Y-58665D01*
X79093Y-58703D02*
X79112Y-58684D01*
X79149Y-58665D01*
X79243Y-58665D01*
X79281Y-58684D01*
X79299Y-58703D01*
X79318Y-58740D01*
X79318Y-58778D01*
X79299Y-58834D01*
X79074Y-59059D01*
X79318Y-59059D01*
X77428Y-58153D02*
X77559Y-58153D01*
X77615Y-58359D02*
X77428Y-58359D01*
X77428Y-57965D01*
X77615Y-57965D01*
X77990Y-57984D02*
X77953Y-57965D01*
X77897Y-57965D01*
X77840Y-57984D01*
X77803Y-58021D01*
X77784Y-58059D01*
X77765Y-58134D01*
X77765Y-58190D01*
X77784Y-58265D01*
X77803Y-58303D01*
X77840Y-58340D01*
X77897Y-58359D01*
X77934Y-58359D01*
X77990Y-58340D01*
X78009Y-58321D01*
X78009Y-58190D01*
X77934Y-58190D01*
X78309Y-58153D02*
X78365Y-58171D01*
X78384Y-58190D01*
X78403Y-58228D01*
X78403Y-58284D01*
X78384Y-58321D01*
X78365Y-58340D01*
X78328Y-58359D01*
X78178Y-58359D01*
X78178Y-57965D01*
X78309Y-57965D01*
X78346Y-57984D01*
X78365Y-58003D01*
X78384Y-58040D01*
X78384Y-58078D01*
X78365Y-58115D01*
X78346Y-58134D01*
X78309Y-58153D01*
X78178Y-58153D01*
X78515Y-57965D02*
X78740Y-57965D01*
X78628Y-58359D02*
X78628Y-57965D01*
X78871Y-58209D02*
X79171Y-58209D01*
X79434Y-57965D02*
X79471Y-57965D01*
X79509Y-57984D01*
X79528Y-58003D01*
X79546Y-58040D01*
X79565Y-58115D01*
X79565Y-58209D01*
X79546Y-58284D01*
X79528Y-58321D01*
X79509Y-58340D01*
X79471Y-58359D01*
X79434Y-58359D01*
X79396Y-58340D01*
X79378Y-58321D01*
X79359Y-58284D01*
X79340Y-58209D01*
X79340Y-58115D01*
X79359Y-58040D01*
X79378Y-58003D01*
X79396Y-57984D01*
X79434Y-57965D01*
X79903Y-58096D02*
X79903Y-58359D01*
X79809Y-57946D02*
X79715Y-58228D01*
X79959Y-58228D01*
X80277Y-57965D02*
X80202Y-57965D01*
X80165Y-57984D01*
X80146Y-58003D01*
X80109Y-58059D01*
X80090Y-58134D01*
X80090Y-58284D01*
X80109Y-58321D01*
X80127Y-58340D01*
X80165Y-58359D01*
X80240Y-58359D01*
X80277Y-58340D01*
X80296Y-58321D01*
X80315Y-58284D01*
X80315Y-58190D01*
X80296Y-58153D01*
X80277Y-58134D01*
X80240Y-58115D01*
X80165Y-58115D01*
X80127Y-58134D01*
X80109Y-58153D01*
X80090Y-58190D01*
X80465Y-58340D02*
X80521Y-58359D01*
X80615Y-58359D01*
X80652Y-58340D01*
X80671Y-58321D01*
X80690Y-58284D01*
X80690Y-58246D01*
X80671Y-58209D01*
X80652Y-58190D01*
X80615Y-58171D01*
X80540Y-58153D01*
X80502Y-58134D01*
X80484Y-58115D01*
X80465Y-58078D01*
X80465Y-58040D01*
X80484Y-58003D01*
X80502Y-57984D01*
X80540Y-57965D01*
X80634Y-57965D01*
X80690Y-57984D01*
G54D23*
X85404Y-60941D02*
X85428Y-60967D01*
X85452Y-61046D01*
X85452Y-61098D01*
X85428Y-61177D01*
X85380Y-61229D01*
X85333Y-61255D01*
X85238Y-61282D01*
X85166Y-61282D01*
X85071Y-61255D01*
X85023Y-61229D01*
X84976Y-61177D01*
X84952Y-61098D01*
X84952Y-61046D01*
X84976Y-60967D01*
X85000Y-60941D01*
X85166Y-60627D02*
X85142Y-60679D01*
X85119Y-60705D01*
X85071Y-60732D01*
X85047Y-60732D01*
X85000Y-60705D01*
X84976Y-60679D01*
X84952Y-60627D01*
X84952Y-60522D01*
X84976Y-60470D01*
X85000Y-60444D01*
X85047Y-60417D01*
X85071Y-60417D01*
X85119Y-60444D01*
X85142Y-60470D01*
X85166Y-60522D01*
X85166Y-60627D01*
X85190Y-60679D01*
X85214Y-60705D01*
X85261Y-60732D01*
X85357Y-60732D01*
X85404Y-60705D01*
X85428Y-60679D01*
X85452Y-60627D01*
X85452Y-60522D01*
X85428Y-60470D01*
X85404Y-60444D01*
X85357Y-60417D01*
X85261Y-60417D01*
X85214Y-60444D01*
X85190Y-60470D01*
X85166Y-60522D01*
X88904Y-60941D02*
X88928Y-60967D01*
X88952Y-61046D01*
X88952Y-61098D01*
X88928Y-61177D01*
X88880Y-61229D01*
X88833Y-61255D01*
X88738Y-61282D01*
X88666Y-61282D01*
X88571Y-61255D01*
X88523Y-61229D01*
X88476Y-61177D01*
X88452Y-61098D01*
X88452Y-61046D01*
X88476Y-60967D01*
X88500Y-60941D01*
X88952Y-60679D02*
X88952Y-60575D01*
X88928Y-60522D01*
X88904Y-60496D01*
X88833Y-60444D01*
X88738Y-60417D01*
X88547Y-60417D01*
X88500Y-60444D01*
X88476Y-60470D01*
X88452Y-60522D01*
X88452Y-60627D01*
X88476Y-60679D01*
X88500Y-60705D01*
X88547Y-60732D01*
X88666Y-60732D01*
X88714Y-60705D01*
X88738Y-60679D01*
X88761Y-60627D01*
X88761Y-60522D01*
X88738Y-60470D01*
X88714Y-60444D01*
X88666Y-60417D01*
G54D25*
X87230Y-71676D02*
X87224Y-71682D01*
X87207Y-71687D01*
X87196Y-71687D01*
X87179Y-71682D01*
X87168Y-71670D01*
X87162Y-71659D01*
X87157Y-71637D01*
X87157Y-71620D01*
X87162Y-71597D01*
X87168Y-71586D01*
X87179Y-71575D01*
X87196Y-71569D01*
X87207Y-71569D01*
X87224Y-71575D01*
X87230Y-71581D01*
X87275Y-71581D02*
X87280Y-71575D01*
X87292Y-71569D01*
X87320Y-71569D01*
X87331Y-71575D01*
X87337Y-71581D01*
X87342Y-71592D01*
X87342Y-71603D01*
X87337Y-71620D01*
X87269Y-71687D01*
X87342Y-71687D01*
X76026Y-62769D02*
X76032Y-62775D01*
X76037Y-62792D01*
X76037Y-62803D01*
X76032Y-62820D01*
X76020Y-62831D01*
X76009Y-62837D01*
X75987Y-62842D01*
X75970Y-62842D01*
X75947Y-62837D01*
X75936Y-62831D01*
X75925Y-62820D01*
X75919Y-62803D01*
X75919Y-62792D01*
X75925Y-62775D01*
X75931Y-62769D01*
X75919Y-62662D02*
X75919Y-62719D01*
X75975Y-62724D01*
X75970Y-62719D01*
X75964Y-62707D01*
X75964Y-62679D01*
X75970Y-62668D01*
X75975Y-62662D01*
X75987Y-62657D01*
X76015Y-62657D01*
X76026Y-62662D01*
X76032Y-62668D01*
X76037Y-62679D01*
X76037Y-62707D01*
X76032Y-62719D01*
X76026Y-62724D01*
X80480Y-71146D02*
X80474Y-71152D01*
X80457Y-71157D01*
X80446Y-71157D01*
X80429Y-71152D01*
X80418Y-71140D01*
X80412Y-71129D01*
X80407Y-71107D01*
X80407Y-71090D01*
X80412Y-71067D01*
X80418Y-71056D01*
X80429Y-71045D01*
X80446Y-71039D01*
X80457Y-71039D01*
X80474Y-71045D01*
X80480Y-71051D01*
X80581Y-71079D02*
X80581Y-71157D01*
X80553Y-71034D02*
X80525Y-71118D01*
X80598Y-71118D01*
X87230Y-69676D02*
X87224Y-69682D01*
X87207Y-69687D01*
X87196Y-69687D01*
X87179Y-69682D01*
X87168Y-69670D01*
X87162Y-69659D01*
X87157Y-69637D01*
X87157Y-69620D01*
X87162Y-69597D01*
X87168Y-69586D01*
X87179Y-69575D01*
X87196Y-69569D01*
X87207Y-69569D01*
X87224Y-69575D01*
X87230Y-69581D01*
X87269Y-69569D02*
X87342Y-69569D01*
X87303Y-69614D01*
X87320Y-69614D01*
X87331Y-69620D01*
X87337Y-69625D01*
X87342Y-69637D01*
X87342Y-69665D01*
X87337Y-69676D01*
X87331Y-69682D01*
X87320Y-69687D01*
X87286Y-69687D01*
X87275Y-69682D01*
X87269Y-69676D01*
X87230Y-67376D02*
X87224Y-67382D01*
X87207Y-67387D01*
X87196Y-67387D01*
X87179Y-67382D01*
X87168Y-67370D01*
X87162Y-67359D01*
X87157Y-67337D01*
X87157Y-67320D01*
X87162Y-67297D01*
X87168Y-67286D01*
X87179Y-67275D01*
X87196Y-67269D01*
X87207Y-67269D01*
X87224Y-67275D01*
X87230Y-67281D01*
X87342Y-67387D02*
X87275Y-67387D01*
X87309Y-67387D02*
X87309Y-67269D01*
X87297Y-67286D01*
X87286Y-67297D01*
X87275Y-67303D01*
G54D10*
X85376Y-64241D02*
X84982Y-64241D01*
X84982Y-64147D01*
X85001Y-64091D01*
X85038Y-64054D01*
X85076Y-64035D01*
X85151Y-64016D01*
X85207Y-64016D01*
X85282Y-64035D01*
X85320Y-64054D01*
X85357Y-64091D01*
X85376Y-64147D01*
X85376Y-64241D01*
X84982Y-63679D02*
X84982Y-63754D01*
X85001Y-63791D01*
X85020Y-63810D01*
X85076Y-63847D01*
X85151Y-63866D01*
X85301Y-63866D01*
X85338Y-63847D01*
X85357Y-63829D01*
X85376Y-63791D01*
X85376Y-63716D01*
X85357Y-63679D01*
X85338Y-63660D01*
X85301Y-63641D01*
X85207Y-63641D01*
X85170Y-63660D01*
X85151Y-63679D01*
X85132Y-63716D01*
X85132Y-63791D01*
X85151Y-63829D01*
X85170Y-63847D01*
X85207Y-63866D01*
X84265Y-63968D02*
X84265Y-63931D01*
X84284Y-63893D01*
X84303Y-63875D01*
X84340Y-63856D01*
X84415Y-63837D01*
X84509Y-63837D01*
X84584Y-63856D01*
X84621Y-63875D01*
X84640Y-63893D01*
X84659Y-63931D01*
X84659Y-63968D01*
X84640Y-64006D01*
X84621Y-64024D01*
X84584Y-64043D01*
X84509Y-64062D01*
X84415Y-64062D01*
X84340Y-64043D01*
X84303Y-64024D01*
X84284Y-64006D01*
X84265Y-63968D01*
G54D23*
X81876Y-63692D02*
X81933Y-63711D01*
X82028Y-63711D01*
X82066Y-63692D01*
X82085Y-63673D01*
X82104Y-63635D01*
X82104Y-63597D01*
X82085Y-63559D01*
X82066Y-63540D01*
X82028Y-63521D01*
X81952Y-63502D01*
X81914Y-63483D01*
X81895Y-63464D01*
X81876Y-63426D01*
X81876Y-63388D01*
X81895Y-63350D01*
X81914Y-63330D01*
X81952Y-63311D01*
X82047Y-63311D01*
X82104Y-63330D01*
X82504Y-63673D02*
X82485Y-63692D01*
X82428Y-63711D01*
X82390Y-63711D01*
X82333Y-63692D01*
X82295Y-63654D01*
X82276Y-63616D01*
X82257Y-63540D01*
X82257Y-63483D01*
X82276Y-63407D01*
X82295Y-63369D01*
X82333Y-63330D01*
X82390Y-63311D01*
X82428Y-63311D01*
X82485Y-63330D01*
X82504Y-63350D01*
X82904Y-63711D02*
X82771Y-63521D01*
X82676Y-63711D02*
X82676Y-63311D01*
X82828Y-63311D01*
X82866Y-63330D01*
X82885Y-63350D01*
X82904Y-63388D01*
X82904Y-63445D01*
X82885Y-63483D01*
X82866Y-63502D01*
X82828Y-63521D01*
X82676Y-63521D01*
X83076Y-63502D02*
X83209Y-63502D01*
X83266Y-63711D02*
X83076Y-63711D01*
X83076Y-63311D01*
X83266Y-63311D01*
X83400Y-63311D02*
X83495Y-63711D01*
X83571Y-63426D01*
X83647Y-63711D01*
X83742Y-63311D01*
X75276Y-73142D02*
X75333Y-73161D01*
X75428Y-73161D01*
X75466Y-73142D01*
X75485Y-73123D01*
X75504Y-73085D01*
X75504Y-73047D01*
X75485Y-73009D01*
X75466Y-72990D01*
X75428Y-72971D01*
X75352Y-72952D01*
X75314Y-72933D01*
X75295Y-72914D01*
X75276Y-72876D01*
X75276Y-72838D01*
X75295Y-72800D01*
X75314Y-72780D01*
X75352Y-72761D01*
X75447Y-72761D01*
X75504Y-72780D01*
X75904Y-73123D02*
X75885Y-73142D01*
X75828Y-73161D01*
X75790Y-73161D01*
X75733Y-73142D01*
X75695Y-73104D01*
X75676Y-73066D01*
X75657Y-72990D01*
X75657Y-72933D01*
X75676Y-72857D01*
X75695Y-72819D01*
X75733Y-72780D01*
X75790Y-72761D01*
X75828Y-72761D01*
X75885Y-72780D01*
X75904Y-72800D01*
X76304Y-73161D02*
X76171Y-72971D01*
X76076Y-73161D02*
X76076Y-72761D01*
X76228Y-72761D01*
X76266Y-72780D01*
X76285Y-72800D01*
X76304Y-72838D01*
X76304Y-72895D01*
X76285Y-72933D01*
X76266Y-72952D01*
X76228Y-72971D01*
X76076Y-72971D01*
X76476Y-72952D02*
X76609Y-72952D01*
X76666Y-73161D02*
X76476Y-73161D01*
X76476Y-72761D01*
X76666Y-72761D01*
X76800Y-72761D02*
X76895Y-73161D01*
X76971Y-72876D01*
X77047Y-73161D01*
X77142Y-72761D01*
X87276Y-72442D02*
X87333Y-72461D01*
X87428Y-72461D01*
X87466Y-72442D01*
X87485Y-72423D01*
X87504Y-72385D01*
X87504Y-72347D01*
X87485Y-72309D01*
X87466Y-72290D01*
X87428Y-72271D01*
X87352Y-72252D01*
X87314Y-72233D01*
X87295Y-72214D01*
X87276Y-72176D01*
X87276Y-72138D01*
X87295Y-72100D01*
X87314Y-72080D01*
X87352Y-72061D01*
X87447Y-72061D01*
X87504Y-72080D01*
X87904Y-72423D02*
X87885Y-72442D01*
X87828Y-72461D01*
X87790Y-72461D01*
X87733Y-72442D01*
X87695Y-72404D01*
X87676Y-72366D01*
X87657Y-72290D01*
X87657Y-72233D01*
X87676Y-72157D01*
X87695Y-72119D01*
X87733Y-72080D01*
X87790Y-72061D01*
X87828Y-72061D01*
X87885Y-72080D01*
X87904Y-72100D01*
X88304Y-72461D02*
X88171Y-72271D01*
X88076Y-72461D02*
X88076Y-72061D01*
X88228Y-72061D01*
X88266Y-72080D01*
X88285Y-72100D01*
X88304Y-72138D01*
X88304Y-72195D01*
X88285Y-72233D01*
X88266Y-72252D01*
X88228Y-72271D01*
X88076Y-72271D01*
X88476Y-72252D02*
X88609Y-72252D01*
X88666Y-72461D02*
X88476Y-72461D01*
X88476Y-72061D01*
X88666Y-72061D01*
X88800Y-72061D02*
X88895Y-72461D01*
X88971Y-72176D01*
X89047Y-72461D01*
X89142Y-72061D01*
M02*
