G04 (created by PCBNEW (2013-07-07 BZR 4022)-stable) date 24/06/2015 00:02:37*
%MOIN*%
G04 Gerber Fmt 3.4, Leading zero omitted, Abs format*
%FSLAX34Y34*%
G01*
G70*
G90*
G04 APERTURE LIST*
%ADD10C,0.00590551*%
%ADD11R,0.0423228X0.0106299*%
%ADD12R,0.0358268X0.0480315*%
%ADD13R,0.055X0.035*%
%ADD14R,0.035X0.055*%
%ADD15R,0.055X0.055*%
%ADD16C,0.055*%
%ADD17C,0.056*%
%ADD18R,0.059X0.0512*%
%ADD19R,0.0512X0.059*%
%ADD20C,0.165354*%
%ADD21C,0.19685*%
%ADD22C,0.177165*%
%ADD23C,0.035*%
%ADD24C,0.00787402*%
G04 APERTURE END LIST*
G54D10*
G54D11*
X86167Y-60343D03*
X86167Y-60146D03*
X86167Y-59950D03*
X86167Y-59753D03*
X86167Y-59556D03*
X87732Y-59556D03*
X87732Y-59753D03*
X87732Y-59950D03*
X87732Y-60146D03*
X87732Y-60343D03*
G54D12*
X86095Y-68150D03*
X84804Y-68150D03*
X86095Y-66950D03*
X84804Y-66950D03*
G54D13*
X76050Y-66975D03*
X76050Y-66225D03*
X84150Y-58075D03*
X84150Y-57325D03*
G54D14*
X86575Y-58000D03*
X87325Y-58000D03*
G54D13*
X75250Y-68975D03*
X75250Y-68225D03*
X82450Y-60325D03*
X82450Y-59575D03*
X89650Y-59475D03*
X89650Y-60225D03*
X74350Y-69775D03*
X74350Y-69025D03*
X78300Y-62275D03*
X78300Y-61525D03*
G54D15*
X81100Y-74350D03*
G54D16*
X80100Y-74350D03*
X79100Y-74350D03*
X78100Y-74350D03*
X77100Y-74350D03*
G54D15*
X82450Y-72400D03*
G54D16*
X82450Y-73400D03*
X82450Y-74400D03*
G54D15*
X73200Y-63400D03*
G54D16*
X73200Y-64400D03*
G54D15*
X73550Y-59100D03*
G54D16*
X73550Y-60100D03*
G54D15*
X89600Y-70650D03*
G54D16*
X89600Y-71650D03*
G54D15*
X87750Y-56200D03*
G54D16*
X86750Y-56200D03*
G54D15*
X72900Y-70450D03*
G54D16*
X72900Y-69450D03*
G54D15*
X72950Y-67350D03*
G54D16*
X73950Y-67350D03*
G54D15*
X89550Y-57150D03*
G54D16*
X89550Y-56150D03*
G54D15*
X74350Y-71900D03*
G54D16*
X73350Y-71900D03*
G54D17*
X84500Y-71250D03*
X84500Y-69250D03*
G54D15*
X85250Y-58650D03*
G54D16*
X85250Y-62650D03*
G54D15*
X88750Y-58650D03*
G54D16*
X88750Y-62650D03*
G54D18*
X82800Y-57325D03*
X82800Y-56575D03*
G54D19*
X83425Y-58450D03*
X82675Y-58450D03*
G54D20*
X82000Y-64750D03*
G54D21*
X74450Y-73700D03*
G54D22*
X89350Y-73350D03*
G54D23*
X82450Y-67000D03*
X74600Y-62350D03*
X75150Y-70450D03*
X81600Y-73100D03*
X81650Y-71000D03*
X76150Y-73400D03*
X86950Y-70250D03*
X88650Y-66850D03*
X73500Y-57700D03*
X78550Y-57700D03*
X79050Y-66500D03*
X79000Y-69550D03*
X78950Y-65350D03*
X87800Y-61000D03*
X86000Y-61150D03*
X82950Y-60800D03*
X84300Y-60700D03*
X85550Y-66150D03*
X75500Y-65850D03*
X75250Y-67700D03*
X75400Y-59950D03*
X76500Y-64150D03*
X87000Y-60350D03*
X88800Y-59650D03*
X74350Y-68400D03*
G54D24*
X80100Y-73750D02*
X80100Y-73150D01*
X75150Y-71700D02*
X75150Y-71600D01*
X76250Y-72800D02*
X75150Y-71700D01*
X79750Y-72800D02*
X76250Y-72800D01*
X80100Y-73150D02*
X79750Y-72800D01*
X76050Y-66975D02*
X75325Y-66975D01*
X74600Y-66250D02*
X74600Y-62350D01*
X75325Y-66975D02*
X74600Y-66250D01*
X76600Y-67000D02*
X76075Y-67000D01*
X76075Y-67000D02*
X76050Y-66975D01*
X82450Y-67000D02*
X76600Y-67000D01*
X76600Y-67000D02*
X76550Y-67000D01*
X75250Y-68975D02*
X75250Y-70350D01*
X75250Y-70350D02*
X75150Y-70450D01*
X74350Y-69775D02*
X74350Y-70000D01*
X74800Y-70450D02*
X75150Y-70450D01*
X74350Y-70000D02*
X74800Y-70450D01*
X75150Y-71550D02*
X75150Y-70450D01*
X75150Y-71600D02*
X75150Y-71550D01*
X80100Y-74350D02*
X80100Y-73750D01*
X81650Y-71000D02*
X81650Y-73050D01*
X81650Y-73050D02*
X81600Y-73100D01*
X82450Y-70200D02*
X81650Y-71000D01*
X82450Y-67000D02*
X82450Y-70200D01*
X86167Y-59556D02*
X86006Y-59556D01*
X85250Y-58800D02*
X85250Y-58650D01*
X86006Y-59556D02*
X85250Y-58800D01*
X86575Y-58000D02*
X86350Y-58000D01*
X86167Y-58182D02*
X86167Y-59556D01*
X86350Y-58000D02*
X86167Y-58182D01*
X87250Y-61150D02*
X87250Y-60826D01*
X87250Y-61650D02*
X87250Y-61150D01*
X87250Y-60826D02*
X87732Y-60343D01*
X87250Y-61650D02*
X89850Y-61650D01*
X90150Y-61350D02*
X90150Y-60700D01*
X89850Y-61650D02*
X90150Y-61350D01*
X87325Y-58000D02*
X87450Y-58000D01*
X87450Y-58000D02*
X88800Y-56650D01*
X88800Y-56650D02*
X90000Y-56650D01*
X90000Y-56650D02*
X90150Y-56800D01*
X90150Y-56800D02*
X90150Y-60700D01*
X86095Y-68150D02*
X86800Y-68150D01*
X87250Y-67700D02*
X87250Y-61650D01*
X86800Y-68150D02*
X87250Y-67700D01*
X79100Y-74350D02*
X79100Y-73800D01*
X78700Y-73400D02*
X76150Y-73400D01*
X79100Y-73800D02*
X78700Y-73400D01*
X78550Y-57700D02*
X81900Y-57700D01*
X81900Y-57700D02*
X82150Y-57950D01*
X86950Y-70250D02*
X87000Y-70250D01*
X88350Y-71650D02*
X86950Y-70250D01*
X89600Y-71650D02*
X88350Y-71650D01*
X88350Y-67150D02*
X88650Y-66850D01*
X88350Y-68900D02*
X88350Y-67150D01*
X87000Y-70250D02*
X88350Y-68900D01*
X78550Y-57700D02*
X73500Y-57700D01*
X74350Y-71900D02*
X74350Y-71300D01*
X73500Y-70450D02*
X72900Y-70450D01*
X74350Y-71300D02*
X73500Y-70450D01*
X86167Y-59753D02*
X84753Y-59753D01*
X85200Y-56400D02*
X85400Y-56200D01*
X85200Y-57600D02*
X85200Y-56400D01*
X84700Y-58100D02*
X85200Y-57600D01*
X84700Y-58550D02*
X84700Y-58100D01*
X84550Y-58700D02*
X84700Y-58550D01*
X84550Y-59550D02*
X84550Y-58700D01*
X84753Y-59753D02*
X84550Y-59550D01*
X83600Y-61000D02*
X83600Y-59850D01*
X83325Y-59575D02*
X82975Y-59575D01*
X83600Y-59850D02*
X83325Y-59575D01*
X82450Y-59575D02*
X82975Y-59575D01*
X84250Y-62650D02*
X85250Y-62650D01*
X83950Y-62350D02*
X84250Y-62650D01*
X83950Y-61350D02*
X83950Y-62350D01*
X83600Y-61000D02*
X83950Y-61350D01*
X86750Y-56200D02*
X85400Y-56200D01*
X85400Y-56200D02*
X83175Y-56200D01*
X83175Y-56200D02*
X82800Y-56575D01*
X82450Y-59575D02*
X82450Y-58675D01*
X82450Y-58675D02*
X82675Y-58450D01*
X82675Y-58450D02*
X82650Y-58450D01*
X82650Y-58450D02*
X82150Y-57950D01*
X82150Y-57950D02*
X82150Y-56850D01*
X82425Y-56575D02*
X82800Y-56575D01*
X82150Y-56850D02*
X82425Y-56575D01*
X84804Y-68150D02*
X84650Y-68150D01*
X83000Y-66500D02*
X79050Y-66500D01*
X84650Y-68150D02*
X83000Y-66500D01*
X84804Y-66950D02*
X84804Y-68150D01*
X79000Y-71850D02*
X79000Y-71900D01*
X79000Y-69550D02*
X79000Y-71850D01*
X80300Y-72400D02*
X81100Y-73200D01*
X81100Y-73200D02*
X81100Y-74350D01*
X79500Y-72400D02*
X80300Y-72400D01*
X79000Y-71900D02*
X79500Y-72400D01*
X78300Y-62275D02*
X78300Y-64700D01*
X78300Y-64700D02*
X78950Y-65350D01*
X78300Y-61525D02*
X78300Y-60650D01*
X76750Y-59100D02*
X73550Y-59100D01*
X78300Y-60650D02*
X76750Y-59100D01*
X88750Y-58650D02*
X88638Y-58650D01*
X88638Y-58650D02*
X87732Y-59556D01*
X89650Y-59475D02*
X89575Y-59475D01*
X89575Y-59475D02*
X88750Y-58650D01*
X89650Y-59475D02*
X89650Y-57250D01*
X89650Y-57250D02*
X89550Y-57150D01*
X84400Y-60700D02*
X84300Y-60700D01*
X89650Y-60700D02*
X89350Y-61000D01*
X89350Y-61000D02*
X87800Y-61000D01*
X86000Y-61150D02*
X85550Y-60700D01*
X85550Y-60700D02*
X84400Y-60700D01*
X89650Y-60225D02*
X89650Y-60700D01*
X82475Y-60325D02*
X82450Y-60325D01*
X82950Y-60800D02*
X82475Y-60325D01*
X89650Y-60225D02*
X89025Y-60225D01*
X88946Y-60146D02*
X87732Y-60146D01*
X89025Y-60225D02*
X88946Y-60146D01*
X84300Y-59750D02*
X84200Y-59650D01*
X84300Y-59750D02*
X84696Y-60146D01*
X86167Y-60146D02*
X84696Y-60146D01*
X84200Y-58125D02*
X84150Y-58075D01*
X84200Y-59650D02*
X84200Y-58125D01*
X83425Y-58450D02*
X83450Y-58450D01*
X83825Y-58075D02*
X84150Y-58075D01*
X83450Y-58450D02*
X83825Y-58075D01*
X86095Y-66695D02*
X86095Y-66950D01*
X85550Y-66150D02*
X86095Y-66695D01*
X76050Y-66225D02*
X75875Y-66225D01*
X75875Y-66225D02*
X75500Y-65850D01*
X75250Y-68225D02*
X75250Y-67700D01*
X89550Y-56150D02*
X87800Y-56150D01*
X87800Y-56150D02*
X87750Y-56200D01*
X75400Y-63050D02*
X75400Y-59950D01*
X76500Y-64150D02*
X75400Y-63050D01*
X84150Y-57325D02*
X82800Y-57325D01*
X86993Y-60343D02*
X86167Y-60343D01*
X87000Y-60350D02*
X86993Y-60343D01*
X87732Y-59753D02*
X88696Y-59753D01*
X88696Y-59753D02*
X88800Y-59650D01*
X72900Y-69450D02*
X72900Y-69400D01*
X73900Y-68400D02*
X74350Y-68400D01*
X72900Y-69400D02*
X73900Y-68400D01*
X74350Y-69025D02*
X74350Y-68400D01*
M02*
