G04 (created by PCBNEW (2013-07-07 BZR 4022)-stable) date 24/06/2015 00:02:37*
%MOIN*%
G04 Gerber Fmt 3.4, Leading zero omitted, Abs format*
%FSLAX34Y34*%
G01*
G70*
G90*
G04 APERTURE LIST*
%ADD10C,0.00590551*%
%ADD11C,0.00885827*%
%ADD12C,0.00984252*%
%ADD13C,0.0039*%
%ADD14C,0.005*%
%ADD15C,0.0043*%
%ADD16C,0.0024*%
G04 APERTURE END LIST*
G54D10*
G54D11*
X89785Y-74507D02*
X89718Y-74743D01*
X89650Y-74574D01*
X89583Y-74743D01*
X89515Y-74507D01*
X89414Y-74507D02*
X89346Y-74743D01*
X89279Y-74574D01*
X89211Y-74743D01*
X89144Y-74507D01*
X89043Y-74507D02*
X88975Y-74743D01*
X88908Y-74574D01*
X88840Y-74743D01*
X88773Y-74507D01*
X88638Y-74709D02*
X88621Y-74726D01*
X88638Y-74743D01*
X88655Y-74726D01*
X88638Y-74709D01*
X88638Y-74743D01*
X88469Y-74743D02*
X88469Y-74389D01*
X88435Y-74608D02*
X88334Y-74743D01*
X88334Y-74507D02*
X88469Y-74642D01*
X88030Y-74743D02*
X88030Y-74557D01*
X88047Y-74524D01*
X88081Y-74507D01*
X88148Y-74507D01*
X88182Y-74524D01*
X88030Y-74726D02*
X88064Y-74743D01*
X88148Y-74743D01*
X88182Y-74726D01*
X88199Y-74692D01*
X88199Y-74659D01*
X88182Y-74625D01*
X88148Y-74608D01*
X88064Y-74608D01*
X88030Y-74591D01*
X87862Y-74743D02*
X87862Y-74507D01*
X87862Y-74574D02*
X87845Y-74540D01*
X87828Y-74524D01*
X87794Y-74507D01*
X87760Y-74507D01*
X87642Y-74743D02*
X87642Y-74507D01*
X87642Y-74574D02*
X87625Y-74540D01*
X87609Y-74524D01*
X87575Y-74507D01*
X87541Y-74507D01*
X87423Y-74743D02*
X87423Y-74507D01*
X87423Y-74389D02*
X87440Y-74405D01*
X87423Y-74422D01*
X87406Y-74405D01*
X87423Y-74389D01*
X87423Y-74422D01*
X87254Y-74743D02*
X87254Y-74389D01*
X87220Y-74608D02*
X87119Y-74743D01*
X87119Y-74507D02*
X87254Y-74642D01*
X86967Y-74743D02*
X86967Y-74507D01*
X86967Y-74389D02*
X86984Y-74405D01*
X86967Y-74422D01*
X86951Y-74405D01*
X86967Y-74389D01*
X86967Y-74422D01*
X86832Y-74507D02*
X86748Y-74743D01*
X86664Y-74507D01*
X86394Y-74726D02*
X86427Y-74743D01*
X86495Y-74743D01*
X86529Y-74726D01*
X86546Y-74692D01*
X86546Y-74557D01*
X86529Y-74524D01*
X86495Y-74507D01*
X86427Y-74507D01*
X86394Y-74524D01*
X86377Y-74557D01*
X86377Y-74591D01*
X86546Y-74625D01*
X86174Y-74743D02*
X86208Y-74726D01*
X86225Y-74692D01*
X86225Y-74389D01*
X85888Y-74743D02*
X85888Y-74557D01*
X85904Y-74524D01*
X85938Y-74507D01*
X86006Y-74507D01*
X86039Y-74524D01*
X85888Y-74726D02*
X85921Y-74743D01*
X86006Y-74743D01*
X86039Y-74726D01*
X86056Y-74692D01*
X86056Y-74659D01*
X86039Y-74625D01*
X86006Y-74608D01*
X85921Y-74608D01*
X85888Y-74591D01*
X85719Y-74709D02*
X85702Y-74726D01*
X85719Y-74743D01*
X85736Y-74726D01*
X85719Y-74709D01*
X85719Y-74743D01*
X85601Y-74507D02*
X85466Y-74507D01*
X85550Y-74743D02*
X85550Y-74439D01*
X85533Y-74405D01*
X85499Y-74389D01*
X85466Y-74389D01*
X85348Y-74743D02*
X85348Y-74507D01*
X85348Y-74389D02*
X85364Y-74405D01*
X85348Y-74422D01*
X85331Y-74405D01*
X85348Y-74389D01*
X85348Y-74422D01*
G54D12*
X83337Y-61553D02*
X83280Y-61571D01*
X83262Y-61590D01*
X83243Y-61628D01*
X83243Y-61684D01*
X83262Y-61721D01*
X83280Y-61740D01*
X83318Y-61759D01*
X83468Y-61759D01*
X83468Y-61365D01*
X83337Y-61365D01*
X83299Y-61384D01*
X83280Y-61403D01*
X83262Y-61440D01*
X83262Y-61478D01*
X83280Y-61515D01*
X83299Y-61534D01*
X83337Y-61553D01*
X83468Y-61553D01*
X83018Y-61759D02*
X83055Y-61740D01*
X83074Y-61703D01*
X83074Y-61365D01*
X82699Y-61496D02*
X82699Y-61759D01*
X82868Y-61496D02*
X82868Y-61703D01*
X82849Y-61740D01*
X82812Y-61759D01*
X82756Y-61759D01*
X82718Y-61740D01*
X82699Y-61721D01*
X82362Y-61740D02*
X82399Y-61759D01*
X82474Y-61759D01*
X82512Y-61740D01*
X82531Y-61703D01*
X82531Y-61553D01*
X82512Y-61515D01*
X82474Y-61496D01*
X82399Y-61496D01*
X82362Y-61515D01*
X82343Y-61553D01*
X82343Y-61590D01*
X82531Y-61628D01*
X82231Y-61496D02*
X82081Y-61496D01*
X82174Y-61365D02*
X82174Y-61703D01*
X82156Y-61740D01*
X82118Y-61759D01*
X82081Y-61759D01*
X81893Y-61759D02*
X81931Y-61740D01*
X81949Y-61721D01*
X81968Y-61684D01*
X81968Y-61571D01*
X81949Y-61534D01*
X81931Y-61515D01*
X81893Y-61496D01*
X81837Y-61496D01*
X81799Y-61515D01*
X81781Y-61534D01*
X81762Y-61571D01*
X81762Y-61684D01*
X81781Y-61721D01*
X81799Y-61740D01*
X81837Y-61759D01*
X81893Y-61759D01*
X81537Y-61759D02*
X81574Y-61740D01*
X81593Y-61721D01*
X81612Y-61684D01*
X81612Y-61571D01*
X81593Y-61534D01*
X81574Y-61515D01*
X81537Y-61496D01*
X81481Y-61496D01*
X81443Y-61515D01*
X81424Y-61534D01*
X81406Y-61571D01*
X81406Y-61684D01*
X81424Y-61721D01*
X81443Y-61740D01*
X81481Y-61759D01*
X81537Y-61759D01*
X81293Y-61496D02*
X81143Y-61496D01*
X81237Y-61365D02*
X81237Y-61703D01*
X81218Y-61740D01*
X81181Y-61759D01*
X81143Y-61759D01*
X81012Y-61759D02*
X81012Y-61365D01*
X80843Y-61759D02*
X80843Y-61553D01*
X80862Y-61515D01*
X80899Y-61496D01*
X80956Y-61496D01*
X80993Y-61515D01*
X81012Y-61534D01*
X80656Y-61609D02*
X80356Y-61609D01*
X80168Y-61759D02*
X80168Y-61496D01*
X80168Y-61571D02*
X80150Y-61534D01*
X80131Y-61515D01*
X80093Y-61496D01*
X80056Y-61496D01*
X79775Y-61740D02*
X79812Y-61759D01*
X79887Y-61759D01*
X79925Y-61740D01*
X79943Y-61703D01*
X79943Y-61553D01*
X79925Y-61515D01*
X79887Y-61496D01*
X79812Y-61496D01*
X79775Y-61515D01*
X79756Y-61553D01*
X79756Y-61590D01*
X79943Y-61628D01*
X79587Y-61759D02*
X79587Y-61496D01*
X79587Y-61534D02*
X79568Y-61515D01*
X79531Y-61496D01*
X79475Y-61496D01*
X79437Y-61515D01*
X79418Y-61553D01*
X79418Y-61759D01*
X79418Y-61553D02*
X79400Y-61515D01*
X79362Y-61496D01*
X79306Y-61496D01*
X79268Y-61515D01*
X79250Y-61553D01*
X79250Y-61759D01*
X79006Y-61759D02*
X79043Y-61740D01*
X79062Y-61721D01*
X79081Y-61684D01*
X79081Y-61571D01*
X79062Y-61534D01*
X79043Y-61515D01*
X79006Y-61496D01*
X78950Y-61496D01*
X78912Y-61515D01*
X78894Y-61534D01*
X78875Y-61571D01*
X78875Y-61684D01*
X78894Y-61721D01*
X78912Y-61740D01*
X78950Y-61759D01*
X79006Y-61759D01*
X78762Y-61496D02*
X78612Y-61496D01*
X78706Y-61365D02*
X78706Y-61703D01*
X78687Y-61740D01*
X78650Y-61759D01*
X78612Y-61759D01*
X78331Y-61740D02*
X78369Y-61759D01*
X78444Y-61759D01*
X78481Y-61740D01*
X78500Y-61703D01*
X78500Y-61553D01*
X78481Y-61515D01*
X78444Y-61496D01*
X78369Y-61496D01*
X78331Y-61515D01*
X78312Y-61553D01*
X78312Y-61590D01*
X78500Y-61628D01*
X87649Y-62015D02*
X87424Y-62015D01*
X87536Y-62408D02*
X87536Y-62015D01*
X87292Y-62408D02*
X87292Y-62015D01*
X87124Y-62408D02*
X87124Y-62202D01*
X87142Y-62165D01*
X87180Y-62146D01*
X87236Y-62146D01*
X87274Y-62165D01*
X87292Y-62183D01*
X86936Y-62408D02*
X86936Y-62146D01*
X86936Y-62015D02*
X86955Y-62034D01*
X86936Y-62052D01*
X86917Y-62034D01*
X86936Y-62015D01*
X86936Y-62052D01*
X86768Y-62390D02*
X86730Y-62408D01*
X86655Y-62408D01*
X86618Y-62390D01*
X86599Y-62352D01*
X86599Y-62333D01*
X86618Y-62296D01*
X86655Y-62277D01*
X86711Y-62277D01*
X86749Y-62258D01*
X86768Y-62221D01*
X86768Y-62202D01*
X86749Y-62165D01*
X86711Y-62146D01*
X86655Y-62146D01*
X86618Y-62165D01*
X85961Y-62408D02*
X85961Y-62015D01*
X85961Y-62390D02*
X85999Y-62408D01*
X86074Y-62408D01*
X86111Y-62390D01*
X86130Y-62371D01*
X86149Y-62333D01*
X86149Y-62221D01*
X86130Y-62183D01*
X86111Y-62165D01*
X86074Y-62146D01*
X85999Y-62146D01*
X85961Y-62165D01*
X85624Y-62390D02*
X85661Y-62408D01*
X85736Y-62408D01*
X85774Y-62390D01*
X85793Y-62352D01*
X85793Y-62202D01*
X85774Y-62165D01*
X85736Y-62146D01*
X85661Y-62146D01*
X85624Y-62165D01*
X85605Y-62202D01*
X85605Y-62240D01*
X85793Y-62277D01*
X85474Y-62146D02*
X85380Y-62408D01*
X85286Y-62146D01*
X85136Y-62408D02*
X85136Y-62146D01*
X85136Y-62015D02*
X85155Y-62034D01*
X85136Y-62052D01*
X85118Y-62034D01*
X85136Y-62015D01*
X85136Y-62052D01*
X84780Y-62390D02*
X84818Y-62408D01*
X84893Y-62408D01*
X84930Y-62390D01*
X84949Y-62371D01*
X84968Y-62333D01*
X84968Y-62221D01*
X84949Y-62183D01*
X84930Y-62165D01*
X84893Y-62146D01*
X84818Y-62146D01*
X84780Y-62165D01*
X84462Y-62390D02*
X84499Y-62408D01*
X84574Y-62408D01*
X84612Y-62390D01*
X84630Y-62352D01*
X84630Y-62202D01*
X84612Y-62165D01*
X84574Y-62146D01*
X84499Y-62146D01*
X84462Y-62165D01*
X84443Y-62202D01*
X84443Y-62240D01*
X84630Y-62277D01*
X83974Y-62408D02*
X83974Y-62146D01*
X83974Y-62015D02*
X83993Y-62034D01*
X83974Y-62052D01*
X83955Y-62034D01*
X83974Y-62015D01*
X83974Y-62052D01*
X83805Y-62390D02*
X83768Y-62408D01*
X83693Y-62408D01*
X83655Y-62390D01*
X83637Y-62352D01*
X83637Y-62333D01*
X83655Y-62296D01*
X83693Y-62277D01*
X83749Y-62277D01*
X83787Y-62258D01*
X83805Y-62221D01*
X83805Y-62202D01*
X83787Y-62165D01*
X83749Y-62146D01*
X83693Y-62146D01*
X83655Y-62165D01*
X82999Y-62408D02*
X82999Y-62202D01*
X83018Y-62165D01*
X83055Y-62146D01*
X83130Y-62146D01*
X83168Y-62165D01*
X82999Y-62390D02*
X83037Y-62408D01*
X83130Y-62408D01*
X83168Y-62390D01*
X83187Y-62352D01*
X83187Y-62315D01*
X83168Y-62277D01*
X83130Y-62258D01*
X83037Y-62258D01*
X82999Y-62240D01*
X82381Y-62202D02*
X82324Y-62221D01*
X82306Y-62240D01*
X82287Y-62277D01*
X82287Y-62333D01*
X82306Y-62371D01*
X82324Y-62390D01*
X82362Y-62408D01*
X82512Y-62408D01*
X82512Y-62015D01*
X82381Y-62015D01*
X82343Y-62034D01*
X82324Y-62052D01*
X82306Y-62090D01*
X82306Y-62127D01*
X82324Y-62165D01*
X82343Y-62183D01*
X82381Y-62202D01*
X82512Y-62202D01*
X82062Y-62408D02*
X82099Y-62390D01*
X82118Y-62352D01*
X82118Y-62015D01*
X81743Y-62146D02*
X81743Y-62408D01*
X81912Y-62146D02*
X81912Y-62352D01*
X81893Y-62390D01*
X81856Y-62408D01*
X81799Y-62408D01*
X81762Y-62390D01*
X81743Y-62371D01*
X81406Y-62390D02*
X81443Y-62408D01*
X81518Y-62408D01*
X81556Y-62390D01*
X81574Y-62352D01*
X81574Y-62202D01*
X81556Y-62165D01*
X81518Y-62146D01*
X81443Y-62146D01*
X81406Y-62165D01*
X81387Y-62202D01*
X81387Y-62240D01*
X81574Y-62277D01*
X81274Y-62146D02*
X81124Y-62146D01*
X81218Y-62015D02*
X81218Y-62352D01*
X81199Y-62390D01*
X81162Y-62408D01*
X81124Y-62408D01*
X80937Y-62408D02*
X80974Y-62390D01*
X80993Y-62371D01*
X81012Y-62333D01*
X81012Y-62221D01*
X80993Y-62183D01*
X80974Y-62165D01*
X80937Y-62146D01*
X80881Y-62146D01*
X80843Y-62165D01*
X80825Y-62183D01*
X80806Y-62221D01*
X80806Y-62333D01*
X80825Y-62371D01*
X80843Y-62390D01*
X80881Y-62408D01*
X80937Y-62408D01*
X80581Y-62408D02*
X80618Y-62390D01*
X80637Y-62371D01*
X80656Y-62333D01*
X80656Y-62221D01*
X80637Y-62183D01*
X80618Y-62165D01*
X80581Y-62146D01*
X80525Y-62146D01*
X80487Y-62165D01*
X80468Y-62183D01*
X80450Y-62221D01*
X80450Y-62333D01*
X80468Y-62371D01*
X80487Y-62390D01*
X80525Y-62408D01*
X80581Y-62408D01*
X80337Y-62146D02*
X80187Y-62146D01*
X80281Y-62015D02*
X80281Y-62352D01*
X80262Y-62390D01*
X80225Y-62408D01*
X80187Y-62408D01*
X80056Y-62408D02*
X80056Y-62015D01*
X79887Y-62408D02*
X79887Y-62202D01*
X79906Y-62165D01*
X79943Y-62146D01*
X80000Y-62146D01*
X80037Y-62165D01*
X80056Y-62183D01*
X79400Y-62408D02*
X79400Y-62146D01*
X79400Y-62221D02*
X79381Y-62183D01*
X79362Y-62165D01*
X79325Y-62146D01*
X79287Y-62146D01*
X79006Y-62390D02*
X79043Y-62408D01*
X79118Y-62408D01*
X79156Y-62390D01*
X79175Y-62352D01*
X79175Y-62202D01*
X79156Y-62165D01*
X79118Y-62146D01*
X79043Y-62146D01*
X79006Y-62165D01*
X78987Y-62202D01*
X78987Y-62240D01*
X79175Y-62277D01*
X78819Y-62408D02*
X78819Y-62146D01*
X78819Y-62183D02*
X78800Y-62165D01*
X78762Y-62146D01*
X78706Y-62146D01*
X78669Y-62165D01*
X78650Y-62202D01*
X78650Y-62408D01*
X78650Y-62202D02*
X78631Y-62165D01*
X78594Y-62146D01*
X78537Y-62146D01*
X78500Y-62165D01*
X78481Y-62202D01*
X78481Y-62408D01*
X78237Y-62408D02*
X78275Y-62390D01*
X78294Y-62371D01*
X78312Y-62333D01*
X78312Y-62221D01*
X78294Y-62183D01*
X78275Y-62165D01*
X78237Y-62146D01*
X78181Y-62146D01*
X78144Y-62165D01*
X78125Y-62183D01*
X78106Y-62221D01*
X78106Y-62333D01*
X78125Y-62371D01*
X78144Y-62390D01*
X78181Y-62408D01*
X78237Y-62408D01*
X77994Y-62146D02*
X77844Y-62146D01*
X77937Y-62015D02*
X77937Y-62352D01*
X77919Y-62390D01*
X77881Y-62408D01*
X77844Y-62408D01*
X77562Y-62390D02*
X77600Y-62408D01*
X77675Y-62408D01*
X77712Y-62390D01*
X77731Y-62352D01*
X77731Y-62202D01*
X77712Y-62165D01*
X77675Y-62146D01*
X77600Y-62146D01*
X77562Y-62165D01*
X77544Y-62202D01*
X77544Y-62240D01*
X77731Y-62277D01*
X76906Y-62390D02*
X76944Y-62408D01*
X77019Y-62408D01*
X77056Y-62390D01*
X77075Y-62371D01*
X77094Y-62333D01*
X77094Y-62221D01*
X77075Y-62183D01*
X77056Y-62165D01*
X77019Y-62146D01*
X76944Y-62146D01*
X76906Y-62165D01*
X76681Y-62408D02*
X76719Y-62390D01*
X76738Y-62371D01*
X76756Y-62333D01*
X76756Y-62221D01*
X76738Y-62183D01*
X76719Y-62165D01*
X76681Y-62146D01*
X76625Y-62146D01*
X76588Y-62165D01*
X76569Y-62183D01*
X76550Y-62221D01*
X76550Y-62333D01*
X76569Y-62371D01*
X76588Y-62390D01*
X76625Y-62408D01*
X76681Y-62408D01*
X76381Y-62146D02*
X76381Y-62408D01*
X76381Y-62183D02*
X76363Y-62165D01*
X76325Y-62146D01*
X76269Y-62146D01*
X76231Y-62165D01*
X76213Y-62202D01*
X76213Y-62408D01*
X76081Y-62146D02*
X75931Y-62146D01*
X76025Y-62015D02*
X76025Y-62352D01*
X76006Y-62390D01*
X75969Y-62408D01*
X75931Y-62408D01*
X75800Y-62408D02*
X75800Y-62146D01*
X75800Y-62221D02*
X75781Y-62183D01*
X75763Y-62165D01*
X75725Y-62146D01*
X75688Y-62146D01*
X75500Y-62408D02*
X75538Y-62390D01*
X75556Y-62371D01*
X75575Y-62333D01*
X75575Y-62221D01*
X75556Y-62183D01*
X75538Y-62165D01*
X75500Y-62146D01*
X75444Y-62146D01*
X75406Y-62165D01*
X75388Y-62183D01*
X75369Y-62221D01*
X75369Y-62333D01*
X75388Y-62371D01*
X75406Y-62390D01*
X75444Y-62408D01*
X75500Y-62408D01*
X75144Y-62408D02*
X75181Y-62390D01*
X75200Y-62352D01*
X75200Y-62015D01*
X74938Y-62408D02*
X74975Y-62390D01*
X74994Y-62352D01*
X74994Y-62015D01*
X74638Y-62390D02*
X74675Y-62408D01*
X74750Y-62408D01*
X74788Y-62390D01*
X74807Y-62352D01*
X74807Y-62202D01*
X74788Y-62165D01*
X74750Y-62146D01*
X74675Y-62146D01*
X74638Y-62165D01*
X74619Y-62202D01*
X74619Y-62240D01*
X74807Y-62277D01*
X74450Y-62408D02*
X74450Y-62146D01*
X74450Y-62221D02*
X74432Y-62183D01*
X74413Y-62165D01*
X74375Y-62146D01*
X74338Y-62146D01*
X74207Y-62371D02*
X74188Y-62390D01*
X74207Y-62408D01*
X74225Y-62390D01*
X74207Y-62371D01*
X74207Y-62408D01*
X86880Y-63058D02*
X86880Y-62664D01*
X86749Y-62796D02*
X86599Y-62796D01*
X86693Y-62664D02*
X86693Y-63002D01*
X86674Y-63039D01*
X86636Y-63058D01*
X86599Y-63058D01*
X86168Y-63058D02*
X86168Y-62664D01*
X85999Y-63058D02*
X85999Y-62852D01*
X86018Y-62814D01*
X86055Y-62796D01*
X86111Y-62796D01*
X86149Y-62814D01*
X86168Y-62833D01*
X85643Y-63058D02*
X85643Y-62852D01*
X85661Y-62814D01*
X85699Y-62796D01*
X85774Y-62796D01*
X85811Y-62814D01*
X85643Y-63039D02*
X85680Y-63058D01*
X85774Y-63058D01*
X85811Y-63039D01*
X85830Y-63002D01*
X85830Y-62964D01*
X85811Y-62927D01*
X85774Y-62908D01*
X85680Y-62908D01*
X85643Y-62889D01*
X85474Y-63039D02*
X85436Y-63058D01*
X85361Y-63058D01*
X85324Y-63039D01*
X85305Y-63002D01*
X85305Y-62983D01*
X85324Y-62946D01*
X85361Y-62927D01*
X85418Y-62927D01*
X85455Y-62908D01*
X85474Y-62871D01*
X85474Y-62852D01*
X85455Y-62814D01*
X85418Y-62796D01*
X85361Y-62796D01*
X85324Y-62814D01*
X84668Y-63058D02*
X84668Y-62852D01*
X84687Y-62814D01*
X84724Y-62796D01*
X84799Y-62796D01*
X84837Y-62814D01*
X84668Y-63039D02*
X84705Y-63058D01*
X84799Y-63058D01*
X84837Y-63039D01*
X84855Y-63002D01*
X84855Y-62964D01*
X84837Y-62927D01*
X84799Y-62908D01*
X84705Y-62908D01*
X84668Y-62889D01*
X84180Y-62796D02*
X84180Y-63189D01*
X84180Y-62814D02*
X84143Y-62796D01*
X84068Y-62796D01*
X84030Y-62814D01*
X84012Y-62833D01*
X83993Y-62871D01*
X83993Y-62983D01*
X84012Y-63021D01*
X84030Y-63039D01*
X84068Y-63058D01*
X84143Y-63058D01*
X84180Y-63039D01*
X83768Y-63058D02*
X83805Y-63039D01*
X83824Y-63021D01*
X83843Y-62983D01*
X83843Y-62871D01*
X83824Y-62833D01*
X83805Y-62814D01*
X83768Y-62796D01*
X83712Y-62796D01*
X83674Y-62814D01*
X83655Y-62833D01*
X83637Y-62871D01*
X83637Y-62983D01*
X83655Y-63021D01*
X83674Y-63039D01*
X83712Y-63058D01*
X83768Y-63058D01*
X83487Y-63039D02*
X83449Y-63058D01*
X83374Y-63058D01*
X83337Y-63039D01*
X83318Y-63002D01*
X83318Y-62983D01*
X83337Y-62946D01*
X83374Y-62927D01*
X83430Y-62927D01*
X83468Y-62908D01*
X83487Y-62871D01*
X83487Y-62852D01*
X83468Y-62814D01*
X83430Y-62796D01*
X83374Y-62796D01*
X83337Y-62814D01*
X83168Y-63039D02*
X83130Y-63058D01*
X83055Y-63058D01*
X83018Y-63039D01*
X82999Y-63002D01*
X82999Y-62983D01*
X83018Y-62946D01*
X83055Y-62927D01*
X83112Y-62927D01*
X83149Y-62908D01*
X83168Y-62871D01*
X83168Y-62852D01*
X83149Y-62814D01*
X83112Y-62796D01*
X83055Y-62796D01*
X83018Y-62814D01*
X82831Y-63058D02*
X82831Y-62796D01*
X82831Y-62664D02*
X82849Y-62683D01*
X82831Y-62702D01*
X82812Y-62683D01*
X82831Y-62664D01*
X82831Y-62702D01*
X82643Y-63058D02*
X82643Y-62664D01*
X82643Y-62814D02*
X82606Y-62796D01*
X82531Y-62796D01*
X82493Y-62814D01*
X82474Y-62833D01*
X82456Y-62871D01*
X82456Y-62983D01*
X82474Y-63021D01*
X82493Y-63039D01*
X82531Y-63058D01*
X82606Y-63058D01*
X82643Y-63039D01*
X82287Y-63058D02*
X82287Y-62796D01*
X82287Y-62664D02*
X82306Y-62683D01*
X82287Y-62702D01*
X82268Y-62683D01*
X82287Y-62664D01*
X82287Y-62702D01*
X82043Y-63058D02*
X82081Y-63039D01*
X82099Y-63002D01*
X82099Y-62664D01*
X81893Y-63058D02*
X81893Y-62796D01*
X81893Y-62664D02*
X81912Y-62683D01*
X81893Y-62702D01*
X81874Y-62683D01*
X81893Y-62664D01*
X81893Y-62702D01*
X81762Y-62796D02*
X81612Y-62796D01*
X81706Y-62664D02*
X81706Y-63002D01*
X81687Y-63039D01*
X81649Y-63058D01*
X81612Y-63058D01*
X81518Y-62796D02*
X81424Y-63058D01*
X81331Y-62796D02*
X81424Y-63058D01*
X81462Y-63152D01*
X81481Y-63171D01*
X81518Y-63189D01*
X80937Y-62796D02*
X80787Y-62796D01*
X80881Y-62664D02*
X80881Y-63002D01*
X80862Y-63039D01*
X80825Y-63058D01*
X80787Y-63058D01*
X80600Y-63058D02*
X80637Y-63039D01*
X80656Y-63021D01*
X80675Y-62983D01*
X80675Y-62871D01*
X80656Y-62833D01*
X80637Y-62814D01*
X80600Y-62796D01*
X80543Y-62796D01*
X80506Y-62814D01*
X80487Y-62833D01*
X80468Y-62871D01*
X80468Y-62983D01*
X80487Y-63021D01*
X80506Y-63039D01*
X80543Y-63058D01*
X80600Y-63058D01*
X80056Y-62796D02*
X79906Y-62796D01*
X80000Y-62664D02*
X80000Y-63002D01*
X79981Y-63039D01*
X79943Y-63058D01*
X79906Y-63058D01*
X79775Y-63058D02*
X79775Y-62796D01*
X79775Y-62871D02*
X79756Y-62833D01*
X79737Y-62814D01*
X79700Y-62796D01*
X79662Y-62796D01*
X79531Y-63058D02*
X79531Y-62796D01*
X79531Y-62664D02*
X79550Y-62683D01*
X79531Y-62702D01*
X79512Y-62683D01*
X79531Y-62664D01*
X79531Y-62702D01*
X79175Y-62796D02*
X79175Y-63114D01*
X79193Y-63152D01*
X79212Y-63171D01*
X79250Y-63189D01*
X79306Y-63189D01*
X79343Y-63171D01*
X79175Y-63039D02*
X79212Y-63058D01*
X79287Y-63058D01*
X79325Y-63039D01*
X79343Y-63021D01*
X79362Y-62983D01*
X79362Y-62871D01*
X79343Y-62833D01*
X79325Y-62814D01*
X79287Y-62796D01*
X79212Y-62796D01*
X79175Y-62814D01*
X78819Y-62796D02*
X78819Y-63114D01*
X78837Y-63152D01*
X78856Y-63171D01*
X78894Y-63189D01*
X78950Y-63189D01*
X78987Y-63171D01*
X78819Y-63039D02*
X78856Y-63058D01*
X78931Y-63058D01*
X78968Y-63039D01*
X78987Y-63021D01*
X79006Y-62983D01*
X79006Y-62871D01*
X78987Y-62833D01*
X78968Y-62814D01*
X78931Y-62796D01*
X78856Y-62796D01*
X78819Y-62814D01*
X78481Y-63039D02*
X78519Y-63058D01*
X78594Y-63058D01*
X78631Y-63039D01*
X78650Y-63002D01*
X78650Y-62852D01*
X78631Y-62814D01*
X78594Y-62796D01*
X78519Y-62796D01*
X78481Y-62814D01*
X78462Y-62852D01*
X78462Y-62889D01*
X78650Y-62927D01*
X78294Y-63058D02*
X78294Y-62796D01*
X78294Y-62871D02*
X78275Y-62833D01*
X78256Y-62814D01*
X78219Y-62796D01*
X78181Y-62796D01*
X77750Y-63058D02*
X77750Y-62664D01*
X77525Y-63058D01*
X77525Y-62664D01*
X77337Y-63058D02*
X77337Y-62796D01*
X77337Y-62664D02*
X77356Y-62683D01*
X77337Y-62702D01*
X77319Y-62683D01*
X77337Y-62664D01*
X77337Y-62702D01*
X77150Y-63058D02*
X77150Y-62664D01*
X77112Y-62908D02*
X77000Y-63058D01*
X77000Y-62796D02*
X77150Y-62946D01*
X76775Y-63058D02*
X76813Y-63039D01*
X76831Y-63021D01*
X76850Y-62983D01*
X76850Y-62871D01*
X76831Y-62833D01*
X76813Y-62814D01*
X76775Y-62796D01*
X76719Y-62796D01*
X76681Y-62814D01*
X76663Y-62833D01*
X76644Y-62871D01*
X76644Y-62983D01*
X76663Y-63021D01*
X76681Y-63039D01*
X76719Y-63058D01*
X76775Y-63058D01*
X76475Y-62796D02*
X76475Y-63058D01*
X76475Y-62833D02*
X76456Y-62814D01*
X76419Y-62796D01*
X76363Y-62796D01*
X76325Y-62814D01*
X76306Y-62852D01*
X76306Y-63058D01*
X75838Y-63039D02*
X75781Y-63058D01*
X75688Y-63058D01*
X75650Y-63039D01*
X75631Y-63021D01*
X75613Y-62983D01*
X75613Y-62946D01*
X75631Y-62908D01*
X75650Y-62889D01*
X75688Y-62871D01*
X75763Y-62852D01*
X75800Y-62833D01*
X75819Y-62814D01*
X75838Y-62777D01*
X75838Y-62739D01*
X75819Y-62702D01*
X75800Y-62683D01*
X75763Y-62664D01*
X75669Y-62664D01*
X75613Y-62683D01*
X75256Y-63058D02*
X75444Y-63058D01*
X75444Y-62664D01*
X75125Y-63058D02*
X75125Y-62664D01*
X75031Y-62664D01*
X74975Y-62683D01*
X74938Y-62721D01*
X74919Y-62758D01*
X74900Y-62833D01*
X74900Y-62889D01*
X74919Y-62964D01*
X74938Y-63002D01*
X74975Y-63039D01*
X75031Y-63058D01*
X75125Y-63058D01*
X86514Y-63708D02*
X86552Y-63689D01*
X86571Y-63670D01*
X86589Y-63633D01*
X86589Y-63520D01*
X86571Y-63483D01*
X86552Y-63464D01*
X86514Y-63445D01*
X86458Y-63445D01*
X86421Y-63464D01*
X86402Y-63483D01*
X86383Y-63520D01*
X86383Y-63633D01*
X86402Y-63670D01*
X86421Y-63689D01*
X86458Y-63708D01*
X86514Y-63708D01*
X86252Y-63445D02*
X86158Y-63708D01*
X86064Y-63445D01*
X85765Y-63689D02*
X85802Y-63708D01*
X85877Y-63708D01*
X85914Y-63689D01*
X85933Y-63651D01*
X85933Y-63501D01*
X85914Y-63464D01*
X85877Y-63445D01*
X85802Y-63445D01*
X85765Y-63464D01*
X85746Y-63501D01*
X85746Y-63539D01*
X85933Y-63576D01*
X85577Y-63708D02*
X85577Y-63445D01*
X85577Y-63520D02*
X85558Y-63483D01*
X85540Y-63464D01*
X85502Y-63445D01*
X85465Y-63445D01*
X84902Y-63501D02*
X84846Y-63520D01*
X84827Y-63539D01*
X84808Y-63576D01*
X84808Y-63633D01*
X84827Y-63670D01*
X84846Y-63689D01*
X84883Y-63708D01*
X85033Y-63708D01*
X85033Y-63314D01*
X84902Y-63314D01*
X84865Y-63333D01*
X84846Y-63351D01*
X84827Y-63389D01*
X84827Y-63426D01*
X84846Y-63464D01*
X84865Y-63483D01*
X84902Y-63501D01*
X85033Y-63501D01*
X84696Y-63314D02*
X84471Y-63314D01*
X84583Y-63708D02*
X84583Y-63314D01*
X83927Y-63858D02*
X83946Y-63839D01*
X83983Y-63783D01*
X84002Y-63745D01*
X84021Y-63689D01*
X84040Y-63595D01*
X84040Y-63520D01*
X84021Y-63426D01*
X84002Y-63370D01*
X83983Y-63333D01*
X83946Y-63276D01*
X83927Y-63258D01*
X83796Y-63595D02*
X83609Y-63595D01*
X83834Y-63708D02*
X83702Y-63314D01*
X83571Y-63708D01*
X83440Y-63445D02*
X83440Y-63708D01*
X83440Y-63483D02*
X83421Y-63464D01*
X83384Y-63445D01*
X83327Y-63445D01*
X83290Y-63464D01*
X83271Y-63501D01*
X83271Y-63708D01*
X82915Y-63708D02*
X82915Y-63314D01*
X82915Y-63689D02*
X82952Y-63708D01*
X83027Y-63708D01*
X83065Y-63689D01*
X83084Y-63670D01*
X83102Y-63633D01*
X83102Y-63520D01*
X83084Y-63483D01*
X83065Y-63464D01*
X83027Y-63445D01*
X82952Y-63445D01*
X82915Y-63464D01*
X82727Y-63708D02*
X82727Y-63445D01*
X82727Y-63520D02*
X82709Y-63483D01*
X82690Y-63464D01*
X82652Y-63445D01*
X82615Y-63445D01*
X82427Y-63708D02*
X82465Y-63689D01*
X82484Y-63670D01*
X82502Y-63633D01*
X82502Y-63520D01*
X82484Y-63483D01*
X82465Y-63464D01*
X82427Y-63445D01*
X82371Y-63445D01*
X82334Y-63464D01*
X82315Y-63483D01*
X82296Y-63520D01*
X82296Y-63633D01*
X82315Y-63670D01*
X82334Y-63689D01*
X82371Y-63708D01*
X82427Y-63708D01*
X82127Y-63708D02*
X82127Y-63445D01*
X82127Y-63314D02*
X82146Y-63333D01*
X82127Y-63351D01*
X82109Y-63333D01*
X82127Y-63314D01*
X82127Y-63351D01*
X81771Y-63708D02*
X81771Y-63314D01*
X81771Y-63689D02*
X81809Y-63708D01*
X81884Y-63708D01*
X81921Y-63689D01*
X81940Y-63670D01*
X81959Y-63633D01*
X81959Y-63520D01*
X81940Y-63483D01*
X81921Y-63464D01*
X81884Y-63445D01*
X81809Y-63445D01*
X81771Y-63464D01*
X81115Y-63708D02*
X81115Y-63501D01*
X81134Y-63464D01*
X81171Y-63445D01*
X81246Y-63445D01*
X81284Y-63464D01*
X81115Y-63689D02*
X81153Y-63708D01*
X81246Y-63708D01*
X81284Y-63689D01*
X81303Y-63651D01*
X81303Y-63614D01*
X81284Y-63576D01*
X81246Y-63558D01*
X81153Y-63558D01*
X81115Y-63539D01*
X80928Y-63445D02*
X80928Y-63839D01*
X80928Y-63464D02*
X80890Y-63445D01*
X80815Y-63445D01*
X80778Y-63464D01*
X80759Y-63483D01*
X80740Y-63520D01*
X80740Y-63633D01*
X80759Y-63670D01*
X80778Y-63689D01*
X80815Y-63708D01*
X80890Y-63708D01*
X80928Y-63689D01*
X80571Y-63445D02*
X80571Y-63839D01*
X80571Y-63464D02*
X80534Y-63445D01*
X80459Y-63445D01*
X80421Y-63464D01*
X80403Y-63483D01*
X80384Y-63520D01*
X80384Y-63633D01*
X80403Y-63670D01*
X80421Y-63689D01*
X80459Y-63708D01*
X80534Y-63708D01*
X80571Y-63689D01*
X80253Y-63858D02*
X80234Y-63839D01*
X80196Y-63783D01*
X80178Y-63745D01*
X80159Y-63689D01*
X80140Y-63595D01*
X80140Y-63520D01*
X80159Y-63426D01*
X80178Y-63370D01*
X80196Y-63333D01*
X80234Y-63276D01*
X80253Y-63258D01*
X79934Y-63689D02*
X79934Y-63708D01*
X79953Y-63745D01*
X79971Y-63764D01*
X79409Y-63708D02*
X79447Y-63689D01*
X79465Y-63670D01*
X79484Y-63633D01*
X79484Y-63520D01*
X79465Y-63483D01*
X79447Y-63464D01*
X79409Y-63445D01*
X79353Y-63445D01*
X79315Y-63464D01*
X79297Y-63483D01*
X79278Y-63520D01*
X79278Y-63633D01*
X79297Y-63670D01*
X79315Y-63689D01*
X79353Y-63708D01*
X79409Y-63708D01*
X79109Y-63708D02*
X79109Y-63445D01*
X79109Y-63520D02*
X79090Y-63483D01*
X79072Y-63464D01*
X79034Y-63445D01*
X78997Y-63445D01*
X78622Y-63445D02*
X78472Y-63445D01*
X78565Y-63314D02*
X78565Y-63651D01*
X78547Y-63689D01*
X78509Y-63708D01*
X78472Y-63708D01*
X78284Y-63708D02*
X78322Y-63689D01*
X78340Y-63670D01*
X78359Y-63633D01*
X78359Y-63520D01*
X78340Y-63483D01*
X78322Y-63464D01*
X78284Y-63445D01*
X78228Y-63445D01*
X78190Y-63464D01*
X78172Y-63483D01*
X78153Y-63520D01*
X78153Y-63633D01*
X78172Y-63670D01*
X78190Y-63689D01*
X78228Y-63708D01*
X78284Y-63708D01*
X77516Y-63445D02*
X77516Y-63708D01*
X77684Y-63445D02*
X77684Y-63651D01*
X77666Y-63689D01*
X77628Y-63708D01*
X77572Y-63708D01*
X77534Y-63689D01*
X77516Y-63670D01*
X77347Y-63689D02*
X77309Y-63708D01*
X77234Y-63708D01*
X77197Y-63689D01*
X77178Y-63651D01*
X77178Y-63633D01*
X77197Y-63595D01*
X77234Y-63576D01*
X77291Y-63576D01*
X77328Y-63558D01*
X77347Y-63520D01*
X77347Y-63501D01*
X77328Y-63464D01*
X77291Y-63445D01*
X77234Y-63445D01*
X77197Y-63464D01*
X76859Y-63689D02*
X76897Y-63708D01*
X76972Y-63708D01*
X77009Y-63689D01*
X77028Y-63651D01*
X77028Y-63501D01*
X77009Y-63464D01*
X76972Y-63445D01*
X76897Y-63445D01*
X76859Y-63464D01*
X76841Y-63501D01*
X76841Y-63539D01*
X77028Y-63576D01*
X76203Y-63708D02*
X76203Y-63501D01*
X76222Y-63464D01*
X76259Y-63445D01*
X76334Y-63445D01*
X76372Y-63464D01*
X76203Y-63689D02*
X76241Y-63708D01*
X76334Y-63708D01*
X76372Y-63689D01*
X76391Y-63651D01*
X76391Y-63614D01*
X76372Y-63576D01*
X76334Y-63558D01*
X76241Y-63558D01*
X76203Y-63539D01*
X76034Y-63689D02*
X75997Y-63708D01*
X75922Y-63708D01*
X75885Y-63689D01*
X75866Y-63651D01*
X75866Y-63633D01*
X75885Y-63595D01*
X75922Y-63576D01*
X75978Y-63576D01*
X76016Y-63558D01*
X76034Y-63520D01*
X76034Y-63501D01*
X76016Y-63464D01*
X75978Y-63445D01*
X75922Y-63445D01*
X75885Y-63464D01*
X75228Y-63708D02*
X75228Y-63501D01*
X75247Y-63464D01*
X75285Y-63445D01*
X75360Y-63445D01*
X75397Y-63464D01*
X75228Y-63689D02*
X75266Y-63708D01*
X75360Y-63708D01*
X75397Y-63689D01*
X75416Y-63651D01*
X75416Y-63614D01*
X75397Y-63576D01*
X75360Y-63558D01*
X75266Y-63558D01*
X75228Y-63539D01*
X86552Y-64095D02*
X86552Y-64414D01*
X86571Y-64451D01*
X86589Y-64470D01*
X86627Y-64489D01*
X86683Y-64489D01*
X86721Y-64470D01*
X86552Y-64339D02*
X86589Y-64357D01*
X86664Y-64357D01*
X86702Y-64339D01*
X86721Y-64320D01*
X86739Y-64282D01*
X86739Y-64170D01*
X86721Y-64132D01*
X86702Y-64114D01*
X86664Y-64095D01*
X86589Y-64095D01*
X86552Y-64114D01*
X86214Y-64339D02*
X86252Y-64357D01*
X86327Y-64357D01*
X86364Y-64339D01*
X86383Y-64301D01*
X86383Y-64151D01*
X86364Y-64114D01*
X86327Y-64095D01*
X86252Y-64095D01*
X86214Y-64114D01*
X86196Y-64151D01*
X86196Y-64189D01*
X86383Y-64226D01*
X86027Y-64095D02*
X86027Y-64357D01*
X86027Y-64132D02*
X86008Y-64114D01*
X85971Y-64095D01*
X85914Y-64095D01*
X85877Y-64114D01*
X85858Y-64151D01*
X85858Y-64357D01*
X85521Y-64339D02*
X85558Y-64357D01*
X85633Y-64357D01*
X85671Y-64339D01*
X85690Y-64301D01*
X85690Y-64151D01*
X85671Y-64114D01*
X85633Y-64095D01*
X85558Y-64095D01*
X85521Y-64114D01*
X85502Y-64151D01*
X85502Y-64189D01*
X85690Y-64226D01*
X85333Y-64357D02*
X85333Y-64095D01*
X85333Y-64170D02*
X85315Y-64132D01*
X85296Y-64114D01*
X85258Y-64095D01*
X85221Y-64095D01*
X84921Y-64357D02*
X84921Y-64151D01*
X84940Y-64114D01*
X84977Y-64095D01*
X85052Y-64095D01*
X85090Y-64114D01*
X84921Y-64339D02*
X84958Y-64357D01*
X85052Y-64357D01*
X85090Y-64339D01*
X85108Y-64301D01*
X85108Y-64264D01*
X85090Y-64226D01*
X85052Y-64207D01*
X84958Y-64207D01*
X84921Y-64189D01*
X84677Y-64357D02*
X84715Y-64339D01*
X84733Y-64301D01*
X84733Y-63964D01*
X80328Y-64095D02*
X80328Y-64489D01*
X80328Y-64114D02*
X80290Y-64095D01*
X80215Y-64095D01*
X80178Y-64114D01*
X80159Y-64132D01*
X80140Y-64170D01*
X80140Y-64282D01*
X80159Y-64320D01*
X80178Y-64339D01*
X80215Y-64357D01*
X80290Y-64357D01*
X80328Y-64339D01*
X79803Y-64095D02*
X79803Y-64357D01*
X79971Y-64095D02*
X79971Y-64301D01*
X79953Y-64339D01*
X79915Y-64357D01*
X79859Y-64357D01*
X79822Y-64339D01*
X79803Y-64320D01*
X79615Y-64357D02*
X79615Y-64095D01*
X79615Y-64170D02*
X79597Y-64132D01*
X79578Y-64114D01*
X79540Y-64095D01*
X79503Y-64095D01*
X79372Y-64095D02*
X79372Y-64489D01*
X79372Y-64114D02*
X79334Y-64095D01*
X79259Y-64095D01*
X79222Y-64114D01*
X79203Y-64132D01*
X79184Y-64170D01*
X79184Y-64282D01*
X79203Y-64320D01*
X79222Y-64339D01*
X79259Y-64357D01*
X79334Y-64357D01*
X79372Y-64339D01*
X78959Y-64357D02*
X78997Y-64339D01*
X79015Y-64320D01*
X79034Y-64282D01*
X79034Y-64170D01*
X79015Y-64132D01*
X78997Y-64114D01*
X78959Y-64095D01*
X78903Y-64095D01*
X78865Y-64114D01*
X78847Y-64132D01*
X78828Y-64170D01*
X78828Y-64282D01*
X78847Y-64320D01*
X78865Y-64339D01*
X78903Y-64357D01*
X78959Y-64357D01*
X78678Y-64339D02*
X78640Y-64357D01*
X78565Y-64357D01*
X78528Y-64339D01*
X78509Y-64301D01*
X78509Y-64282D01*
X78528Y-64245D01*
X78565Y-64226D01*
X78622Y-64226D01*
X78659Y-64207D01*
X78678Y-64170D01*
X78678Y-64151D01*
X78659Y-64114D01*
X78622Y-64095D01*
X78565Y-64095D01*
X78528Y-64114D01*
X78190Y-64339D02*
X78228Y-64357D01*
X78303Y-64357D01*
X78340Y-64339D01*
X78359Y-64301D01*
X78359Y-64151D01*
X78340Y-64114D01*
X78303Y-64095D01*
X78228Y-64095D01*
X78190Y-64114D01*
X78172Y-64151D01*
X78172Y-64189D01*
X78359Y-64226D01*
X77572Y-64151D02*
X77516Y-64170D01*
X77497Y-64189D01*
X77478Y-64226D01*
X77478Y-64282D01*
X77497Y-64320D01*
X77516Y-64339D01*
X77553Y-64357D01*
X77703Y-64357D01*
X77703Y-63964D01*
X77572Y-63964D01*
X77534Y-63982D01*
X77516Y-64001D01*
X77497Y-64039D01*
X77497Y-64076D01*
X77516Y-64114D01*
X77534Y-64132D01*
X77572Y-64151D01*
X77703Y-64151D01*
X77253Y-64357D02*
X77291Y-64339D01*
X77309Y-64301D01*
X77309Y-63964D01*
X76934Y-64095D02*
X76934Y-64357D01*
X77103Y-64095D02*
X77103Y-64301D01*
X77084Y-64339D01*
X77047Y-64357D01*
X76991Y-64357D01*
X76953Y-64339D01*
X76934Y-64320D01*
X76597Y-64339D02*
X76634Y-64357D01*
X76709Y-64357D01*
X76747Y-64339D01*
X76766Y-64301D01*
X76766Y-64151D01*
X76747Y-64114D01*
X76709Y-64095D01*
X76634Y-64095D01*
X76597Y-64114D01*
X76578Y-64151D01*
X76578Y-64189D01*
X76766Y-64226D01*
X76466Y-64095D02*
X76316Y-64095D01*
X76409Y-63964D02*
X76409Y-64301D01*
X76391Y-64339D01*
X76353Y-64357D01*
X76316Y-64357D01*
X76128Y-64357D02*
X76166Y-64339D01*
X76184Y-64320D01*
X76203Y-64282D01*
X76203Y-64170D01*
X76184Y-64132D01*
X76166Y-64114D01*
X76128Y-64095D01*
X76072Y-64095D01*
X76034Y-64114D01*
X76016Y-64132D01*
X75997Y-64170D01*
X75997Y-64282D01*
X76016Y-64320D01*
X76034Y-64339D01*
X76072Y-64357D01*
X76128Y-64357D01*
X75772Y-64357D02*
X75810Y-64339D01*
X75828Y-64320D01*
X75847Y-64282D01*
X75847Y-64170D01*
X75828Y-64132D01*
X75810Y-64114D01*
X75772Y-64095D01*
X75716Y-64095D01*
X75678Y-64114D01*
X75660Y-64132D01*
X75641Y-64170D01*
X75641Y-64282D01*
X75660Y-64320D01*
X75678Y-64339D01*
X75716Y-64357D01*
X75772Y-64357D01*
X75528Y-64095D02*
X75378Y-64095D01*
X75472Y-63964D02*
X75472Y-64301D01*
X75453Y-64339D01*
X75416Y-64357D01*
X75378Y-64357D01*
X75247Y-64357D02*
X75247Y-63964D01*
X75078Y-64357D02*
X75078Y-64151D01*
X75097Y-64114D01*
X75135Y-64095D01*
X75191Y-64095D01*
X75228Y-64114D01*
X75247Y-64132D01*
X87021Y-65007D02*
X87021Y-64744D01*
X87021Y-64819D02*
X87002Y-64782D01*
X86983Y-64763D01*
X86946Y-64744D01*
X86908Y-64744D01*
X86627Y-64988D02*
X86664Y-65007D01*
X86739Y-65007D01*
X86777Y-64988D01*
X86796Y-64951D01*
X86796Y-64801D01*
X86777Y-64763D01*
X86739Y-64744D01*
X86664Y-64744D01*
X86627Y-64763D01*
X86608Y-64801D01*
X86608Y-64838D01*
X86796Y-64876D01*
X86439Y-65007D02*
X86439Y-64744D01*
X86439Y-64782D02*
X86421Y-64763D01*
X86383Y-64744D01*
X86327Y-64744D01*
X86289Y-64763D01*
X86271Y-64801D01*
X86271Y-65007D01*
X86271Y-64801D02*
X86252Y-64763D01*
X86214Y-64744D01*
X86158Y-64744D01*
X86121Y-64763D01*
X86102Y-64801D01*
X86102Y-65007D01*
X85858Y-65007D02*
X85896Y-64988D01*
X85914Y-64969D01*
X85933Y-64932D01*
X85933Y-64819D01*
X85914Y-64782D01*
X85896Y-64763D01*
X85858Y-64744D01*
X85802Y-64744D01*
X85765Y-64763D01*
X85746Y-64782D01*
X85727Y-64819D01*
X85727Y-64932D01*
X85746Y-64969D01*
X85765Y-64988D01*
X85802Y-65007D01*
X85858Y-65007D01*
X85615Y-64744D02*
X85465Y-64744D01*
X85558Y-64613D02*
X85558Y-64951D01*
X85540Y-64988D01*
X85502Y-65007D01*
X85465Y-65007D01*
X85183Y-64988D02*
X85221Y-65007D01*
X85296Y-65007D01*
X85333Y-64988D01*
X85352Y-64951D01*
X85352Y-64801D01*
X85333Y-64763D01*
X85296Y-64744D01*
X85221Y-64744D01*
X85183Y-64763D01*
X85165Y-64801D01*
X85165Y-64838D01*
X85352Y-64876D01*
X84996Y-64969D02*
X84977Y-64988D01*
X84996Y-65007D01*
X85015Y-64988D01*
X84996Y-64969D01*
X84996Y-65007D01*
X80928Y-64988D02*
X80871Y-65007D01*
X80778Y-65007D01*
X80740Y-64988D01*
X80721Y-64969D01*
X80703Y-64932D01*
X80703Y-64894D01*
X80721Y-64857D01*
X80740Y-64838D01*
X80778Y-64819D01*
X80853Y-64801D01*
X80890Y-64782D01*
X80909Y-64763D01*
X80928Y-64726D01*
X80928Y-64688D01*
X80909Y-64651D01*
X80890Y-64632D01*
X80853Y-64613D01*
X80759Y-64613D01*
X80703Y-64632D01*
X80365Y-64744D02*
X80365Y-65007D01*
X80534Y-64744D02*
X80534Y-64951D01*
X80515Y-64988D01*
X80478Y-65007D01*
X80421Y-65007D01*
X80384Y-64988D01*
X80365Y-64969D01*
X80009Y-64988D02*
X80046Y-65007D01*
X80121Y-65007D01*
X80159Y-64988D01*
X80178Y-64969D01*
X80196Y-64932D01*
X80196Y-64819D01*
X80178Y-64782D01*
X80159Y-64763D01*
X80121Y-64744D01*
X80046Y-64744D01*
X80009Y-64763D01*
X79840Y-65007D02*
X79840Y-64613D01*
X79672Y-65007D02*
X79672Y-64801D01*
X79690Y-64763D01*
X79728Y-64744D01*
X79784Y-64744D01*
X79822Y-64763D01*
X79840Y-64782D01*
X79015Y-65007D02*
X79015Y-64801D01*
X79034Y-64763D01*
X79072Y-64744D01*
X79147Y-64744D01*
X79184Y-64763D01*
X79015Y-64988D02*
X79053Y-65007D01*
X79147Y-65007D01*
X79184Y-64988D01*
X79203Y-64951D01*
X79203Y-64913D01*
X79184Y-64876D01*
X79147Y-64857D01*
X79053Y-64857D01*
X79015Y-64838D01*
X78847Y-64988D02*
X78809Y-65007D01*
X78734Y-65007D01*
X78697Y-64988D01*
X78678Y-64951D01*
X78678Y-64932D01*
X78697Y-64894D01*
X78734Y-64876D01*
X78790Y-64876D01*
X78828Y-64857D01*
X78847Y-64819D01*
X78847Y-64801D01*
X78828Y-64763D01*
X78790Y-64744D01*
X78734Y-64744D01*
X78697Y-64763D01*
X78247Y-64744D02*
X78172Y-65007D01*
X78097Y-64819D01*
X78022Y-65007D01*
X77947Y-64744D01*
X77797Y-65007D02*
X77797Y-64744D01*
X77797Y-64613D02*
X77816Y-64632D01*
X77797Y-64651D01*
X77778Y-64632D01*
X77797Y-64613D01*
X77797Y-64651D01*
X77666Y-64744D02*
X77516Y-64744D01*
X77609Y-64613D02*
X77609Y-64951D01*
X77591Y-64988D01*
X77553Y-65007D01*
X77516Y-65007D01*
X77384Y-65007D02*
X77384Y-64613D01*
X77216Y-65007D02*
X77216Y-64801D01*
X77234Y-64763D01*
X77272Y-64744D01*
X77328Y-64744D01*
X77366Y-64763D01*
X77384Y-64782D01*
X76559Y-65007D02*
X76559Y-64801D01*
X76578Y-64763D01*
X76616Y-64744D01*
X76691Y-64744D01*
X76728Y-64763D01*
X76559Y-64988D02*
X76597Y-65007D01*
X76691Y-65007D01*
X76728Y-64988D01*
X76747Y-64951D01*
X76747Y-64913D01*
X76728Y-64876D01*
X76691Y-64857D01*
X76597Y-64857D01*
X76559Y-64838D01*
X76128Y-64744D02*
X75978Y-64744D01*
X76072Y-64613D02*
X76072Y-64951D01*
X76053Y-64988D01*
X76016Y-65007D01*
X75978Y-65007D01*
X75678Y-65007D02*
X75678Y-64801D01*
X75697Y-64763D01*
X75735Y-64744D01*
X75810Y-64744D01*
X75847Y-64763D01*
X75678Y-64988D02*
X75716Y-65007D01*
X75810Y-65007D01*
X75847Y-64988D01*
X75866Y-64951D01*
X75866Y-64913D01*
X75847Y-64876D01*
X75810Y-64857D01*
X75716Y-64857D01*
X75678Y-64838D01*
X75491Y-65007D02*
X75491Y-64613D01*
X75491Y-64763D02*
X75453Y-64744D01*
X75378Y-64744D01*
X75341Y-64763D01*
X75322Y-64782D01*
X75303Y-64819D01*
X75303Y-64932D01*
X75322Y-64969D01*
X75341Y-64988D01*
X75378Y-65007D01*
X75453Y-65007D01*
X75491Y-64988D01*
X75078Y-65007D02*
X75116Y-64988D01*
X75135Y-64951D01*
X75135Y-64613D01*
X74778Y-64988D02*
X74816Y-65007D01*
X74891Y-65007D01*
X74928Y-64988D01*
X74947Y-64951D01*
X74947Y-64801D01*
X74928Y-64763D01*
X74891Y-64744D01*
X74816Y-64744D01*
X74778Y-64763D01*
X74760Y-64801D01*
X74760Y-64838D01*
X74947Y-64876D01*
X84537Y-65656D02*
X84537Y-65263D01*
X84368Y-65656D02*
X84368Y-65450D01*
X84387Y-65413D01*
X84424Y-65394D01*
X84480Y-65394D01*
X84518Y-65413D01*
X84537Y-65432D01*
X84124Y-65656D02*
X84162Y-65638D01*
X84180Y-65619D01*
X84199Y-65582D01*
X84199Y-65469D01*
X84180Y-65432D01*
X84162Y-65413D01*
X84124Y-65394D01*
X84068Y-65394D01*
X84030Y-65413D01*
X84012Y-65432D01*
X83993Y-65469D01*
X83993Y-65582D01*
X84012Y-65619D01*
X84030Y-65638D01*
X84068Y-65656D01*
X84124Y-65656D01*
X83655Y-65638D02*
X83693Y-65656D01*
X83768Y-65656D01*
X83805Y-65638D01*
X83824Y-65619D01*
X83843Y-65582D01*
X83843Y-65469D01*
X83824Y-65432D01*
X83805Y-65413D01*
X83768Y-65394D01*
X83693Y-65394D01*
X83655Y-65413D01*
X83487Y-65656D02*
X83487Y-65263D01*
X83449Y-65507D02*
X83337Y-65656D01*
X83337Y-65394D02*
X83487Y-65544D01*
X83018Y-65638D02*
X83055Y-65656D01*
X83130Y-65656D01*
X83168Y-65638D01*
X83187Y-65600D01*
X83187Y-65450D01*
X83168Y-65413D01*
X83130Y-65394D01*
X83055Y-65394D01*
X83018Y-65413D01*
X82999Y-65450D01*
X82999Y-65488D01*
X83187Y-65525D01*
X82868Y-65394D02*
X82774Y-65656D01*
X82681Y-65394D02*
X82774Y-65656D01*
X82812Y-65750D01*
X82831Y-65769D01*
X82868Y-65788D01*
X78162Y-65656D02*
X78162Y-65450D01*
X78181Y-65413D01*
X78219Y-65394D01*
X78294Y-65394D01*
X78331Y-65413D01*
X78162Y-65638D02*
X78200Y-65656D01*
X78294Y-65656D01*
X78331Y-65638D01*
X78350Y-65600D01*
X78350Y-65563D01*
X78331Y-65525D01*
X78294Y-65507D01*
X78200Y-65507D01*
X78162Y-65488D01*
X77975Y-65394D02*
X77975Y-65788D01*
X77975Y-65413D02*
X77937Y-65394D01*
X77862Y-65394D01*
X77825Y-65413D01*
X77806Y-65432D01*
X77787Y-65469D01*
X77787Y-65582D01*
X77806Y-65619D01*
X77825Y-65638D01*
X77862Y-65656D01*
X77937Y-65656D01*
X77975Y-65638D01*
X77619Y-65394D02*
X77619Y-65788D01*
X77619Y-65413D02*
X77581Y-65394D01*
X77506Y-65394D01*
X77469Y-65413D01*
X77450Y-65432D01*
X77431Y-65469D01*
X77431Y-65582D01*
X77450Y-65619D01*
X77469Y-65638D01*
X77506Y-65656D01*
X77581Y-65656D01*
X77619Y-65638D01*
X77262Y-65619D02*
X77244Y-65638D01*
X77262Y-65656D01*
X77281Y-65638D01*
X77262Y-65619D01*
X77262Y-65656D01*
X84040Y-66956D02*
X84040Y-66562D01*
X83815Y-66956D02*
X83983Y-66731D01*
X83815Y-66562D02*
X84040Y-66787D01*
X83477Y-66956D02*
X83477Y-66749D01*
X83496Y-66712D01*
X83534Y-66693D01*
X83609Y-66693D01*
X83646Y-66712D01*
X83477Y-66937D02*
X83515Y-66956D01*
X83609Y-66956D01*
X83646Y-66937D01*
X83665Y-66899D01*
X83665Y-66862D01*
X83646Y-66824D01*
X83609Y-66806D01*
X83515Y-66806D01*
X83477Y-66787D01*
X83290Y-66956D02*
X83290Y-66693D01*
X83290Y-66768D02*
X83271Y-66731D01*
X83252Y-66712D01*
X83215Y-66693D01*
X83177Y-66693D01*
X83046Y-66956D02*
X83046Y-66693D01*
X83046Y-66768D02*
X83027Y-66731D01*
X83009Y-66712D01*
X82971Y-66693D01*
X82934Y-66693D01*
X82802Y-66956D02*
X82802Y-66693D01*
X82802Y-66562D02*
X82821Y-66581D01*
X82802Y-66600D01*
X82784Y-66581D01*
X82802Y-66562D01*
X82802Y-66600D01*
X82315Y-66956D02*
X82315Y-66562D01*
X82090Y-66956D02*
X82259Y-66731D01*
X82090Y-66562D02*
X82315Y-66787D01*
X81921Y-66956D02*
X81921Y-66693D01*
X81921Y-66562D02*
X81940Y-66581D01*
X81921Y-66600D01*
X81902Y-66581D01*
X81921Y-66562D01*
X81921Y-66600D01*
X81771Y-66693D02*
X81678Y-66956D01*
X81584Y-66693D01*
X81284Y-66937D02*
X81321Y-66956D01*
X81396Y-66956D01*
X81434Y-66937D01*
X81453Y-66899D01*
X81453Y-66749D01*
X81434Y-66712D01*
X81396Y-66693D01*
X81321Y-66693D01*
X81284Y-66712D01*
X81265Y-66749D01*
X81265Y-66787D01*
X81453Y-66824D01*
X81040Y-66956D02*
X81078Y-66937D01*
X81096Y-66899D01*
X81096Y-66562D01*
X80721Y-66956D02*
X80721Y-66749D01*
X80740Y-66712D01*
X80778Y-66693D01*
X80853Y-66693D01*
X80890Y-66712D01*
X80721Y-66937D02*
X80759Y-66956D01*
X80853Y-66956D01*
X80890Y-66937D01*
X80909Y-66899D01*
X80909Y-66862D01*
X80890Y-66824D01*
X80853Y-66806D01*
X80759Y-66806D01*
X80721Y-66787D01*
X80890Y-66562D02*
X80871Y-66581D01*
X80890Y-66600D01*
X80909Y-66581D01*
X80890Y-66562D01*
X80890Y-66600D01*
X80740Y-66562D02*
X80721Y-66581D01*
X80740Y-66600D01*
X80759Y-66581D01*
X80740Y-66562D01*
X80740Y-66600D01*
X80159Y-66562D02*
X80121Y-66562D01*
X80084Y-66581D01*
X80065Y-66600D01*
X80046Y-66637D01*
X80028Y-66712D01*
X80028Y-66806D01*
X80046Y-66881D01*
X80065Y-66918D01*
X80084Y-66937D01*
X80121Y-66956D01*
X80159Y-66956D01*
X80196Y-66937D01*
X80215Y-66918D01*
X80234Y-66881D01*
X80253Y-66806D01*
X80253Y-66712D01*
X80234Y-66637D01*
X80215Y-66600D01*
X80196Y-66581D01*
X80159Y-66562D01*
X79690Y-66562D02*
X79765Y-66562D01*
X79803Y-66581D01*
X79822Y-66600D01*
X79859Y-66656D01*
X79878Y-66731D01*
X79878Y-66881D01*
X79859Y-66918D01*
X79840Y-66937D01*
X79803Y-66956D01*
X79728Y-66956D01*
X79690Y-66937D01*
X79672Y-66918D01*
X79653Y-66881D01*
X79653Y-66787D01*
X79672Y-66749D01*
X79690Y-66731D01*
X79728Y-66712D01*
X79803Y-66712D01*
X79840Y-66731D01*
X79859Y-66749D01*
X79878Y-66787D01*
X79203Y-66543D02*
X79540Y-67049D01*
X79090Y-66600D02*
X79072Y-66581D01*
X79034Y-66562D01*
X78940Y-66562D01*
X78903Y-66581D01*
X78884Y-66600D01*
X78865Y-66637D01*
X78865Y-66674D01*
X78884Y-66731D01*
X79109Y-66956D01*
X78865Y-66956D01*
X78622Y-66562D02*
X78584Y-66562D01*
X78547Y-66581D01*
X78528Y-66600D01*
X78509Y-66637D01*
X78490Y-66712D01*
X78490Y-66806D01*
X78509Y-66881D01*
X78528Y-66918D01*
X78547Y-66937D01*
X78584Y-66956D01*
X78622Y-66956D01*
X78659Y-66937D01*
X78678Y-66918D01*
X78697Y-66881D01*
X78715Y-66806D01*
X78715Y-66712D01*
X78697Y-66637D01*
X78678Y-66600D01*
X78659Y-66581D01*
X78622Y-66562D01*
X78115Y-66956D02*
X78340Y-66956D01*
X78228Y-66956D02*
X78228Y-66562D01*
X78265Y-66618D01*
X78303Y-66656D01*
X78340Y-66674D01*
X77759Y-66562D02*
X77947Y-66562D01*
X77965Y-66749D01*
X77947Y-66731D01*
X77909Y-66712D01*
X77816Y-66712D01*
X77778Y-66731D01*
X77759Y-66749D01*
X77741Y-66787D01*
X77741Y-66881D01*
X77759Y-66918D01*
X77778Y-66937D01*
X77816Y-66956D01*
X77909Y-66956D01*
X77947Y-66937D01*
X77965Y-66918D01*
X83815Y-67605D02*
X83815Y-67212D01*
X83777Y-67455D02*
X83665Y-67605D01*
X83665Y-67343D02*
X83815Y-67493D01*
X83327Y-67605D02*
X83327Y-67399D01*
X83346Y-67362D01*
X83384Y-67343D01*
X83459Y-67343D01*
X83496Y-67362D01*
X83327Y-67587D02*
X83365Y-67605D01*
X83459Y-67605D01*
X83496Y-67587D01*
X83515Y-67549D01*
X83515Y-67512D01*
X83496Y-67474D01*
X83459Y-67455D01*
X83365Y-67455D01*
X83327Y-67437D01*
X83140Y-67605D02*
X83140Y-67343D01*
X83140Y-67418D02*
X83121Y-67380D01*
X83102Y-67362D01*
X83065Y-67343D01*
X83027Y-67343D01*
X82896Y-67605D02*
X82896Y-67343D01*
X82896Y-67418D02*
X82877Y-67380D01*
X82859Y-67362D01*
X82821Y-67343D01*
X82784Y-67343D01*
X82652Y-67605D02*
X82652Y-67343D01*
X82652Y-67212D02*
X82671Y-67230D01*
X82652Y-67249D01*
X82634Y-67230D01*
X82652Y-67212D01*
X82652Y-67249D01*
X82484Y-67587D02*
X82446Y-67605D01*
X82371Y-67605D01*
X82334Y-67587D01*
X82315Y-67549D01*
X82315Y-67530D01*
X82334Y-67493D01*
X82371Y-67474D01*
X82427Y-67474D01*
X82465Y-67455D01*
X82484Y-67418D01*
X82484Y-67399D01*
X82465Y-67362D01*
X82427Y-67343D01*
X82371Y-67343D01*
X82334Y-67362D01*
X82202Y-67343D02*
X82052Y-67343D01*
X82146Y-67212D02*
X82146Y-67549D01*
X82127Y-67587D01*
X82090Y-67605D01*
X82052Y-67605D01*
X81771Y-67587D02*
X81809Y-67605D01*
X81884Y-67605D01*
X81921Y-67587D01*
X81940Y-67549D01*
X81940Y-67399D01*
X81921Y-67362D01*
X81884Y-67343D01*
X81809Y-67343D01*
X81771Y-67362D01*
X81753Y-67399D01*
X81753Y-67437D01*
X81940Y-67474D01*
X81584Y-67605D02*
X81584Y-67343D01*
X81584Y-67418D02*
X81565Y-67380D01*
X81546Y-67362D01*
X81509Y-67343D01*
X81471Y-67343D01*
X81096Y-67418D02*
X81115Y-67399D01*
X81153Y-67380D01*
X81190Y-67380D01*
X81228Y-67399D01*
X81246Y-67418D01*
X81265Y-67455D01*
X81265Y-67493D01*
X81246Y-67530D01*
X81228Y-67549D01*
X81190Y-67568D01*
X81153Y-67568D01*
X81115Y-67549D01*
X81096Y-67530D01*
X81096Y-67380D02*
X81096Y-67530D01*
X81078Y-67549D01*
X81059Y-67549D01*
X81021Y-67530D01*
X81003Y-67493D01*
X81003Y-67399D01*
X81040Y-67343D01*
X81096Y-67305D01*
X81171Y-67287D01*
X81246Y-67305D01*
X81303Y-67343D01*
X81340Y-67399D01*
X81359Y-67474D01*
X81340Y-67549D01*
X81303Y-67605D01*
X81246Y-67643D01*
X81171Y-67662D01*
X81096Y-67643D01*
X81040Y-67605D01*
X80665Y-67343D02*
X80665Y-67662D01*
X80684Y-67699D01*
X80703Y-67718D01*
X80740Y-67737D01*
X80796Y-67737D01*
X80834Y-67718D01*
X80665Y-67587D02*
X80703Y-67605D01*
X80778Y-67605D01*
X80815Y-67587D01*
X80834Y-67568D01*
X80853Y-67530D01*
X80853Y-67418D01*
X80834Y-67380D01*
X80815Y-67362D01*
X80778Y-67343D01*
X80703Y-67343D01*
X80665Y-67362D01*
X80478Y-67605D02*
X80478Y-67343D01*
X80478Y-67380D02*
X80459Y-67362D01*
X80421Y-67343D01*
X80365Y-67343D01*
X80328Y-67362D01*
X80309Y-67399D01*
X80309Y-67605D01*
X80309Y-67399D02*
X80290Y-67362D01*
X80253Y-67343D01*
X80196Y-67343D01*
X80159Y-67362D01*
X80140Y-67399D01*
X80140Y-67605D01*
X79784Y-67605D02*
X79784Y-67399D01*
X79803Y-67362D01*
X79840Y-67343D01*
X79915Y-67343D01*
X79953Y-67362D01*
X79784Y-67587D02*
X79822Y-67605D01*
X79915Y-67605D01*
X79953Y-67587D01*
X79971Y-67549D01*
X79971Y-67512D01*
X79953Y-67474D01*
X79915Y-67455D01*
X79822Y-67455D01*
X79784Y-67437D01*
X79597Y-67605D02*
X79597Y-67343D01*
X79597Y-67212D02*
X79615Y-67230D01*
X79597Y-67249D01*
X79578Y-67230D01*
X79597Y-67212D01*
X79597Y-67249D01*
X79353Y-67605D02*
X79390Y-67587D01*
X79409Y-67549D01*
X79409Y-67212D01*
X79203Y-67568D02*
X79184Y-67587D01*
X79203Y-67605D01*
X79222Y-67587D01*
X79203Y-67568D01*
X79203Y-67605D01*
X78847Y-67587D02*
X78884Y-67605D01*
X78959Y-67605D01*
X78997Y-67587D01*
X79015Y-67568D01*
X79034Y-67530D01*
X79034Y-67418D01*
X79015Y-67380D01*
X78997Y-67362D01*
X78959Y-67343D01*
X78884Y-67343D01*
X78847Y-67362D01*
X78622Y-67605D02*
X78659Y-67587D01*
X78678Y-67568D01*
X78697Y-67530D01*
X78697Y-67418D01*
X78678Y-67380D01*
X78659Y-67362D01*
X78622Y-67343D01*
X78565Y-67343D01*
X78528Y-67362D01*
X78509Y-67380D01*
X78490Y-67418D01*
X78490Y-67530D01*
X78509Y-67568D01*
X78528Y-67587D01*
X78565Y-67605D01*
X78622Y-67605D01*
X78322Y-67605D02*
X78322Y-67343D01*
X78322Y-67380D02*
X78303Y-67362D01*
X78265Y-67343D01*
X78209Y-67343D01*
X78172Y-67362D01*
X78153Y-67399D01*
X78153Y-67605D01*
X78153Y-67399D02*
X78134Y-67362D01*
X78097Y-67343D01*
X78040Y-67343D01*
X78003Y-67362D01*
X77984Y-67399D01*
X77984Y-67605D01*
X83384Y-67992D02*
X83309Y-68255D01*
X83234Y-68067D01*
X83159Y-68255D01*
X83084Y-67992D01*
X82971Y-67992D02*
X82896Y-68255D01*
X82821Y-68067D01*
X82746Y-68255D01*
X82671Y-67992D01*
X82559Y-67992D02*
X82484Y-68255D01*
X82409Y-68067D01*
X82334Y-68255D01*
X82259Y-67992D01*
X82109Y-68217D02*
X82090Y-68236D01*
X82109Y-68255D01*
X82127Y-68236D01*
X82109Y-68217D01*
X82109Y-68255D01*
X81921Y-68255D02*
X81921Y-67861D01*
X81884Y-68105D02*
X81771Y-68255D01*
X81771Y-67992D02*
X81921Y-68142D01*
X81434Y-68255D02*
X81434Y-68049D01*
X81453Y-68011D01*
X81490Y-67992D01*
X81565Y-67992D01*
X81603Y-68011D01*
X81434Y-68236D02*
X81471Y-68255D01*
X81565Y-68255D01*
X81603Y-68236D01*
X81621Y-68199D01*
X81621Y-68161D01*
X81603Y-68124D01*
X81565Y-68105D01*
X81471Y-68105D01*
X81434Y-68086D01*
X81246Y-68255D02*
X81246Y-67992D01*
X81246Y-68067D02*
X81228Y-68030D01*
X81209Y-68011D01*
X81171Y-67992D01*
X81134Y-67992D01*
X81003Y-68255D02*
X81003Y-67992D01*
X81003Y-68067D02*
X80984Y-68030D01*
X80965Y-68011D01*
X80928Y-67992D01*
X80890Y-67992D01*
X80759Y-68255D02*
X80759Y-67992D01*
X80759Y-67861D02*
X80778Y-67880D01*
X80759Y-67899D01*
X80740Y-67880D01*
X80759Y-67861D01*
X80759Y-67899D01*
X80571Y-68255D02*
X80571Y-67861D01*
X80534Y-68105D02*
X80421Y-68255D01*
X80421Y-67992D02*
X80571Y-68142D01*
X80253Y-68255D02*
X80253Y-67992D01*
X80253Y-67861D02*
X80271Y-67880D01*
X80253Y-67899D01*
X80234Y-67880D01*
X80253Y-67861D01*
X80253Y-67899D01*
X80103Y-67992D02*
X80009Y-68255D01*
X79915Y-67992D01*
X79615Y-68236D02*
X79653Y-68255D01*
X79728Y-68255D01*
X79765Y-68236D01*
X79784Y-68199D01*
X79784Y-68049D01*
X79765Y-68011D01*
X79728Y-67992D01*
X79653Y-67992D01*
X79615Y-68011D01*
X79597Y-68049D01*
X79597Y-68086D01*
X79784Y-68124D01*
X79372Y-68255D02*
X79409Y-68236D01*
X79428Y-68199D01*
X79428Y-67861D01*
X79053Y-68255D02*
X79053Y-68049D01*
X79072Y-68011D01*
X79109Y-67992D01*
X79184Y-67992D01*
X79222Y-68011D01*
X79053Y-68236D02*
X79090Y-68255D01*
X79184Y-68255D01*
X79222Y-68236D01*
X79240Y-68199D01*
X79240Y-68161D01*
X79222Y-68124D01*
X79184Y-68105D01*
X79090Y-68105D01*
X79053Y-68086D01*
X78865Y-68217D02*
X78847Y-68236D01*
X78865Y-68255D01*
X78884Y-68236D01*
X78865Y-68217D01*
X78865Y-68255D01*
X78734Y-67992D02*
X78584Y-67992D01*
X78678Y-68255D02*
X78678Y-67917D01*
X78659Y-67880D01*
X78622Y-67861D01*
X78584Y-67861D01*
X78453Y-68255D02*
X78453Y-67992D01*
X78453Y-67861D02*
X78472Y-67880D01*
X78453Y-67899D01*
X78434Y-67880D01*
X78453Y-67861D01*
X78453Y-67899D01*
G54D10*
X86379Y-60560D02*
X86379Y-59339D01*
X86379Y-59339D02*
X87520Y-59339D01*
X87520Y-59339D02*
X87520Y-60560D01*
X87520Y-60560D02*
X86379Y-60560D01*
X86434Y-67756D02*
X84465Y-67756D01*
X84465Y-67756D02*
X84465Y-68543D01*
X84465Y-68543D02*
X86434Y-68543D01*
X86434Y-68543D02*
X86434Y-67756D01*
X86434Y-66556D02*
X84465Y-66556D01*
X84465Y-66556D02*
X84465Y-67343D01*
X84465Y-67343D02*
X86434Y-67343D01*
X86434Y-67343D02*
X86434Y-66556D01*
G54D13*
X75800Y-67250D02*
G75*
G03X75800Y-67250I-50J0D01*
G74*
G01*
X75750Y-66800D02*
X75750Y-67200D01*
X75750Y-67200D02*
X76350Y-67200D01*
X76350Y-67200D02*
X76350Y-66800D01*
X76350Y-66400D02*
X76350Y-66000D01*
X76350Y-66000D02*
X75750Y-66000D01*
X75750Y-66000D02*
X75750Y-66400D01*
X83900Y-58350D02*
G75*
G03X83900Y-58350I-50J0D01*
G74*
G01*
X83850Y-57900D02*
X83850Y-58300D01*
X83850Y-58300D02*
X84450Y-58300D01*
X84450Y-58300D02*
X84450Y-57900D01*
X84450Y-57500D02*
X84450Y-57100D01*
X84450Y-57100D02*
X83850Y-57100D01*
X83850Y-57100D02*
X83850Y-57500D01*
X86350Y-57700D02*
G75*
G03X86350Y-57700I-50J0D01*
G74*
G01*
X86750Y-57700D02*
X86350Y-57700D01*
X86350Y-57700D02*
X86350Y-58300D01*
X86350Y-58300D02*
X86750Y-58300D01*
X87150Y-58300D02*
X87550Y-58300D01*
X87550Y-58300D02*
X87550Y-57700D01*
X87550Y-57700D02*
X87150Y-57700D01*
X75000Y-69250D02*
G75*
G03X75000Y-69250I-50J0D01*
G74*
G01*
X74950Y-68800D02*
X74950Y-69200D01*
X74950Y-69200D02*
X75550Y-69200D01*
X75550Y-69200D02*
X75550Y-68800D01*
X75550Y-68400D02*
X75550Y-68000D01*
X75550Y-68000D02*
X74950Y-68000D01*
X74950Y-68000D02*
X74950Y-68400D01*
X82200Y-60600D02*
G75*
G03X82200Y-60600I-50J0D01*
G74*
G01*
X82150Y-60150D02*
X82150Y-60550D01*
X82150Y-60550D02*
X82750Y-60550D01*
X82750Y-60550D02*
X82750Y-60150D01*
X82750Y-59750D02*
X82750Y-59350D01*
X82750Y-59350D02*
X82150Y-59350D01*
X82150Y-59350D02*
X82150Y-59750D01*
X90000Y-59200D02*
G75*
G03X90000Y-59200I-50J0D01*
G74*
G01*
X89950Y-59650D02*
X89950Y-59250D01*
X89950Y-59250D02*
X89350Y-59250D01*
X89350Y-59250D02*
X89350Y-59650D01*
X89350Y-60050D02*
X89350Y-60450D01*
X89350Y-60450D02*
X89950Y-60450D01*
X89950Y-60450D02*
X89950Y-60050D01*
X74100Y-70050D02*
G75*
G03X74100Y-70050I-50J0D01*
G74*
G01*
X74050Y-69600D02*
X74050Y-70000D01*
X74050Y-70000D02*
X74650Y-70000D01*
X74650Y-70000D02*
X74650Y-69600D01*
X74650Y-69200D02*
X74650Y-68800D01*
X74650Y-68800D02*
X74050Y-68800D01*
X74050Y-68800D02*
X74050Y-69200D01*
X78050Y-62550D02*
G75*
G03X78050Y-62550I-50J0D01*
G74*
G01*
X78000Y-62100D02*
X78000Y-62500D01*
X78000Y-62500D02*
X78600Y-62500D01*
X78600Y-62500D02*
X78600Y-62100D01*
X78600Y-61700D02*
X78600Y-61300D01*
X78600Y-61300D02*
X78000Y-61300D01*
X78000Y-61300D02*
X78000Y-61700D01*
G54D14*
X82550Y-57200D02*
X83050Y-57200D01*
X82550Y-56700D02*
X83040Y-56700D01*
X82550Y-56550D02*
X82550Y-57350D01*
X82550Y-57350D02*
X83050Y-57350D01*
X83050Y-57350D02*
X83050Y-56550D01*
X83050Y-56550D02*
X82550Y-56550D01*
X83300Y-58700D02*
X83300Y-58200D01*
X82800Y-58700D02*
X82800Y-58210D01*
X82650Y-58700D02*
X83450Y-58700D01*
X83450Y-58700D02*
X83450Y-58200D01*
X83450Y-58200D02*
X82650Y-58200D01*
X82650Y-58200D02*
X82650Y-58700D01*
G54D10*
X87249Y-58743D02*
X87249Y-59061D01*
X87231Y-59099D01*
X87212Y-59118D01*
X87174Y-59136D01*
X87099Y-59136D01*
X87062Y-59118D01*
X87043Y-59099D01*
X87024Y-59061D01*
X87024Y-58743D01*
X86875Y-58743D02*
X86631Y-58743D01*
X86762Y-58893D01*
X86706Y-58893D01*
X86668Y-58911D01*
X86650Y-58930D01*
X86631Y-58968D01*
X86631Y-59061D01*
X86650Y-59099D01*
X86668Y-59118D01*
X86706Y-59136D01*
X86818Y-59136D01*
X86856Y-59118D01*
X86875Y-59099D01*
X88384Y-60652D02*
X88159Y-60652D01*
X88271Y-61046D02*
X88271Y-60652D01*
X88027Y-61046D02*
X88027Y-60652D01*
X87878Y-60652D01*
X87840Y-60671D01*
X87821Y-60690D01*
X87803Y-60727D01*
X87803Y-60783D01*
X87821Y-60821D01*
X87840Y-60840D01*
X87878Y-60858D01*
X88027Y-60858D01*
X87653Y-61027D02*
X87596Y-61046D01*
X87503Y-61046D01*
X87465Y-61027D01*
X87446Y-61008D01*
X87428Y-60971D01*
X87428Y-60933D01*
X87446Y-60896D01*
X87465Y-60877D01*
X87503Y-60858D01*
X87578Y-60840D01*
X87615Y-60821D01*
X87634Y-60802D01*
X87653Y-60765D01*
X87653Y-60727D01*
X87634Y-60690D01*
X87615Y-60671D01*
X87578Y-60652D01*
X87484Y-60652D01*
X87428Y-60671D01*
X87090Y-60652D02*
X87165Y-60652D01*
X87203Y-60671D01*
X87221Y-60690D01*
X87259Y-60746D01*
X87278Y-60821D01*
X87278Y-60971D01*
X87259Y-61008D01*
X87240Y-61027D01*
X87203Y-61046D01*
X87128Y-61046D01*
X87090Y-61027D01*
X87071Y-61008D01*
X87053Y-60971D01*
X87053Y-60877D01*
X87071Y-60840D01*
X87090Y-60821D01*
X87128Y-60802D01*
X87203Y-60802D01*
X87240Y-60821D01*
X87259Y-60840D01*
X87278Y-60877D01*
X86678Y-61046D02*
X86903Y-61046D01*
X86790Y-61046D02*
X86790Y-60652D01*
X86828Y-60708D01*
X86865Y-60746D01*
X86903Y-60765D01*
X86434Y-60652D02*
X86396Y-60652D01*
X86359Y-60671D01*
X86340Y-60690D01*
X86321Y-60727D01*
X86303Y-60802D01*
X86303Y-60896D01*
X86321Y-60971D01*
X86340Y-61008D01*
X86359Y-61027D01*
X86396Y-61046D01*
X86434Y-61046D01*
X86471Y-61027D01*
X86490Y-61008D01*
X86509Y-60971D01*
X86528Y-60896D01*
X86528Y-60802D01*
X86509Y-60727D01*
X86490Y-60690D01*
X86471Y-60671D01*
X86434Y-60652D01*
X86059Y-60652D02*
X86021Y-60652D01*
X85984Y-60671D01*
X85965Y-60690D01*
X85947Y-60727D01*
X85928Y-60802D01*
X85928Y-60896D01*
X85947Y-60971D01*
X85965Y-61008D01*
X85984Y-61027D01*
X86021Y-61046D01*
X86059Y-61046D01*
X86096Y-61027D01*
X86115Y-61008D01*
X86134Y-60971D01*
X86153Y-60896D01*
X86153Y-60802D01*
X86134Y-60727D01*
X86115Y-60690D01*
X86096Y-60671D01*
X86059Y-60652D01*
X85590Y-60652D02*
X85665Y-60652D01*
X85703Y-60671D01*
X85722Y-60690D01*
X85759Y-60746D01*
X85778Y-60821D01*
X85778Y-60971D01*
X85759Y-61008D01*
X85740Y-61027D01*
X85703Y-61046D01*
X85628Y-61046D01*
X85590Y-61027D01*
X85572Y-61008D01*
X85553Y-60971D01*
X85553Y-60877D01*
X85572Y-60840D01*
X85590Y-60821D01*
X85628Y-60802D01*
X85703Y-60802D01*
X85740Y-60821D01*
X85759Y-60840D01*
X85778Y-60877D01*
X85741Y-69026D02*
X85741Y-68632D01*
X85647Y-68632D01*
X85591Y-68651D01*
X85554Y-68688D01*
X85535Y-68726D01*
X85516Y-68801D01*
X85516Y-68857D01*
X85535Y-68932D01*
X85554Y-68970D01*
X85591Y-69007D01*
X85647Y-69026D01*
X85741Y-69026D01*
X85141Y-69026D02*
X85366Y-69026D01*
X85254Y-69026D02*
X85254Y-68632D01*
X85291Y-68688D01*
X85329Y-68726D01*
X85366Y-68745D01*
X85956Y-67915D02*
X85731Y-67915D01*
X85843Y-68309D02*
X85843Y-67915D01*
X85468Y-68103D02*
X85412Y-68121D01*
X85393Y-68140D01*
X85375Y-68178D01*
X85375Y-68234D01*
X85393Y-68271D01*
X85412Y-68290D01*
X85449Y-68309D01*
X85599Y-68309D01*
X85599Y-67915D01*
X85468Y-67915D01*
X85431Y-67934D01*
X85412Y-67953D01*
X85393Y-67990D01*
X85393Y-68028D01*
X85412Y-68065D01*
X85431Y-68084D01*
X85468Y-68103D01*
X85599Y-68103D01*
X85206Y-68309D02*
X85206Y-67915D01*
X85112Y-67915D01*
X85056Y-67934D01*
X85018Y-67971D01*
X85000Y-68009D01*
X84981Y-68084D01*
X84981Y-68140D01*
X85000Y-68215D01*
X85018Y-68253D01*
X85056Y-68290D01*
X85112Y-68309D01*
X85206Y-68309D01*
X85741Y-67826D02*
X85741Y-67432D01*
X85647Y-67432D01*
X85591Y-67451D01*
X85554Y-67488D01*
X85535Y-67526D01*
X85516Y-67601D01*
X85516Y-67657D01*
X85535Y-67732D01*
X85554Y-67770D01*
X85591Y-67807D01*
X85647Y-67826D01*
X85741Y-67826D01*
X85366Y-67470D02*
X85347Y-67451D01*
X85310Y-67432D01*
X85216Y-67432D01*
X85179Y-67451D01*
X85160Y-67470D01*
X85141Y-67507D01*
X85141Y-67545D01*
X85160Y-67601D01*
X85385Y-67826D01*
X85141Y-67826D01*
X85956Y-66715D02*
X85731Y-66715D01*
X85843Y-67109D02*
X85843Y-66715D01*
X85468Y-66903D02*
X85412Y-66921D01*
X85393Y-66940D01*
X85375Y-66978D01*
X85375Y-67034D01*
X85393Y-67071D01*
X85412Y-67090D01*
X85449Y-67109D01*
X85599Y-67109D01*
X85599Y-66715D01*
X85468Y-66715D01*
X85431Y-66734D01*
X85412Y-66753D01*
X85393Y-66790D01*
X85393Y-66828D01*
X85412Y-66865D01*
X85431Y-66884D01*
X85468Y-66903D01*
X85599Y-66903D01*
X85206Y-67109D02*
X85206Y-66715D01*
X85112Y-66715D01*
X85056Y-66734D01*
X85018Y-66771D01*
X85000Y-66809D01*
X84981Y-66884D01*
X84981Y-66940D01*
X85000Y-67015D01*
X85018Y-67053D01*
X85056Y-67090D01*
X85112Y-67109D01*
X85206Y-67109D01*
G54D15*
X76254Y-66473D02*
X76160Y-66407D01*
X76254Y-66360D02*
X76057Y-66360D01*
X76057Y-66435D01*
X76067Y-66454D01*
X76076Y-66463D01*
X76095Y-66473D01*
X76123Y-66473D01*
X76142Y-66463D01*
X76151Y-66454D01*
X76160Y-66435D01*
X76160Y-66360D01*
X76254Y-66660D02*
X76254Y-66548D01*
X76254Y-66604D02*
X76057Y-66604D01*
X76085Y-66585D01*
X76104Y-66567D01*
X76114Y-66548D01*
X76254Y-66848D02*
X76254Y-66736D01*
X76254Y-66792D02*
X76057Y-66792D01*
X76085Y-66773D01*
X76104Y-66754D01*
X76114Y-66736D01*
X75979Y-66482D02*
X75979Y-66370D01*
X75979Y-66426D02*
X75782Y-66426D01*
X75810Y-66407D01*
X75829Y-66388D01*
X75839Y-66370D01*
X75782Y-66604D02*
X75782Y-66623D01*
X75792Y-66642D01*
X75801Y-66651D01*
X75820Y-66660D01*
X75857Y-66670D01*
X75904Y-66670D01*
X75942Y-66660D01*
X75960Y-66651D01*
X75970Y-66642D01*
X75979Y-66623D01*
X75979Y-66604D01*
X75970Y-66585D01*
X75960Y-66576D01*
X75942Y-66567D01*
X75904Y-66557D01*
X75857Y-66557D01*
X75820Y-66567D01*
X75801Y-66576D01*
X75792Y-66585D01*
X75782Y-66604D01*
X75979Y-66754D02*
X75782Y-66754D01*
X75904Y-66773D02*
X75979Y-66829D01*
X75848Y-66829D02*
X75923Y-66754D01*
X84354Y-57573D02*
X84260Y-57507D01*
X84354Y-57460D02*
X84157Y-57460D01*
X84157Y-57535D01*
X84167Y-57554D01*
X84176Y-57563D01*
X84195Y-57573D01*
X84223Y-57573D01*
X84242Y-57563D01*
X84251Y-57554D01*
X84260Y-57535D01*
X84260Y-57460D01*
X84354Y-57760D02*
X84354Y-57648D01*
X84354Y-57704D02*
X84157Y-57704D01*
X84185Y-57685D01*
X84204Y-57667D01*
X84214Y-57648D01*
X84157Y-57826D02*
X84157Y-57948D01*
X84232Y-57882D01*
X84232Y-57911D01*
X84242Y-57929D01*
X84251Y-57939D01*
X84270Y-57948D01*
X84317Y-57948D01*
X84335Y-57939D01*
X84345Y-57929D01*
X84354Y-57911D01*
X84354Y-57854D01*
X84345Y-57836D01*
X84335Y-57826D01*
X84079Y-57582D02*
X84079Y-57470D01*
X84079Y-57526D02*
X83882Y-57526D01*
X83910Y-57507D01*
X83929Y-57488D01*
X83939Y-57470D01*
X83882Y-57704D02*
X83882Y-57723D01*
X83892Y-57742D01*
X83901Y-57751D01*
X83920Y-57760D01*
X83957Y-57770D01*
X84004Y-57770D01*
X84042Y-57760D01*
X84060Y-57751D01*
X84070Y-57742D01*
X84079Y-57723D01*
X84079Y-57704D01*
X84070Y-57685D01*
X84060Y-57676D01*
X84042Y-57667D01*
X84004Y-57657D01*
X83957Y-57657D01*
X83920Y-57667D01*
X83901Y-57676D01*
X83892Y-57685D01*
X83882Y-57704D01*
X84079Y-57854D02*
X83882Y-57854D01*
X84004Y-57873D02*
X84079Y-57929D01*
X83948Y-57929D02*
X84023Y-57854D01*
X87076Y-58204D02*
X87142Y-58110D01*
X87189Y-58204D02*
X87189Y-58007D01*
X87114Y-58007D01*
X87095Y-58017D01*
X87086Y-58026D01*
X87076Y-58045D01*
X87076Y-58073D01*
X87086Y-58092D01*
X87095Y-58101D01*
X87114Y-58110D01*
X87189Y-58110D01*
X86889Y-58204D02*
X87001Y-58204D01*
X86945Y-58204D02*
X86945Y-58007D01*
X86964Y-58035D01*
X86982Y-58054D01*
X87001Y-58064D01*
X86710Y-58007D02*
X86804Y-58007D01*
X86813Y-58101D01*
X86804Y-58092D01*
X86785Y-58082D01*
X86738Y-58082D01*
X86720Y-58092D01*
X86710Y-58101D01*
X86701Y-58120D01*
X86701Y-58167D01*
X86710Y-58185D01*
X86720Y-58195D01*
X86738Y-58204D01*
X86785Y-58204D01*
X86804Y-58195D01*
X86813Y-58185D01*
X86889Y-57929D02*
X86954Y-57835D01*
X87001Y-57929D02*
X87001Y-57732D01*
X86926Y-57732D01*
X86907Y-57742D01*
X86898Y-57751D01*
X86889Y-57770D01*
X86889Y-57798D01*
X86898Y-57817D01*
X86907Y-57826D01*
X86926Y-57835D01*
X87001Y-57835D01*
X75454Y-68567D02*
X75360Y-68501D01*
X75454Y-68454D02*
X75257Y-68454D01*
X75257Y-68529D01*
X75267Y-68548D01*
X75276Y-68557D01*
X75295Y-68567D01*
X75323Y-68567D01*
X75342Y-68557D01*
X75351Y-68548D01*
X75360Y-68529D01*
X75360Y-68454D01*
X75342Y-68679D02*
X75332Y-68660D01*
X75323Y-68651D01*
X75304Y-68642D01*
X75295Y-68642D01*
X75276Y-68651D01*
X75267Y-68660D01*
X75257Y-68679D01*
X75257Y-68717D01*
X75267Y-68736D01*
X75276Y-68745D01*
X75295Y-68754D01*
X75304Y-68754D01*
X75323Y-68745D01*
X75332Y-68736D01*
X75342Y-68717D01*
X75342Y-68679D01*
X75351Y-68660D01*
X75360Y-68651D01*
X75379Y-68642D01*
X75417Y-68642D01*
X75435Y-68651D01*
X75445Y-68660D01*
X75454Y-68679D01*
X75454Y-68717D01*
X75445Y-68736D01*
X75435Y-68745D01*
X75417Y-68754D01*
X75379Y-68754D01*
X75360Y-68745D01*
X75351Y-68736D01*
X75342Y-68717D01*
X75179Y-68482D02*
X75179Y-68370D01*
X75179Y-68426D02*
X74982Y-68426D01*
X75010Y-68407D01*
X75029Y-68388D01*
X75039Y-68370D01*
X74982Y-68604D02*
X74982Y-68623D01*
X74992Y-68642D01*
X75001Y-68651D01*
X75020Y-68660D01*
X75057Y-68670D01*
X75104Y-68670D01*
X75142Y-68660D01*
X75160Y-68651D01*
X75170Y-68642D01*
X75179Y-68623D01*
X75179Y-68604D01*
X75170Y-68585D01*
X75160Y-68576D01*
X75142Y-68567D01*
X75104Y-68557D01*
X75057Y-68557D01*
X75020Y-68567D01*
X75001Y-68576D01*
X74992Y-68585D01*
X74982Y-68604D01*
X75179Y-68754D02*
X74982Y-68754D01*
X75104Y-68773D02*
X75179Y-68829D01*
X75048Y-68829D02*
X75123Y-68754D01*
X82654Y-59823D02*
X82560Y-59757D01*
X82654Y-59710D02*
X82457Y-59710D01*
X82457Y-59785D01*
X82467Y-59804D01*
X82476Y-59813D01*
X82495Y-59823D01*
X82523Y-59823D01*
X82542Y-59813D01*
X82551Y-59804D01*
X82560Y-59785D01*
X82560Y-59710D01*
X82654Y-60010D02*
X82654Y-59898D01*
X82654Y-59954D02*
X82457Y-59954D01*
X82485Y-59935D01*
X82504Y-59917D01*
X82514Y-59898D01*
X82457Y-60179D02*
X82457Y-60142D01*
X82467Y-60123D01*
X82476Y-60114D01*
X82504Y-60095D01*
X82542Y-60086D01*
X82617Y-60086D01*
X82635Y-60095D01*
X82645Y-60104D01*
X82654Y-60123D01*
X82654Y-60161D01*
X82645Y-60179D01*
X82635Y-60189D01*
X82617Y-60198D01*
X82570Y-60198D01*
X82551Y-60189D01*
X82542Y-60179D01*
X82532Y-60161D01*
X82532Y-60123D01*
X82542Y-60104D01*
X82551Y-60095D01*
X82570Y-60086D01*
X82379Y-60010D02*
X82285Y-59945D01*
X82379Y-59898D02*
X82182Y-59898D01*
X82182Y-59973D01*
X82192Y-59992D01*
X82201Y-60001D01*
X82220Y-60010D01*
X82248Y-60010D01*
X82267Y-60001D01*
X82276Y-59992D01*
X82285Y-59973D01*
X82285Y-59898D01*
X89604Y-59723D02*
X89510Y-59657D01*
X89604Y-59610D02*
X89407Y-59610D01*
X89407Y-59685D01*
X89417Y-59704D01*
X89426Y-59713D01*
X89445Y-59723D01*
X89473Y-59723D01*
X89492Y-59713D01*
X89501Y-59704D01*
X89510Y-59685D01*
X89510Y-59610D01*
X89604Y-59910D02*
X89604Y-59798D01*
X89604Y-59854D02*
X89407Y-59854D01*
X89435Y-59835D01*
X89454Y-59817D01*
X89464Y-59798D01*
X89407Y-59976D02*
X89407Y-60107D01*
X89604Y-60023D01*
X89879Y-59910D02*
X89785Y-59845D01*
X89879Y-59798D02*
X89682Y-59798D01*
X89682Y-59873D01*
X89692Y-59892D01*
X89701Y-59901D01*
X89720Y-59910D01*
X89748Y-59910D01*
X89767Y-59901D01*
X89776Y-59892D01*
X89785Y-59873D01*
X89785Y-59798D01*
X74554Y-69367D02*
X74460Y-69301D01*
X74554Y-69254D02*
X74357Y-69254D01*
X74357Y-69329D01*
X74367Y-69348D01*
X74376Y-69357D01*
X74395Y-69367D01*
X74423Y-69367D01*
X74442Y-69357D01*
X74451Y-69348D01*
X74460Y-69329D01*
X74460Y-69254D01*
X74357Y-69432D02*
X74357Y-69564D01*
X74554Y-69479D01*
X74279Y-69282D02*
X74279Y-69170D01*
X74279Y-69226D02*
X74082Y-69226D01*
X74110Y-69207D01*
X74129Y-69188D01*
X74139Y-69170D01*
X74082Y-69404D02*
X74082Y-69423D01*
X74092Y-69442D01*
X74101Y-69451D01*
X74120Y-69460D01*
X74157Y-69470D01*
X74204Y-69470D01*
X74242Y-69460D01*
X74260Y-69451D01*
X74270Y-69442D01*
X74279Y-69423D01*
X74279Y-69404D01*
X74270Y-69385D01*
X74260Y-69376D01*
X74242Y-69367D01*
X74204Y-69357D01*
X74157Y-69357D01*
X74120Y-69367D01*
X74101Y-69376D01*
X74092Y-69385D01*
X74082Y-69404D01*
X74279Y-69554D02*
X74082Y-69554D01*
X74204Y-69573D02*
X74279Y-69629D01*
X74148Y-69629D02*
X74223Y-69554D01*
X78504Y-61867D02*
X78410Y-61801D01*
X78504Y-61754D02*
X78307Y-61754D01*
X78307Y-61829D01*
X78317Y-61848D01*
X78326Y-61857D01*
X78345Y-61867D01*
X78373Y-61867D01*
X78392Y-61857D01*
X78401Y-61848D01*
X78410Y-61829D01*
X78410Y-61754D01*
X78504Y-61960D02*
X78504Y-61998D01*
X78495Y-62017D01*
X78485Y-62026D01*
X78457Y-62045D01*
X78420Y-62054D01*
X78345Y-62054D01*
X78326Y-62045D01*
X78317Y-62036D01*
X78307Y-62017D01*
X78307Y-61979D01*
X78317Y-61960D01*
X78326Y-61951D01*
X78345Y-61942D01*
X78392Y-61942D01*
X78410Y-61951D01*
X78420Y-61960D01*
X78429Y-61979D01*
X78429Y-62017D01*
X78420Y-62036D01*
X78410Y-62045D01*
X78392Y-62054D01*
X78051Y-61656D02*
X78042Y-61665D01*
X78032Y-61684D01*
X78032Y-61731D01*
X78042Y-61749D01*
X78051Y-61759D01*
X78070Y-61768D01*
X78089Y-61768D01*
X78117Y-61759D01*
X78229Y-61646D01*
X78229Y-61768D01*
X78032Y-61890D02*
X78032Y-61909D01*
X78042Y-61928D01*
X78051Y-61937D01*
X78070Y-61946D01*
X78107Y-61956D01*
X78154Y-61956D01*
X78192Y-61946D01*
X78210Y-61937D01*
X78220Y-61928D01*
X78229Y-61909D01*
X78229Y-61890D01*
X78220Y-61871D01*
X78210Y-61862D01*
X78192Y-61853D01*
X78154Y-61843D01*
X78107Y-61843D01*
X78070Y-61853D01*
X78051Y-61862D01*
X78042Y-61871D01*
X78032Y-61890D01*
X78032Y-62078D02*
X78032Y-62097D01*
X78042Y-62115D01*
X78051Y-62125D01*
X78070Y-62134D01*
X78107Y-62143D01*
X78154Y-62143D01*
X78192Y-62134D01*
X78210Y-62125D01*
X78220Y-62115D01*
X78229Y-62097D01*
X78229Y-62078D01*
X78220Y-62059D01*
X78210Y-62050D01*
X78192Y-62040D01*
X78154Y-62031D01*
X78107Y-62031D01*
X78070Y-62040D01*
X78051Y-62050D01*
X78042Y-62059D01*
X78032Y-62078D01*
G54D16*
X82446Y-56930D02*
X82452Y-56924D01*
X82457Y-56907D01*
X82457Y-56896D01*
X82452Y-56879D01*
X82440Y-56868D01*
X82429Y-56862D01*
X82407Y-56857D01*
X82390Y-56857D01*
X82367Y-56862D01*
X82356Y-56868D01*
X82345Y-56879D01*
X82339Y-56896D01*
X82339Y-56907D01*
X82345Y-56924D01*
X82351Y-56930D01*
X82339Y-56969D02*
X82339Y-57048D01*
X82457Y-56997D01*
X83069Y-58876D02*
X83075Y-58882D01*
X83092Y-58887D01*
X83103Y-58887D01*
X83120Y-58882D01*
X83131Y-58870D01*
X83137Y-58859D01*
X83142Y-58837D01*
X83142Y-58820D01*
X83137Y-58797D01*
X83131Y-58786D01*
X83120Y-58775D01*
X83103Y-58769D01*
X83092Y-58769D01*
X83075Y-58775D01*
X83069Y-58781D01*
X82968Y-58769D02*
X82991Y-58769D01*
X83002Y-58775D01*
X83007Y-58781D01*
X83019Y-58797D01*
X83024Y-58820D01*
X83024Y-58865D01*
X83019Y-58876D01*
X83013Y-58882D01*
X83002Y-58887D01*
X82979Y-58887D01*
X82968Y-58882D01*
X82962Y-58876D01*
X82957Y-58865D01*
X82957Y-58837D01*
X82962Y-58825D01*
X82968Y-58820D01*
X82979Y-58814D01*
X83002Y-58814D01*
X83013Y-58820D01*
X83019Y-58825D01*
X83024Y-58837D01*
M02*
