G04 (created by PCBNEW (2013-07-07 BZR 4022)-stable) date 24/06/2015 00:02:37*
%MOIN*%
G04 Gerber Fmt 3.4, Leading zero omitted, Abs format*
%FSLAX34Y34*%
G01*
G70*
G90*
G04 APERTURE LIST*
%ADD10C,0.00590551*%
%ADD11R,0.0423228X0.0106299*%
%ADD12R,0.0358268X0.0480315*%
%ADD13R,0.055X0.035*%
%ADD14R,0.035X0.055*%
%ADD15R,0.055X0.055*%
%ADD16C,0.055*%
%ADD17C,0.056*%
%ADD18R,0.059X0.0512*%
%ADD19R,0.0512X0.059*%
%ADD20C,0.165354*%
%ADD21C,0.19685*%
%ADD22C,0.177165*%
G04 APERTURE END LIST*
G54D10*
G54D11*
X86167Y-60343D03*
X86167Y-60146D03*
X86167Y-59950D03*
X86167Y-59753D03*
X86167Y-59556D03*
X87732Y-59556D03*
X87732Y-59753D03*
X87732Y-59950D03*
X87732Y-60146D03*
X87732Y-60343D03*
G54D12*
X86095Y-68150D03*
X84804Y-68150D03*
X86095Y-66950D03*
X84804Y-66950D03*
G54D13*
X76050Y-66975D03*
X76050Y-66225D03*
X84150Y-58075D03*
X84150Y-57325D03*
G54D14*
X86575Y-58000D03*
X87325Y-58000D03*
G54D13*
X75250Y-68975D03*
X75250Y-68225D03*
X82450Y-60325D03*
X82450Y-59575D03*
X89650Y-59475D03*
X89650Y-60225D03*
X74350Y-69775D03*
X74350Y-69025D03*
X78300Y-62275D03*
X78300Y-61525D03*
G54D15*
X81100Y-74350D03*
G54D16*
X80100Y-74350D03*
X79100Y-74350D03*
X78100Y-74350D03*
X77100Y-74350D03*
G54D15*
X82450Y-72400D03*
G54D16*
X82450Y-73400D03*
X82450Y-74400D03*
G54D15*
X73200Y-63400D03*
G54D16*
X73200Y-64400D03*
G54D15*
X73550Y-59100D03*
G54D16*
X73550Y-60100D03*
G54D15*
X89600Y-70650D03*
G54D16*
X89600Y-71650D03*
G54D15*
X87750Y-56200D03*
G54D16*
X86750Y-56200D03*
G54D15*
X72900Y-70450D03*
G54D16*
X72900Y-69450D03*
G54D15*
X72950Y-67350D03*
G54D16*
X73950Y-67350D03*
G54D15*
X89550Y-57150D03*
G54D16*
X89550Y-56150D03*
G54D15*
X74350Y-71900D03*
G54D16*
X73350Y-71900D03*
G54D17*
X84500Y-71250D03*
X84500Y-69250D03*
G54D15*
X85250Y-58650D03*
G54D16*
X85250Y-62650D03*
G54D15*
X88750Y-58650D03*
G54D16*
X88750Y-62650D03*
G54D18*
X82800Y-57325D03*
X82800Y-56575D03*
G54D19*
X83425Y-58450D03*
X82675Y-58450D03*
G54D20*
X82000Y-64750D03*
G54D21*
X74450Y-73700D03*
G54D22*
X89350Y-73350D03*
M02*
