G04 (created by PCBNEW (2013-07-07 BZR 4022)-stable) date 24/06/2015 00:02:37*
%MOIN*%
G04 Gerber Fmt 3.4, Leading zero omitted, Abs format*
%FSLAX34Y34*%
G01*
G70*
G90*
G04 APERTURE LIST*
%ADD10C,0.00590551*%
%ADD11R,0.0394X0.0315*%
%ADD12R,0.0315X0.0394*%
%ADD13R,0.0358268X0.0480315*%
%ADD14R,0.05X0.02*%
%ADD15R,0.0590551X0.0590551*%
%ADD16R,0.035X0.055*%
%ADD17R,0.055X0.035*%
%ADD18R,0.055X0.055*%
%ADD19C,0.055*%
%ADD20R,0.0629921X0.224409*%
%ADD21C,0.056*%
%ADD22R,0.0433071X0.0314961*%
%ADD23R,0.0314961X0.0433071*%
%ADD24R,0.0512X0.059*%
%ADD25R,0.059X0.0512*%
%ADD26R,0.0480315X0.0358268*%
%ADD27C,0.165354*%
%ADD28C,0.19685*%
%ADD29C,0.177165*%
G04 APERTURE END LIST*
G54D10*
G54D11*
X85017Y-72850D03*
X85883Y-72475D03*
X85883Y-73225D03*
G54D12*
X84750Y-74533D03*
X84375Y-73667D03*
X85125Y-73667D03*
G54D13*
X87695Y-58300D03*
X86404Y-58300D03*
G54D14*
X77100Y-66000D03*
X77100Y-66500D03*
X77100Y-67000D03*
X77100Y-67500D03*
X77100Y-68000D03*
X77100Y-68500D03*
X77100Y-69000D03*
X77100Y-69500D03*
X77100Y-70000D03*
X77100Y-70500D03*
X80900Y-70500D03*
X80900Y-70000D03*
X80900Y-69500D03*
X80900Y-69000D03*
X80900Y-68500D03*
X80900Y-68000D03*
X80900Y-67500D03*
X80900Y-67000D03*
X80900Y-66500D03*
X80900Y-66000D03*
G54D15*
X74200Y-56031D03*
X75100Y-57781D03*
G54D16*
X87325Y-59300D03*
X86575Y-59300D03*
X82125Y-69500D03*
X82875Y-69500D03*
G54D17*
X89450Y-68875D03*
X89450Y-69625D03*
X86150Y-65325D03*
X86150Y-66075D03*
G54D16*
X87625Y-72800D03*
X86875Y-72800D03*
X87625Y-73750D03*
X86875Y-73750D03*
X74775Y-61450D03*
X75525Y-61450D03*
G54D17*
X75200Y-69775D03*
X75200Y-69025D03*
G54D16*
X82475Y-61650D03*
X83225Y-61650D03*
G54D18*
X81100Y-74350D03*
G54D19*
X80100Y-74350D03*
X79100Y-74350D03*
X78100Y-74350D03*
X77100Y-74350D03*
G54D18*
X82450Y-72400D03*
G54D19*
X82450Y-73400D03*
X82450Y-74400D03*
G54D18*
X73200Y-63400D03*
G54D19*
X73200Y-64400D03*
G54D18*
X73550Y-59100D03*
G54D19*
X73550Y-60100D03*
G54D18*
X89600Y-70650D03*
G54D19*
X89600Y-71650D03*
G54D18*
X87750Y-56200D03*
G54D19*
X86750Y-56200D03*
G54D18*
X72900Y-70450D03*
G54D19*
X72900Y-69450D03*
G54D18*
X72950Y-67350D03*
G54D19*
X73950Y-67350D03*
G54D18*
X89550Y-57150D03*
G54D19*
X89550Y-56150D03*
G54D18*
X74350Y-71900D03*
G54D19*
X73350Y-71900D03*
G54D20*
X89790Y-64800D03*
X87309Y-64800D03*
G54D21*
X84500Y-71250D03*
X84500Y-69250D03*
G54D22*
X76440Y-55706D03*
X76440Y-56297D03*
X76440Y-56887D03*
X76440Y-57478D03*
X76440Y-58068D03*
X76440Y-58659D03*
X76440Y-59250D03*
X76440Y-59840D03*
X76440Y-60431D03*
X76440Y-61021D03*
X76440Y-61612D03*
X76440Y-62202D03*
X76440Y-62793D03*
G54D23*
X76933Y-63482D03*
X77523Y-63482D03*
X78114Y-63482D03*
X78704Y-63482D03*
X79295Y-63482D03*
X79885Y-63482D03*
X80476Y-63482D03*
X81066Y-63482D03*
G54D22*
X81559Y-62793D03*
X81559Y-62202D03*
X81559Y-61612D03*
X81559Y-61021D03*
X81559Y-60431D03*
X81559Y-59840D03*
X81559Y-59250D03*
X81559Y-58659D03*
X81559Y-58068D03*
X81559Y-57478D03*
X81559Y-56887D03*
X81559Y-56297D03*
X81559Y-55706D03*
G54D18*
X85250Y-58650D03*
G54D19*
X85250Y-62650D03*
G54D18*
X88750Y-58650D03*
G54D19*
X88750Y-62650D03*
G54D24*
X86875Y-71250D03*
X87625Y-71250D03*
G54D25*
X75600Y-63125D03*
X75600Y-62375D03*
G54D24*
X80875Y-71500D03*
X80125Y-71500D03*
X86875Y-69250D03*
X87625Y-69250D03*
X86875Y-66950D03*
X87625Y-66950D03*
G54D26*
X84500Y-64595D03*
X84500Y-63304D03*
G54D27*
X82000Y-64750D03*
G54D28*
X74450Y-73700D03*
G54D29*
X89350Y-73350D03*
M02*
